  0
SECTION
  2
HEADER
  9
$ACADVER
  1
AC1009
  9
$FILLMODE
 70
0
  9
$EXTMIN
 10
-6.1846
 20
-5.1835
 30
0.0000
  9
$EXTMAX
 10
67.7375
 20
54.0741
 30
0.0000
  0
ENDSEC
  0
SECTION
  2
TABLES
  0
TABLE
  2
LTYPE
 70
1
  0
LTYPE
  2
CONTINUOUS
 70
64
  3
Solid line
 72
65
 73
0
 40
0
  0
ENDTAB
  0
TABLE
  2
LAYER
 70
255
  0
LAYER
  2
19
 70
64
 62
53
  6
CONTINUOUS
  0
LAYER
  2
20
 70
64
 62
53
  6
CONTINUOUS
  0
LAYER
  2
21
 70
64
 62
253
  6
CONTINUOUS
  0
LAYER
  2
45
 70
64
 62
253
  6
CONTINUOUS
  0
LAYER
  2
48
 70
64
 62
213
  6
CONTINUOUS
  0
LAYER
  2
51
 70
64
 62
253
  6
CONTINUOUS
  0
LAYER
  2
117
 70
64
 62
253
  6
CONTINUOUS
  0
LAYER
  2
118
 70
64
 62
253
  6
CONTINUOUS
  0
LAYER
  2
119
 70
64
 62
253
  6
CONTINUOUS
  0
LAYER
  2
120
 70
64
 62
253
  6
CONTINUOUS
  0
LAYER
  2
127
 70
64
 62
253
  6
CONTINUOUS
  0
LAYER
  2
128
 70
64
 62
253
  6
CONTINUOUS
  0
LAYER
  2
130
 70
64
 62
253
  6
CONTINUOUS
  0
LAYER
  2
133
 70
64
 62
253
  6
CONTINUOUS
  0
LAYER
  2
134
 70
64
 62
253
  6
CONTINUOUS
  0
LAYER
  2
135
 70
64
 62
253
  6
CONTINUOUS
  0
LAYER
  2
136
 70
64
 62
253
  6
CONTINUOUS
  0
LAYER
  2
137
 70
64
 62
253
  6
CONTINUOUS
  0
LAYER
  2
138
 70
64
 62
253
  6
CONTINUOUS
  0
LAYER
  2
139
 70
64
 62
253
  6
CONTINUOUS
  0
LAYER
  2
140
 70
64
 62
253
  6
CONTINUOUS
  0
LAYER
  2
141
 70
64
 62
253
  6
CONTINUOUS
  0
LAYER
  2
142
 70
64
 62
253
  6
CONTINUOUS
  0
LAYER
  2
143
 70
64
 62
253
  6
CONTINUOUS
  0
LAYER
  2
144
 70
64
 62
253
  6
CONTINUOUS
  0
LAYER
  2
145
 70
64
 62
253
  6
CONTINUOUS
  0
LAYER
  2
146
 70
64
 62
253
  6
CONTINUOUS
  0
LAYER
  2
147
 70
64
 62
253
  6
CONTINUOUS
  0
LAYER
  2
148
 70
64
 62
253
  6
CONTINUOUS
  0
LAYER
  2
149
 70
64
 62
253
  6
CONTINUOUS
  0
LAYER
  2
150
 70
64
 62
253
  6
CONTINUOUS
  0
LAYER
  2
152
 70
64
 62
253
  6
CONTINUOUS
  0
LAYER
  2
153
 70
64
 62
253
  6
CONTINUOUS
  0
LAYER
  2
154
 70
64
 62
253
  6
CONTINUOUS
  0
LAYER
  2
155
 70
64
 62
253
  6
CONTINUOUS
  0
LAYER
  2
191
 70
64
 62
253
  6
CONTINUOUS
  0
LAYER
  2
192
 70
64
 62
253
  6
CONTINUOUS
  0
LAYER
  2
193
 70
64
 62
253
  6
CONTINUOUS
  0
LAYER
  2
194
 70
64
 62
253
  6
CONTINUOUS
  0
LAYER
  2
195
 70
64
 62
253
  6
CONTINUOUS
  0
LAYER
  2
196
 70
64
 62
253
  6
CONTINUOUS
  0
LAYER
  2
199
 70
64
 62
253
  6
CONTINUOUS
  0
LAYER
  2
228
 70
64
 62
253
  6
CONTINUOUS
  0
LAYER
  2
229
 70
64
 62
253
  6
CONTINUOUS
  0
LAYER
  2
230
 70
64
 62
253
  6
CONTINUOUS
  0
LAYER
  2
231
 70
64
 62
253
  6
CONTINUOUS
  0
LAYER
  2
232
 70
64
 62
253
  6
CONTINUOUS
  0
LAYER
  2
233
 70
64
 62
253
  6
CONTINUOUS
  0
LAYER
  2
248
 70
64
 62
253
  6
CONTINUOUS
  0
LAYER
  2
249
 70
64
 62
253
  6
CONTINUOUS
  0
LAYER
  2
255
 70
64
 62
253
  6
CONTINUOUS
  0
ENDTAB
  0
ENDSEC
  0
SECTION
  2
BLOCKS
  0
BLOCK
  8
0
  2
RECT
 70
64
 10
0.0000
 20
0.0000
 30
0.0000
  3
RECT
  0
SOLID
  8
0
 10
-0.5000
 20
-0.5000
 30
0.0000
 11
0.5000
 21
-0.5000
 31
0.0000
 12
-0.5000
 22
0.5000
 32
0.0000
 13
0.5000
 23
0.5000
 33
0.0000
  0
ENDBLK
  8
0
  0
BLOCK
  8
0
  2
PIE
 70
64
 10
0.0000
 20
0.0000
 30
0.0000
  3
PIE
  0
CIRCLE
  8
0
 10
0.0000
 20
0.0000
 30
0.0000
 40
0.5000
  0
ENDBLK
  8
0
  0
BLOCK
  8
0
  2
OCTAGONP
 70
64
 10
0.0000
 20
0.0000
 30
0.0000
  3
OCTAGONP
  0
POLYLINE
  8
0
 66
1
 10
0.0000
 20
0.0000
 30
0.0000
 40
0.0000
 41
0.0000
 70
1
  0
VERTEX
  8
0
 10
-0.5000
 20
-0.2071
 30
0.0000
  0
VERTEX
  8
0
 10
-0.5000
 20
0.2071
 30
0.0000
  0
VERTEX
  8
0
 10
-0.2071
 20
0.5000
 30
0.0000
  0
VERTEX
  8
0
 10
0.2071
 20
0.5000
 30
0.0000
  0
VERTEX
  8
0
 10
0.5000
 20
0.2071
 30
0.0000
  0
VERTEX
  8
0
 10
0.5000
 20
-0.2071
 30
0.0000
  0
VERTEX
  8
0
 10
0.2071
 20
-0.5000
 30
0.0000
  0
VERTEX
  8
0
 10
-0.2071
 20
-0.5000
 30
0.0000
  0
SEQEND
  8
0
  0
ENDBLK
  8
0
  0
BLOCK
  8
0
  2
SQUAREP
 70
64
 10
0.0000
 20
0.0000
 30
0.0000
  3
SQUAREP
  0
SOLID
  8
0
 10
-0.5000
 20
-0.5000
 30
0.0000
 11
0.5000
 21
-0.5000
 31
0.0000
 12
-0.5000
 22
0.5000
 32
0.0000
 13
0.5000
 23
0.5000
 33
0.0000
  0
ENDBLK
  8
0
  0
BLOCK
  8
0
  2
ROUNDP
 70
64
 10
0.0000
 20
0.0000
 30
0.0000
  3
ROUNDP
  0
CIRCLE
  8
0
 10
0.0000
 20
0.0000
 30
0.0000
 40
0.5000
  0
ENDBLK
  8
0
  0
BLOCK
  8
0
  2
ANNULUSP
 70
64
 10
0.0000
 20
0.0000
 30
0.0000
  3
ANNULUSP
  0
CIRCLE
  8
0
 10
0.0000
 20
0.0000
 30
0.0000
 40
0.5000
  0
ENDBLK
  8
0
  0
BLOCK
  8
0
  2
THERMALP
 70
64
 10
0.0000
 20
0.0000
 30
0.0000
  3
THERMALP
  0
LINE
  8
0
 10
-0.2379
 20
0.4500
 30
0.0000
 11
0.2379
 21
0.4500
 31
0.0000
  0
LINE
  8
0
 10
0.4500
 20
0.2379
 30
0.0000
 11
0.4500
 21
-0.2379
 31
0.0000
  0
LINE
  8
0
 10
0.2379
 20
-0.4500
 30
0.0000
 11
-0.2379
 21
-0.4500
 31
0.0000
  0
LINE
  8
0
 10
-0.4500
 20
-0.2379
 30
0.0000
 11
-0.4500
 21
0.2379
 31
0.0000
  0
ENDBLK
  8
0
  0
BLOCK
  8
0
  2
OCTAGONV
 70
64
 10
0.0000
 20
0.0000
 30
0.0000
  3
OCTAGONV
  0
POLYLINE
  8
0
 66
1
 10
0.0000
 20
0.0000
 30
0.0000
 40
0.0000
 41
0.0000
 70
1
  0
VERTEX
  8
0
 10
-0.5000
 20
-0.2071
 30
0.0000
  0
VERTEX
  8
0
 10
-0.5000
 20
0.2071
 30
0.0000
  0
VERTEX
  8
0
 10
-0.2071
 20
0.5000
 30
0.0000
  0
VERTEX
  8
0
 10
0.2071
 20
0.5000
 30
0.0000
  0
VERTEX
  8
0
 10
0.5000
 20
0.2071
 30
0.0000
  0
VERTEX
  8
0
 10
0.5000
 20
-0.2071
 30
0.0000
  0
VERTEX
  8
0
 10
0.2071
 20
-0.5000
 30
0.0000
  0
VERTEX
  8
0
 10
-0.2071
 20
-0.5000
 30
0.0000
  0
SEQEND
  8
0
  0
ENDBLK
  8
0
  0
BLOCK
  8
0
  2
SQUAREV
 70
64
 10
0.0000
 20
0.0000
 30
0.0000
  3
SQUAREV
  0
SOLID
  8
0
 10
-0.5000
 20
-0.5000
 30
0.0000
 11
0.5000
 21
-0.5000
 31
0.0000
 12
-0.5000
 22
0.5000
 32
0.0000
 13
0.5000
 23
0.5000
 33
0.0000
  0
ENDBLK
  8
0
  0
BLOCK
  8
0
  2
ROUNDV
 70
64
 10
0.0000
 20
0.0000
 30
0.0000
  3
ROUNDV
  0
CIRCLE
  8
0
 10
0.0000
 20
0.0000
 30
0.0000
 40
0.5000
  0
ENDBLK
  8
0
  0
BLOCK
  8
0
  2
ANNULUSV
 70
64
 10
0.0000
 20
0.0000
 30
0.0000
  3
ANNULUSV
  0
CIRCLE
  8
0
 10
0.0000
 20
0.0000
 30
0.0000
 40
0.5000
  0
ENDBLK
  8
0
  0
BLOCK
  8
0
  2
THERMALV
 70
64
 10
0.0000
 20
0.0000
 30
0.0000
  3
THERMALV
  0
LINE
  8
0
 10
-0.2379
 20
0.4500
 30
0.0000
 11
0.2379
 21
0.4500
 31
0.0000
  0
LINE
  8
0
 10
0.4500
 20
0.2379
 30
0.0000
 11
0.4500
 21
-0.2379
 31
0.0000
  0
LINE
  8
0
 10
0.2379
 20
-0.4500
 30
0.0000
 11
-0.2379
 21
-0.4500
 31
0.0000
  0
LINE
  8
0
 10
-0.4500
 20
-0.2379
 30
0.0000
 11
-0.4500
 21
0.2379
 31
0.0000
  0
ENDBLK
  8
0
  0
ENDSEC
  0
SECTION
  2
ENTITIES
  0
LINE
  8
20
 10
0.0000
 20
0.0000
 30
0.0000
 11
54.5000
 21
0.0000
 31
0.0000
  0
LINE
  8
20
 10
54.5000
 20
0.0000
 30
0.0000
 11
54.5000
 21
30.5000
 31
0.0000
  0
LINE
  8
20
 10
54.5000
 20
30.5000
 30
0.0000
 11
0.0000
 21
30.5000
 31
0.0000
  0
LINE
  8
20
 10
0.0000
 20
30.5000
 30
0.0000
 11
0.0000
 21
0.0000
 31
0.0000
  0
LINE
  8
21
 10
20.9042
 20
1.7672
 30
0.0000
 11
20.9042
 21
0.9876
 31
0.0000
  0
LINE
  8
21
 10
20.9042
 20
0.9876
 30
0.0000
 11
20.1246
 21
1.7672
 31
0.0000
  0
LINE
  8
21
 10
20.1246
 20
1.7672
 30
0.0000
 11
19.9297
 21
1.7672
 31
0.0000
  0
LINE
  8
21
 10
19.9297
 20
1.7672
 30
0.0000
 11
19.7348
 21
1.5723
 31
0.0000
  0
LINE
  8
21
 10
19.7348
 20
1.5723
 30
0.0000
 11
19.7348
 21
1.1825
 31
0.0000
  0
LINE
  8
21
 10
19.7348
 20
1.1825
 30
0.0000
 11
19.9297
 21
0.9876
 31
0.0000
  0
LINE
  8
21
 10
19.9297
 20
2.1570
 30
0.0000
 11
19.7348
 21
2.3519
 31
0.0000
  0
LINE
  8
21
 10
19.7348
 20
2.3519
 30
0.0000
 11
19.7348
 21
2.7417
 31
0.0000
  0
LINE
  8
21
 10
19.7348
 20
2.7417
 30
0.0000
 11
19.9297
 21
2.9366
 31
0.0000
  0
LINE
  8
21
 10
19.9297
 20
2.9366
 30
0.0000
 11
20.1246
 21
2.9366
 31
0.0000
  0
LINE
  8
21
 10
20.1246
 20
2.9366
 30
0.0000
 11
20.3195
 21
2.7417
 31
0.0000
  0
LINE
  8
21
 10
20.3195
 20
2.7417
 30
0.0000
 11
20.3195
 21
2.5468
 31
0.0000
  0
LINE
  8
21
 10
20.3195
 20
2.7417
 30
0.0000
 11
20.5144
 21
2.9366
 31
0.0000
  0
LINE
  8
21
 10
20.5144
 20
2.9366
 30
0.0000
 11
20.7093
 21
2.9366
 31
0.0000
  0
LINE
  8
21
 10
20.7093
 20
2.9366
 30
0.0000
 11
20.9042
 21
2.7417
 31
0.0000
  0
LINE
  8
21
 10
20.9042
 20
2.7417
 30
0.0000
 11
20.9042
 21
2.3519
 31
0.0000
  0
LINE
  8
21
 10
20.9042
 20
2.3519
 30
0.0000
 11
20.7093
 21
2.1570
 31
0.0000
  0
LINE
  8
21
 10
20.9042
 20
4.1060
 30
0.0000
 11
20.9042
 21
3.3264
 31
0.0000
  0
LINE
  8
21
 10
20.9042
 20
3.3264
 30
0.0000
 11
20.1246
 21
4.1060
 31
0.0000
  0
LINE
  8
21
 10
20.1246
 20
4.1060
 30
0.0000
 11
19.9297
 21
4.1060
 31
0.0000
  0
LINE
  8
21
 10
19.9297
 20
4.1060
 30
0.0000
 11
19.7348
 21
3.9111
 31
0.0000
  0
LINE
  8
21
 10
19.7348
 20
3.9111
 30
0.0000
 11
19.7348
 21
3.5213
 31
0.0000
  0
LINE
  8
21
 10
19.7348
 20
3.5213
 30
0.0000
 11
19.9297
 21
3.3264
 31
0.0000
  0
LINE
  8
21
 10
24.8148
 20
0.9876
 30
0.0000
 11
25.9842
 21
0.9876
 31
0.0000
  0
LINE
  8
21
 10
25.9842
 20
0.9876
 30
0.0000
 11
25.9842
 21
1.5723
 31
0.0000
  0
LINE
  8
21
 10
25.9842
 20
1.5723
 30
0.0000
 11
25.7893
 21
1.7672
 31
0.0000
  0
LINE
  8
21
 10
25.7893
 20
1.7672
 30
0.0000
 11
25.0097
 21
1.7672
 31
0.0000
  0
LINE
  8
21
 10
25.0097
 20
1.7672
 30
0.0000
 11
24.8148
 21
1.5723
 31
0.0000
  0
LINE
  8
21
 10
24.8148
 20
1.5723
 30
0.0000
 11
24.8148
 21
0.9876
 31
0.0000
  0
LINE
  8
21
 10
25.9842
 20
2.5468
 30
0.0000
 11
24.8148
 21
2.5468
 31
0.0000
  0
LINE
  8
21
 10
24.8148
 20
2.1570
 30
0.0000
 11
24.8148
 21
2.9366
 31
0.0000
  0
LINE
  8
21
 10
25.9842
 20
3.3264
 30
0.0000
 11
24.8148
 21
3.3264
 31
0.0000
  0
LINE
  8
21
 10
24.8148
 20
3.3264
 30
0.0000
 11
24.8148
 21
3.9111
 31
0.0000
  0
LINE
  8
21
 10
24.8148
 20
3.9111
 30
0.0000
 11
25.0097
 21
4.1060
 31
0.0000
  0
LINE
  8
21
 10
25.0097
 20
4.1060
 30
0.0000
 11
25.3995
 21
4.1060
 31
0.0000
  0
LINE
  8
21
 10
25.3995
 20
4.1060
 30
0.0000
 11
25.5944
 21
3.9111
 31
0.0000
  0
LINE
  8
21
 10
25.5944
 20
3.9111
 30
0.0000
 11
25.5944
 21
3.3264
 31
0.0000
  0
LINE
  8
21
 10
25.5944
 20
3.7162
 30
0.0000
 11
25.9842
 21
4.1060
 31
0.0000
  0
LINE
  8
21
 10
31.2230
 20
1.3774
 30
0.0000
 11
30.0536
 21
1.3774
 31
0.0000
  0
LINE
  8
21
 10
30.0536
 20
0.9876
 30
0.0000
 11
30.0536
 21
1.7672
 31
0.0000
  0
LINE
  8
21
 10
30.0536
 20
2.1570
 30
0.0000
 11
31.2230
 21
2.9366
 31
0.0000
  0
LINE
  8
21
 10
30.0536
 20
2.9366
 30
0.0000
 11
31.2230
 21
2.1570
 31
0.0000
  0
LINE
  8
21
 10
30.0536
 20
3.3264
 30
0.0000
 11
31.2230
 21
3.3264
 31
0.0000
  0
LINE
  8
21
 10
31.2230
 20
3.3264
 30
0.0000
 11
31.2230
 21
3.9111
 31
0.0000
  0
LINE
  8
21
 10
31.2230
 20
3.9111
 30
0.0000
 11
31.0281
 21
4.1060
 31
0.0000
  0
LINE
  8
21
 10
31.0281
 20
4.1060
 30
0.0000
 11
30.2485
 21
4.1060
 31
0.0000
  0
LINE
  8
21
 10
30.2485
 20
4.1060
 30
0.0000
 11
30.0536
 21
3.9111
 31
0.0000
  0
LINE
  8
21
 10
30.0536
 20
3.9111
 30
0.0000
 11
30.0536
 21
3.3264
 31
0.0000
  0
LINE
  8
21
 10
36.1442
 20
0.9876
 30
0.0000
 11
34.9748
 21
0.9876
 31
0.0000
  0
LINE
  8
21
 10
34.9748
 20
0.9876
 30
0.0000
 11
34.9748
 21
1.5723
 31
0.0000
  0
LINE
  8
21
 10
34.9748
 20
1.5723
 30
0.0000
 11
35.1697
 21
1.7672
 31
0.0000
  0
LINE
  8
21
 10
35.1697
 20
1.7672
 30
0.0000
 11
35.5595
 21
1.7672
 31
0.0000
  0
LINE
  8
21
 10
35.5595
 20
1.7672
 30
0.0000
 11
35.7544
 21
1.5723
 31
0.0000
  0
LINE
  8
21
 10
35.7544
 20
1.5723
 30
0.0000
 11
35.7544
 21
0.9876
 31
0.0000
  0
LINE
  8
21
 10
35.7544
 20
1.3774
 30
0.0000
 11
36.1442
 21
1.7672
 31
0.0000
  0
LINE
  8
21
 10
36.1442
 20
2.5468
 30
0.0000
 11
34.9748
 21
2.5468
 31
0.0000
  0
LINE
  8
21
 10
34.9748
 20
2.1570
 30
0.0000
 11
34.9748
 21
2.9366
 31
0.0000
  0
LINE
  8
21
 10
35.1697
 20
4.1060
 30
0.0000
 11
34.9748
 21
3.9111
 31
0.0000
  0
LINE
  8
21
 10
34.9748
 20
3.9111
 30
0.0000
 11
34.9748
 21
3.5213
 31
0.0000
  0
LINE
  8
21
 10
34.9748
 20
3.5213
 30
0.0000
 11
35.1697
 21
3.3264
 31
0.0000
  0
LINE
  8
21
 10
35.1697
 20
3.3264
 30
0.0000
 11
35.3646
 21
3.3264
 31
0.0000
  0
LINE
  8
21
 10
35.3646
 20
3.3264
 30
0.0000
 11
35.5595
 21
3.5213
 31
0.0000
  0
LINE
  8
21
 10
35.5595
 20
3.5213
 30
0.0000
 11
35.5595
 21
3.9111
 31
0.0000
  0
LINE
  8
21
 10
35.5595
 20
3.9111
 30
0.0000
 11
35.7544
 21
4.1060
 31
0.0000
  0
LINE
  8
21
 10
35.7544
 20
4.1060
 30
0.0000
 11
35.9493
 21
4.1060
 31
0.0000
  0
LINE
  8
21
 10
35.9493
 20
4.1060
 30
0.0000
 11
36.1442
 21
3.9111
 31
0.0000
  0
LINE
  8
21
 10
36.1442
 20
3.9111
 30
0.0000
 11
36.1442
 21
3.5213
 31
0.0000
  0
LINE
  8
21
 10
36.1442
 20
3.5213
 30
0.0000
 11
35.9493
 21
3.3264
 31
0.0000
  0
LINE
  8
21
 10
5.8230
 20
24.0582
 30
0.0000
 11
4.8485
 21
24.0582
 31
0.0000
  0
LINE
  8
21
 10
4.8485
 20
24.0582
 30
0.0000
 11
4.6536
 21
24.2531
 31
0.0000
  0
LINE
  8
21
 10
5.2383
 20
23.8633
 30
0.0000
 11
5.2383
 21
24.2531
 31
0.0000
  0
LINE
  8
21
 10
5.8230
 20
25.2276
 30
0.0000
 11
5.8230
 21
24.8378
 31
0.0000
  0
LINE
  8
21
 10
5.8230
 20
24.8378
 30
0.0000
 11
5.6281
 21
24.6429
 31
0.0000
  0
LINE
  8
21
 10
5.6281
 20
24.6429
 30
0.0000
 11
5.2383
 21
24.6429
 31
0.0000
  0
LINE
  8
21
 10
5.2383
 20
24.6429
 30
0.0000
 11
5.0434
 21
24.8378
 31
0.0000
  0
LINE
  8
21
 10
5.0434
 20
24.8378
 30
0.0000
 11
5.0434
 21
25.2276
 31
0.0000
  0
LINE
  8
21
 10
5.0434
 20
25.2276
 30
0.0000
 11
5.2383
 21
25.4225
 31
0.0000
  0
LINE
  8
21
 10
5.2383
 20
25.4225
 30
0.0000
 11
5.4332
 21
25.4225
 31
0.0000
  0
LINE
  8
21
 10
5.4332
 20
25.4225
 30
0.0000
 11
5.4332
 21
24.6429
 31
0.0000
  0
LINE
  8
21
 10
5.8230
 20
25.8123
 30
0.0000
 11
5.0434
 21
25.8123
 31
0.0000
  0
LINE
  8
21
 10
5.0434
 20
25.8123
 30
0.0000
 11
5.0434
 21
26.0072
 31
0.0000
  0
LINE
  8
21
 10
5.0434
 20
26.0072
 30
0.0000
 11
5.2383
 21
26.2021
 31
0.0000
  0
LINE
  8
21
 10
5.2383
 20
26.2021
 30
0.0000
 11
5.8230
 21
26.2021
 31
0.0000
  0
LINE
  8
21
 10
5.2383
 20
26.2021
 30
0.0000
 11
5.0434
 21
26.3970
 31
0.0000
  0
LINE
  8
21
 10
5.0434
 20
26.3970
 30
0.0000
 11
5.2383
 21
26.5919
 31
0.0000
  0
LINE
  8
21
 10
5.2383
 20
26.5919
 30
0.0000
 11
5.8230
 21
26.5919
 31
0.0000
  0
LINE
  8
21
 10
5.0434
 20
27.1766
 30
0.0000
 11
5.0434
 21
27.5664
 31
0.0000
  0
LINE
  8
21
 10
5.0434
 20
27.5664
 30
0.0000
 11
5.2383
 21
27.7613
 31
0.0000
  0
LINE
  8
21
 10
5.2383
 20
27.7613
 30
0.0000
 11
5.8230
 21
27.7613
 31
0.0000
  0
LINE
  8
21
 10
5.8230
 20
27.7613
 30
0.0000
 11
5.8230
 21
27.1766
 31
0.0000
  0
LINE
  8
21
 10
5.8230
 20
27.1766
 30
0.0000
 11
5.6281
 21
26.9817
 31
0.0000
  0
LINE
  8
21
 10
5.6281
 20
26.9817
 30
0.0000
 11
5.4332
 21
27.1766
 31
0.0000
  0
LINE
  8
21
 10
5.4332
 20
27.1766
 30
0.0000
 11
5.4332
 21
27.7613
 31
0.0000
  0
LINE
  8
21
 10
4.6536
 20
28.1511
 30
0.0000
 11
4.6536
 21
28.3460
 31
0.0000
  0
LINE
  8
21
 10
4.6536
 20
28.3460
 30
0.0000
 11
5.8230
 21
28.3460
 31
0.0000
  0
LINE
  8
21
 10
5.8230
 20
28.1511
 30
0.0000
 11
5.8230
 21
28.5409
 31
0.0000
  0
LINE
  8
21
 10
5.8230
 20
29.5154
 30
0.0000
 11
5.8230
 21
29.1256
 31
0.0000
  0
LINE
  8
21
 10
5.8230
 20
29.1256
 30
0.0000
 11
5.6281
 21
28.9307
 31
0.0000
  0
LINE
  8
21
 10
5.6281
 20
28.9307
 30
0.0000
 11
5.2383
 21
28.9307
 31
0.0000
  0
LINE
  8
21
 10
5.2383
 20
28.9307
 30
0.0000
 11
5.0434
 21
29.1256
 31
0.0000
  0
LINE
  8
21
 10
5.0434
 20
29.1256
 30
0.0000
 11
5.0434
 21
29.5154
 31
0.0000
  0
LINE
  8
21
 10
5.0434
 20
29.5154
 30
0.0000
 11
5.2383
 21
29.7103
 31
0.0000
  0
LINE
  8
21
 10
5.2383
 20
29.7103
 30
0.0000
 11
5.4332
 21
29.7103
 31
0.0000
  0
LINE
  8
21
 10
5.4332
 20
29.7103
 30
0.0000
 11
5.4332
 21
28.9307
 31
0.0000
  0
LINE
  8
21
 10
49.6380
 20
23.7046
 30
0.0000
 11
48.8584
 21
23.7046
 31
0.0000
  0
LINE
  8
21
 10
48.8584
 20
23.7046
 30
0.0000
 11
48.8584
 21
23.8994
 31
0.0000
  0
LINE
  8
21
 10
48.8584
 20
23.8994
 30
0.0000
 11
49.0533
 21
24.0943
 31
0.0000
  0
LINE
  8
21
 10
49.0533
 20
24.0943
 30
0.0000
 11
49.6380
 21
24.0943
 31
0.0000
  0
LINE
  8
21
 10
49.0533
 20
24.0943
 30
0.0000
 11
48.8584
 21
24.2892
 31
0.0000
  0
LINE
  8
21
 10
48.8584
 20
24.2892
 30
0.0000
 11
49.0533
 21
24.4841
 31
0.0000
  0
LINE
  8
21
 10
49.0533
 20
24.4841
 30
0.0000
 11
49.6380
 21
24.4841
 31
0.0000
  0
LINE
  8
21
 10
48.8584
 20
25.0688
 30
0.0000
 11
48.8584
 21
25.4586
 31
0.0000
  0
LINE
  8
21
 10
48.8584
 20
25.4586
 30
0.0000
 11
49.0533
 21
25.6535
 31
0.0000
  0
LINE
  8
21
 10
49.0533
 20
25.6535
 30
0.0000
 11
49.6380
 21
25.6535
 31
0.0000
  0
LINE
  8
21
 10
49.6380
 20
25.6535
 30
0.0000
 11
49.6380
 21
25.0688
 31
0.0000
  0
LINE
  8
21
 10
49.6380
 20
25.0688
 30
0.0000
 11
49.4431
 21
24.8739
 31
0.0000
  0
LINE
  8
21
 10
49.4431
 20
24.8739
 30
0.0000
 11
49.2482
 21
25.0688
 31
0.0000
  0
LINE
  8
21
 10
49.2482
 20
25.0688
 30
0.0000
 11
49.2482
 21
25.6535
 31
0.0000
  0
LINE
  8
21
 10
48.4686
 20
26.0433
 30
0.0000
 11
48.4686
 21
26.2382
 31
0.0000
  0
LINE
  8
21
 10
48.4686
 20
26.2382
 30
0.0000
 11
49.6380
 21
26.2382
 31
0.0000
  0
LINE
  8
21
 10
49.6380
 20
26.0433
 30
0.0000
 11
49.6380
 21
26.4331
 31
0.0000
  0
LINE
  8
21
 10
49.6380
 20
27.4076
 30
0.0000
 11
49.6380
 21
27.0178
 31
0.0000
  0
LINE
  8
21
 10
49.6380
 20
27.0178
 30
0.0000
 11
49.4431
 21
26.8229
 31
0.0000
  0
LINE
  8
21
 10
49.4431
 20
26.8229
 30
0.0000
 11
49.0533
 21
26.8229
 31
0.0000
  0
LINE
  8
21
 10
49.0533
 20
26.8229
 30
0.0000
 11
48.8584
 21
27.0178
 31
0.0000
  0
LINE
  8
21
 10
48.8584
 20
27.0178
 30
0.0000
 11
48.8584
 21
27.4076
 31
0.0000
  0
LINE
  8
21
 10
48.8584
 20
27.4076
 30
0.0000
 11
49.0533
 21
27.6025
 31
0.0000
  0
LINE
  8
21
 10
49.0533
 20
27.6025
 30
0.0000
 11
49.2482
 21
27.6025
 31
0.0000
  0
LINE
  8
21
 10
49.2482
 20
27.6025
 30
0.0000
 11
49.2482
 21
26.8229
 31
0.0000
  0
LINE
  8
48
 10
2.8349
 20
52.8670
 30
0.0000
 11
2.5637
 21
53.1382
 31
0.0000
  0
LINE
  8
48
 10
2.5637
 20
53.1382
 30
0.0000
 11
2.0214
 21
53.1382
 31
0.0000
  0
LINE
  8
48
 10
2.0214
 20
53.1382
 30
0.0000
 11
1.7502
 21
52.8670
 31
0.0000
  0
LINE
  8
48
 10
1.7502
 20
52.8670
 30
0.0000
 11
1.7502
 21
52.5959
 31
0.0000
  0
LINE
  8
48
 10
1.7502
 20
52.5959
 30
0.0000
 11
2.0214
 21
52.3247
 31
0.0000
  0
LINE
  8
48
 10
2.0214
 20
52.3247
 30
0.0000
 11
2.5637
 21
52.3247
 31
0.0000
  0
LINE
  8
48
 10
2.5637
 20
52.3247
 30
0.0000
 11
2.8349
 21
52.0535
 31
0.0000
  0
LINE
  8
48
 10
2.8349
 20
52.0535
 30
0.0000
 11
2.8349
 21
51.7824
 31
0.0000
  0
LINE
  8
48
 10
2.8349
 20
51.7824
 30
0.0000
 11
2.5637
 21
51.5112
 31
0.0000
  0
LINE
  8
48
 10
2.5637
 20
51.5112
 30
0.0000
 11
2.0214
 21
51.5112
 31
0.0000
  0
LINE
  8
48
 10
2.0214
 20
51.5112
 30
0.0000
 11
1.7502
 21
51.7824
 31
0.0000
  0
LINE
  8
48
 10
3.3874
 20
52.5959
 30
0.0000
 11
3.9297
 21
51.5112
 31
0.0000
  0
LINE
  8
48
 10
3.9297
 20
51.5112
 30
0.0000
 11
4.4720
 21
52.5959
 31
0.0000
  0
LINE
  8
48
 10
5.8380
 20
51.5112
 30
0.0000
 11
5.2957
 21
51.5112
 31
0.0000
  0
LINE
  8
48
 10
5.2957
 20
51.5112
 30
0.0000
 11
5.0245
 21
51.7824
 31
0.0000
  0
LINE
  8
48
 10
5.0245
 20
51.7824
 30
0.0000
 11
5.0245
 21
52.3247
 31
0.0000
  0
LINE
  8
48
 10
5.0245
 20
52.3247
 30
0.0000
 11
5.2957
 21
52.5959
 31
0.0000
  0
LINE
  8
48
 10
5.2957
 20
52.5959
 30
0.0000
 11
5.8380
 21
52.5959
 31
0.0000
  0
LINE
  8
48
 10
5.8380
 20
52.5959
 30
0.0000
 11
6.1092
 21
52.3247
 31
0.0000
  0
LINE
  8
48
 10
6.1092
 20
52.3247
 30
0.0000
 11
6.1092
 21
52.0535
 31
0.0000
  0
LINE
  8
48
 10
6.1092
 20
52.0535
 30
0.0000
 11
5.0245
 21
52.0535
 31
0.0000
  0
LINE
  8
48
 10
6.6617
 20
51.5112
 30
0.0000
 11
6.6617
 21
52.5959
 31
0.0000
  0
LINE
  8
48
 10
6.6617
 20
52.5959
 30
0.0000
 11
7.4752
 21
52.5959
 31
0.0000
  0
LINE
  8
48
 10
7.4752
 20
52.5959
 30
0.0000
 11
7.7463
 21
52.3247
 31
0.0000
  0
LINE
  8
48
 10
7.7463
 20
52.3247
 30
0.0000
 11
7.7463
 21
51.5112
 31
0.0000
  0
LINE
  8
48
 10
9.9360
 20
51.5112
 30
0.0000
 11
9.9360
 21
53.1382
 31
0.0000
  0
LINE
  8
48
 10
9.9360
 20
53.1382
 30
0.0000
 11
10.7495
 21
53.1382
 31
0.0000
  0
LINE
  8
48
 10
10.7495
 20
53.1382
 30
0.0000
 11
11.0206
 21
52.8670
 31
0.0000
  0
LINE
  8
48
 10
11.0206
 20
52.8670
 30
0.0000
 11
11.0206
 21
52.3247
 31
0.0000
  0
LINE
  8
48
 10
11.0206
 20
52.3247
 30
0.0000
 11
10.7495
 21
52.0535
 31
0.0000
  0
LINE
  8
48
 10
10.7495
 20
52.0535
 30
0.0000
 11
9.9360
 21
52.0535
 31
0.0000
  0
LINE
  8
48
 10
12.3866
 20
51.5112
 30
0.0000
 11
11.8443
 21
51.5112
 31
0.0000
  0
LINE
  8
48
 10
11.8443
 20
51.5112
 30
0.0000
 11
11.5731
 21
51.7824
 31
0.0000
  0
LINE
  8
48
 10
11.5731
 20
51.7824
 30
0.0000
 11
11.5731
 21
52.3247
 31
0.0000
  0
LINE
  8
48
 10
11.5731
 20
52.3247
 30
0.0000
 11
11.8443
 21
52.5959
 31
0.0000
  0
LINE
  8
48
 10
11.8443
 20
52.5959
 30
0.0000
 11
12.3866
 21
52.5959
 31
0.0000
  0
LINE
  8
48
 10
12.3866
 20
52.5959
 30
0.0000
 11
12.6578
 21
52.3247
 31
0.0000
  0
LINE
  8
48
 10
12.6578
 20
52.3247
 30
0.0000
 11
12.6578
 21
52.0535
 31
0.0000
  0
LINE
  8
48
 10
12.6578
 20
52.0535
 30
0.0000
 11
11.5731
 21
52.0535
 31
0.0000
  0
LINE
  8
48
 10
13.4815
 20
52.8670
 30
0.0000
 11
13.4815
 21
51.7824
 31
0.0000
  0
LINE
  8
48
 10
13.4815
 20
51.7824
 30
0.0000
 11
13.7526
 21
51.5112
 31
0.0000
  0
LINE
  8
48
 10
13.2103
 20
52.5959
 30
0.0000
 11
13.7526
 21
52.5959
 31
0.0000
  0
LINE
  8
48
 10
15.1152
 20
51.5112
 30
0.0000
 11
14.5729
 21
51.5112
 31
0.0000
  0
LINE
  8
48
 10
14.5729
 20
51.5112
 30
0.0000
 11
14.3017
 21
51.7824
 31
0.0000
  0
LINE
  8
48
 10
14.3017
 20
51.7824
 30
0.0000
 11
14.3017
 21
52.3247
 31
0.0000
  0
LINE
  8
48
 10
14.3017
 20
52.3247
 30
0.0000
 11
14.5729
 21
52.5959
 31
0.0000
  0
LINE
  8
48
 10
14.5729
 20
52.5959
 30
0.0000
 11
15.1152
 21
52.5959
 31
0.0000
  0
LINE
  8
48
 10
15.1152
 20
52.5959
 30
0.0000
 11
15.3864
 21
52.3247
 31
0.0000
  0
LINE
  8
48
 10
15.3864
 20
52.3247
 30
0.0000
 11
15.3864
 21
52.0535
 31
0.0000
  0
LINE
  8
48
 10
15.3864
 20
52.0535
 30
0.0000
 11
14.3017
 21
52.0535
 31
0.0000
  0
LINE
  8
48
 10
15.9389
 20
51.5112
 30
0.0000
 11
15.9389
 21
52.5959
 31
0.0000
  0
LINE
  8
48
 10
15.9389
 20
52.0535
 30
0.0000
 11
16.4812
 21
52.5959
 31
0.0000
  0
LINE
  8
48
 10
16.4812
 20
52.5959
 30
0.0000
 11
16.7524
 21
52.5959
 31
0.0000
  0
LINE
  8
48
 10
17.3032
 20
51.5112
 30
0.0000
 11
18.1167
 21
51.5112
 31
0.0000
  0
LINE
  8
48
 10
18.1167
 20
51.5112
 30
0.0000
 11
18.3879
 21
51.7824
 31
0.0000
  0
LINE
  8
48
 10
18.3879
 20
51.7824
 30
0.0000
 11
18.1167
 21
52.0535
 31
0.0000
  0
LINE
  8
48
 10
18.1167
 20
52.0535
 30
0.0000
 11
17.5744
 21
52.0535
 31
0.0000
  0
LINE
  8
48
 10
17.5744
 20
52.0535
 30
0.0000
 11
17.3032
 21
52.3247
 31
0.0000
  0
LINE
  8
48
 10
17.3032
 20
52.3247
 30
0.0000
 11
17.5744
 21
52.5959
 31
0.0000
  0
LINE
  8
48
 10
17.5744
 20
52.5959
 30
0.0000
 11
18.3879
 21
52.5959
 31
0.0000
  0
LINE
  8
48
 10
19.7538
 20
51.5112
 30
0.0000
 11
19.2115
 21
51.5112
 31
0.0000
  0
LINE
  8
48
 10
19.2115
 20
51.5112
 30
0.0000
 11
18.9403
 21
51.7824
 31
0.0000
  0
LINE
  8
48
 10
18.9403
 20
51.7824
 30
0.0000
 11
18.9403
 21
52.3247
 31
0.0000
  0
LINE
  8
48
 10
18.9403
 20
52.3247
 30
0.0000
 11
19.2115
 21
52.5959
 31
0.0000
  0
LINE
  8
48
 10
19.2115
 20
52.5959
 30
0.0000
 11
19.7538
 21
52.5959
 31
0.0000
  0
LINE
  8
48
 10
19.7538
 20
52.5959
 30
0.0000
 11
20.0250
 21
52.3247
 31
0.0000
  0
LINE
  8
48
 10
20.0250
 20
52.3247
 30
0.0000
 11
20.0250
 21
52.0535
 31
0.0000
  0
LINE
  8
48
 10
20.0250
 20
52.0535
 30
0.0000
 11
18.9403
 21
52.0535
 31
0.0000
  0
LINE
  8
48
 10
20.5775
 20
51.5112
 30
0.0000
 11
20.5775
 21
52.5959
 31
0.0000
  0
LINE
  8
48
 10
20.5775
 20
52.5959
 30
0.0000
 11
21.3910
 21
52.5959
 31
0.0000
  0
LINE
  8
48
 10
21.3910
 20
52.5959
 30
0.0000
 11
21.6622
 21
52.3247
 31
0.0000
  0
LINE
  8
48
 10
21.6622
 20
52.3247
 30
0.0000
 11
21.6622
 21
51.5112
 31
0.0000
  0
LINE
  8
48
 10
9.7928
 20
48.3362
 30
0.0000
 11
8.7081
 21
48.3362
 31
0.0000
  0
LINE
  8
48
 10
8.7081
 20
48.3362
 30
0.0000
 11
9.7928
 21
49.4209
 31
0.0000
  0
LINE
  8
48
 10
9.7928
 20
49.4209
 30
0.0000
 11
9.7928
 21
49.6920
 31
0.0000
  0
LINE
  8
48
 10
9.7928
 20
49.6920
 30
0.0000
 11
9.5216
 21
49.9632
 31
0.0000
  0
LINE
  8
48
 10
9.5216
 20
49.9632
 30
0.0000
 11
8.9793
 21
49.9632
 31
0.0000
  0
LINE
  8
48
 10
8.9793
 20
49.9632
 30
0.0000
 11
8.7081
 21
49.6920
 31
0.0000
  0
LINE
  8
48
 10
10.3453
 20
48.6074
 30
0.0000
 11
10.3453
 21
49.6920
 31
0.0000
  0
LINE
  8
48
 10
10.3453
 20
49.6920
 30
0.0000
 11
10.6165
 21
49.9632
 31
0.0000
  0
LINE
  8
48
 10
10.6165
 20
49.9632
 30
0.0000
 11
11.1588
 21
49.9632
 31
0.0000
  0
LINE
  8
48
 10
11.1588
 20
49.9632
 30
0.0000
 11
11.4299
 21
49.6920
 31
0.0000
  0
LINE
  8
48
 10
11.4299
 20
49.6920
 30
0.0000
 11
11.4299
 21
48.6074
 31
0.0000
  0
LINE
  8
48
 10
11.4299
 20
48.6074
 30
0.0000
 11
11.1588
 21
48.3362
 31
0.0000
  0
LINE
  8
48
 10
11.1588
 20
48.3362
 30
0.0000
 11
10.6165
 21
48.3362
 31
0.0000
  0
LINE
  8
48
 10
10.6165
 20
48.3362
 30
0.0000
 11
10.3453
 21
48.6074
 31
0.0000
  0
LINE
  8
48
 10
10.3453
 20
48.6074
 30
0.0000
 11
11.4299
 21
49.6920
 31
0.0000
  0
LINE
  8
48
 10
13.0671
 20
48.3362
 30
0.0000
 11
11.9824
 21
48.3362
 31
0.0000
  0
LINE
  8
48
 10
11.9824
 20
48.3362
 30
0.0000
 11
13.0671
 21
49.4209
 31
0.0000
  0
LINE
  8
48
 10
13.0671
 20
49.4209
 30
0.0000
 11
13.0671
 21
49.6920
 31
0.0000
  0
LINE
  8
48
 10
13.0671
 20
49.6920
 30
0.0000
 11
12.7959
 21
49.9632
 31
0.0000
  0
LINE
  8
48
 10
12.7959
 20
49.9632
 30
0.0000
 11
12.2536
 21
49.9632
 31
0.0000
  0
LINE
  8
48
 10
12.2536
 20
49.9632
 30
0.0000
 11
11.9824
 21
49.6920
 31
0.0000
  0
LINE
  8
48
 10
13.6196
 20
49.4209
 30
0.0000
 11
14.1619
 21
49.9632
 31
0.0000
  0
LINE
  8
48
 10
14.1619
 20
49.9632
 30
0.0000
 11
14.1619
 21
48.3362
 31
0.0000
  0
LINE
  8
48
 10
13.6196
 20
48.3362
 30
0.0000
 11
14.7043
 21
48.3362
 31
0.0000
  0
LINE
  8
48
 10
36.4300
 20
52.7546
 30
0.0000
 11
36.9723
 21
53.2969
 31
0.0000
  0
LINE
  8
48
 10
36.9723
 20
53.2969
 30
0.0000
 11
36.9723
 21
51.6700
 31
0.0000
  0
LINE
  8
48
 10
36.4300
 20
51.6700
 30
0.0000
 11
37.5146
 21
51.6700
 31
0.0000
  0
LINE
  8
48
 10
38.0671
 20
53.0258
 30
0.0000
 11
38.3383
 21
53.2969
 31
0.0000
  0
LINE
  8
48
 10
38.3383
 20
53.2969
 30
0.0000
 11
38.8806
 21
53.2969
 31
0.0000
  0
LINE
  8
48
 10
38.8806
 20
53.2969
 30
0.0000
 11
39.1518
 21
53.0258
 31
0.0000
  0
LINE
  8
48
 10
39.1518
 20
53.0258
 30
0.0000
 11
39.1518
 21
52.7546
 31
0.0000
  0
LINE
  8
48
 10
39.1518
 20
52.7546
 30
0.0000
 11
38.8806
 21
52.4834
 31
0.0000
  0
LINE
  8
48
 10
38.8806
 20
52.4834
 30
0.0000
 11
39.1518
 21
52.2123
 31
0.0000
  0
LINE
  8
48
 10
39.1518
 20
52.2123
 30
0.0000
 11
39.1518
 21
51.9411
 31
0.0000
  0
LINE
  8
48
 10
39.1518
 20
51.9411
 30
0.0000
 11
38.8806
 21
51.6700
 31
0.0000
  0
LINE
  8
48
 10
38.8806
 20
51.6700
 30
0.0000
 11
38.3383
 21
51.6700
 31
0.0000
  0
LINE
  8
48
 10
38.3383
 20
51.6700
 30
0.0000
 11
38.0671
 21
51.9411
 31
0.0000
  0
LINE
  8
48
 10
38.0671
 20
51.9411
 30
0.0000
 11
38.0671
 21
52.2123
 31
0.0000
  0
LINE
  8
48
 10
38.0671
 20
52.2123
 30
0.0000
 11
38.3383
 21
52.4834
 31
0.0000
  0
LINE
  8
48
 10
38.3383
 20
52.4834
 30
0.0000
 11
38.0671
 21
52.7546
 31
0.0000
  0
LINE
  8
48
 10
38.0671
 20
52.7546
 30
0.0000
 11
38.0671
 21
53.0258
 31
0.0000
  0
LINE
  8
48
 10
38.3383
 20
52.4834
 30
0.0000
 11
38.8806
 21
52.4834
 31
0.0000
  0
LINE
  8
48
 10
39.7043
 20
53.0258
 30
0.0000
 11
39.9754
 21
53.2969
 31
0.0000
  0
LINE
  8
48
 10
39.9754
 20
53.2969
 30
0.0000
 11
40.5178
 21
53.2969
 31
0.0000
  0
LINE
  8
48
 10
40.5178
 20
53.2969
 30
0.0000
 11
40.7889
 21
53.0258
 31
0.0000
  0
LINE
  8
48
 10
40.7889
 20
53.0258
 30
0.0000
 11
40.7889
 21
52.7546
 31
0.0000
  0
LINE
  8
48
 10
40.7889
 20
52.7546
 30
0.0000
 11
40.5178
 21
52.4834
 31
0.0000
  0
LINE
  8
48
 10
40.5178
 20
52.4834
 30
0.0000
 11
40.2466
 21
52.4834
 31
0.0000
  0
LINE
  8
48
 10
40.5178
 20
52.4834
 30
0.0000
 11
40.7889
 21
52.2123
 31
0.0000
  0
LINE
  8
48
 10
40.7889
 20
52.2123
 30
0.0000
 11
40.7889
 21
51.9411
 31
0.0000
  0
LINE
  8
48
 10
40.7889
 20
51.9411
 30
0.0000
 11
40.5178
 21
51.6700
 31
0.0000
  0
LINE
  8
48
 10
40.5178
 20
51.6700
 30
0.0000
 11
39.9754
 21
51.6700
 31
0.0000
  0
LINE
  8
48
 10
39.9754
 20
51.6700
 30
0.0000
 11
39.7043
 21
51.9411
 31
0.0000
  0
LINE
  8
48
 10
41.3414
 20
52.4834
 30
0.0000
 11
42.4261
 21
52.4834
 31
0.0000
  0
LINE
  8
48
 10
44.0632
 20
51.6700
 30
0.0000
 11
42.9786
 21
51.6700
 31
0.0000
  0
LINE
  8
48
 10
42.9786
 20
51.6700
 30
0.0000
 11
44.0632
 21
52.7546
 31
0.0000
  0
LINE
  8
48
 10
44.0632
 20
52.7546
 30
0.0000
 11
44.0632
 21
53.0258
 31
0.0000
  0
LINE
  8
48
 10
44.0632
 20
53.0258
 30
0.0000
 11
43.7921
 21
53.2969
 31
0.0000
  0
LINE
  8
48
 10
43.7921
 20
53.2969
 30
0.0000
 11
43.2497
 21
53.2969
 31
0.0000
  0
LINE
  8
48
 10
43.2497
 20
53.2969
 30
0.0000
 11
42.9786
 21
53.0258
 31
0.0000
  0
LINE
  8
48
 10
44.6157
 20
52.4834
 30
0.0000
 11
45.7004
 21
52.4834
 31
0.0000
  0
LINE
  8
48
 10
46.2529
 20
51.9411
 30
0.0000
 11
46.2529
 21
53.0258
 31
0.0000
  0
LINE
  8
48
 10
46.2529
 20
53.0258
 30
0.0000
 11
46.5241
 21
53.2969
 31
0.0000
  0
LINE
  8
48
 10
46.5241
 20
53.2969
 30
0.0000
 11
47.0664
 21
53.2969
 31
0.0000
  0
LINE
  8
48
 10
47.0664
 20
53.2969
 30
0.0000
 11
47.3375
 21
53.0258
 31
0.0000
  0
LINE
  8
48
 10
47.3375
 20
53.0258
 30
0.0000
 11
47.3375
 21
51.9411
 31
0.0000
  0
LINE
  8
48
 10
47.3375
 20
51.9411
 30
0.0000
 11
47.0664
 21
51.6700
 31
0.0000
  0
LINE
  8
48
 10
47.0664
 20
51.6700
 30
0.0000
 11
46.5241
 21
51.6700
 31
0.0000
  0
LINE
  8
48
 10
46.5241
 20
51.6700
 30
0.0000
 11
46.2529
 21
51.9411
 31
0.0000
  0
LINE
  8
48
 10
46.2529
 20
51.9411
 30
0.0000
 11
47.3375
 21
53.0258
 31
0.0000
  0
LINE
  8
48
 10
47.8900
 20
52.7546
 30
0.0000
 11
48.4324
 21
53.2969
 31
0.0000
  0
LINE
  8
48
 10
48.4324
 20
53.2969
 30
0.0000
 11
48.4324
 21
51.6700
 31
0.0000
  0
LINE
  8
48
 10
47.8900
 20
51.6700
 30
0.0000
 11
48.9747
 21
51.6700
 31
0.0000
  0
LINE
  8
48
 10
49.5272
 20
52.4834
 30
0.0000
 11
50.6119
 21
52.4834
 31
0.0000
  0
LINE
  8
48
 10
51.1644
 20
51.9411
 30
0.0000
 11
51.1644
 21
53.0258
 31
0.0000
  0
LINE
  8
48
 10
51.1644
 20
53.0258
 30
0.0000
 11
51.4355
 21
53.2969
 31
0.0000
  0
LINE
  8
48
 10
51.4355
 20
53.2969
 30
0.0000
 11
51.9779
 21
53.2969
 31
0.0000
  0
LINE
  8
48
 10
51.9779
 20
53.2969
 30
0.0000
 11
52.2490
 21
53.0258
 31
0.0000
  0
LINE
  8
48
 10
52.2490
 20
53.0258
 30
0.0000
 11
52.2490
 21
51.9411
 31
0.0000
  0
LINE
  8
48
 10
52.2490
 20
51.9411
 30
0.0000
 11
51.9779
 21
51.6700
 31
0.0000
  0
LINE
  8
48
 10
51.9779
 20
51.6700
 30
0.0000
 11
51.4355
 21
51.6700
 31
0.0000
  0
LINE
  8
48
 10
51.4355
 20
51.6700
 30
0.0000
 11
51.1644
 21
51.9411
 31
0.0000
  0
LINE
  8
48
 10
51.1644
 20
51.9411
 30
0.0000
 11
52.2490
 21
53.0258
 31
0.0000
  0
LINE
  8
48
 10
52.8015
 20
51.9411
 30
0.0000
 11
52.8015
 21
53.0258
 31
0.0000
  0
LINE
  8
48
 10
52.8015
 20
53.0258
 30
0.0000
 11
53.0727
 21
53.2969
 31
0.0000
  0
LINE
  8
48
 10
53.0727
 20
53.2969
 30
0.0000
 11
53.6150
 21
53.2969
 31
0.0000
  0
LINE
  8
48
 10
53.6150
 20
53.2969
 30
0.0000
 11
53.8862
 21
53.0258
 31
0.0000
  0
LINE
  8
48
 10
53.8862
 20
53.0258
 30
0.0000
 11
53.8862
 21
51.9411
 31
0.0000
  0
LINE
  8
48
 10
53.8862
 20
51.9411
 30
0.0000
 11
53.6150
 21
51.6700
 31
0.0000
  0
LINE
  8
48
 10
53.6150
 20
51.6700
 30
0.0000
 11
53.0727
 21
51.6700
 31
0.0000
  0
LINE
  8
48
 10
53.0727
 20
51.6700
 30
0.0000
 11
52.8015
 21
51.9411
 31
0.0000
  0
LINE
  8
48
 10
52.8015
 20
51.9411
 30
0.0000
 11
53.8862
 21
53.0258
 31
0.0000
  0
LINE
  8
48
 10
28.9687
 20
49.6920
 30
0.0000
 11
29.2399
 21
49.9632
 31
0.0000
  0
LINE
  8
48
 10
29.2399
 20
49.9632
 30
0.0000
 11
29.7822
 21
49.9632
 31
0.0000
  0
LINE
  8
48
 10
29.7822
 20
49.9632
 30
0.0000
 11
30.0534
 21
49.6920
 31
0.0000
  0
LINE
  8
48
 10
30.0534
 20
49.6920
 30
0.0000
 11
30.0534
 21
49.4209
 31
0.0000
  0
LINE
  8
48
 10
30.0534
 20
49.4209
 30
0.0000
 11
29.7822
 21
49.1497
 31
0.0000
  0
LINE
  8
48
 10
29.7822
 20
49.1497
 30
0.0000
 11
29.5110
 21
49.1497
 31
0.0000
  0
LINE
  8
48
 10
29.7822
 20
49.1497
 30
0.0000
 11
30.0534
 21
48.8785
 31
0.0000
  0
LINE
  8
48
 10
30.0534
 20
48.8785
 30
0.0000
 11
30.0534
 21
48.6074
 31
0.0000
  0
LINE
  8
48
 10
30.0534
 20
48.6074
 30
0.0000
 11
29.7822
 21
48.3362
 31
0.0000
  0
LINE
  8
48
 10
29.7822
 20
48.3362
 30
0.0000
 11
29.2399
 21
48.3362
 31
0.0000
  0
LINE
  8
48
 10
29.2399
 20
48.3362
 30
0.0000
 11
28.9687
 21
48.6074
 31
0.0000
  0
LINE
  8
48
 10
31.6905
 20
49.9632
 30
0.0000
 11
30.6059
 21
49.9632
 31
0.0000
  0
LINE
  8
48
 10
30.6059
 20
49.9632
 30
0.0000
 11
30.6059
 21
49.1497
 31
0.0000
  0
LINE
  8
48
 10
30.6059
 20
49.1497
 30
0.0000
 11
31.1482
 21
49.4209
 31
0.0000
  0
LINE
  8
48
 10
31.1482
 20
49.4209
 30
0.0000
 11
31.4194
 21
49.4209
 31
0.0000
  0
LINE
  8
48
 10
31.4194
 20
49.4209
 30
0.0000
 11
31.6905
 21
49.1497
 31
0.0000
  0
LINE
  8
48
 10
31.6905
 20
49.1497
 30
0.0000
 11
31.6905
 21
48.6074
 31
0.0000
  0
LINE
  8
48
 10
31.6905
 20
48.6074
 30
0.0000
 11
31.4194
 21
48.3362
 31
0.0000
  0
LINE
  8
48
 10
31.4194
 20
48.3362
 30
0.0000
 11
30.8770
 21
48.3362
 31
0.0000
  0
LINE
  8
48
 10
30.8770
 20
48.3362
 30
0.0000
 11
30.6059
 21
48.6074
 31
0.0000
  0
LINE
  8
48
 10
32.5142
 20
49.1497
 30
0.0000
 11
32.5142
 21
48.6074
 31
0.0000
  0
LINE
  8
48
 10
32.5142
 20
48.6074
 30
0.0000
 11
32.7853
 21
48.3362
 31
0.0000
  0
LINE
  8
48
 10
32.7853
 20
48.3362
 30
0.0000
 11
33.0565
 21
48.3362
 31
0.0000
  0
LINE
  8
48
 10
33.0565
 20
48.3362
 30
0.0000
 11
33.3277
 21
48.6074
 31
0.0000
  0
LINE
  8
48
 10
33.3277
 20
48.6074
 30
0.0000
 11
33.3277
 21
49.1497
 31
0.0000
  0
LINE
  8
48
 10
32.5142
 20
48.6074
 30
0.0000
 11
32.5142
 21
48.0650
 31
0.0000
  0
LINE
  8
48
 10
32.5142
 20
48.0650
 30
0.0000
 11
32.2430
 21
47.7939
 31
0.0000
  0
LINE
  8
48
 10
33.8802
 20
48.3362
 30
0.0000
 11
33.8802
 21
49.4209
 31
0.0000
  0
LINE
  8
48
 10
33.8802
 20
49.4209
 30
0.0000
 11
34.1513
 21
49.4209
 31
0.0000
  0
LINE
  8
48
 10
34.1513
 20
49.4209
 30
0.0000
 11
34.4225
 21
49.1497
 31
0.0000
  0
LINE
  8
48
 10
34.4225
 20
49.1497
 30
0.0000
 11
34.4225
 21
48.3362
 31
0.0000
  0
LINE
  8
48
 10
34.4225
 20
49.1497
 30
0.0000
 11
34.6937
 21
49.4209
 31
0.0000
  0
LINE
  8
48
 10
34.6937
 20
49.4209
 30
0.0000
 11
34.9648
 21
49.1497
 31
0.0000
  0
LINE
  8
48
 10
34.9648
 20
49.1497
 30
0.0000
 11
34.9648
 21
48.3362
 31
0.0000
  0
LINE
  8
48
 10
53.8659
 20
48.3362
 30
0.0000
 11
52.7812
 21
48.3362
 31
0.0000
  0
LINE
  8
48
 10
52.7812
 20
48.3362
 30
0.0000
 11
53.8659
 21
49.4209
 31
0.0000
  0
LINE
  8
48
 10
53.8659
 20
49.4209
 30
0.0000
 11
53.8659
 21
49.6920
 31
0.0000
  0
LINE
  8
48
 10
53.8659
 20
49.6920
 30
0.0000
 11
53.5947
 21
49.9632
 31
0.0000
  0
LINE
  8
48
 10
53.5947
 20
49.9632
 30
0.0000
 11
53.0524
 21
49.9632
 31
0.0000
  0
LINE
  8
48
 10
53.0524
 20
49.9632
 30
0.0000
 11
52.7812
 21
49.6920
 31
0.0000
  0
LINE
  8
48
 10
45.1612
 20
42.2574
 30
0.0000
 11
45.1612
 21
43.3420
 31
0.0000
  0
LINE
  8
48
 10
45.1612
 20
43.3420
 30
0.0000
 11
45.4324
 21
43.6132
 31
0.0000
  0
LINE
  8
48
 10
45.4324
 20
43.6132
 30
0.0000
 11
45.9747
 21
43.6132
 31
0.0000
  0
LINE
  8
48
 10
45.9747
 20
43.6132
 30
0.0000
 11
46.2459
 21
43.3420
 31
0.0000
  0
LINE
  8
48
 10
46.2459
 20
43.3420
 30
0.0000
 11
46.2459
 21
42.2574
 31
0.0000
  0
LINE
  8
48
 10
46.2459
 20
42.2574
 30
0.0000
 11
45.9747
 21
41.9862
 31
0.0000
  0
LINE
  8
48
 10
45.9747
 20
41.9862
 30
0.0000
 11
45.4324
 21
41.9862
 31
0.0000
  0
LINE
  8
48
 10
45.4324
 20
41.9862
 30
0.0000
 11
45.1612
 21
42.2574
 31
0.0000
  0
LINE
  8
48
 10
45.1612
 20
42.2574
 30
0.0000
 11
46.2459
 21
43.3420
 31
0.0000
  0
LINE
  8
21
 10
15.3725
 20
1.1414
 30
0.0000
 11
15.5293
 21
0.8279
 31
0.0000
  0
LINE
  8
21
 10
15.5293
 20
0.8279
 30
0.0000
 11
15.8429
 21
0.5143
 31
0.0000
  0
LINE
  8
21
 10
15.8429
 20
0.5143
 30
0.0000
 11
16.1564
 21
0.5143
 31
0.0000
  0
LINE
  8
21
 10
16.1564
 20
0.5143
 30
0.0000
 11
16.3132
 21
0.6711
 31
0.0000
  0
LINE
  8
21
 10
16.3132
 20
0.6711
 30
0.0000
 11
16.3132
 21
0.9847
 31
0.0000
  0
LINE
  8
21
 10
16.3132
 20
0.9847
 30
0.0000
 11
16.1564
 21
1.1414
 31
0.0000
  0
LINE
  8
21
 10
16.1564
 20
1.1414
 30
0.0000
 11
15.9996
 21
1.1414
 31
0.0000
  0
LINE
  8
21
 10
15.9996
 20
1.1414
 30
0.0000
 11
15.8429
 21
0.9847
 31
0.0000
  0
LINE
  8
21
 10
15.8429
 20
0.9847
 30
0.0000
 11
15.8429
 21
0.5143
 31
0.0000
  0
LINE
  8
21
 10
16.3132
 20
1.4499
 30
0.0000
 11
15.3725
 21
1.4499
 31
0.0000
  0
LINE
  8
21
 10
16.3132
 20
1.9202
 30
0.0000
 11
15.9996
 21
1.4499
 31
0.0000
  0
LINE
  8
21
 10
15.9996
 20
1.4499
 30
0.0000
 11
15.6861
 21
1.9202
 31
0.0000
  0
LINE
  8
21
 10
15.5293
 20
2.2295
 30
0.0000
 11
15.3725
 21
2.3862
 31
0.0000
  0
LINE
  8
21
 10
15.3725
 20
2.3862
 30
0.0000
 11
15.3725
 21
2.6998
 31
0.0000
  0
LINE
  8
21
 10
15.3725
 20
2.6998
 30
0.0000
 11
15.5293
 21
2.8565
 31
0.0000
  0
LINE
  8
21
 10
15.5293
 20
2.8565
 30
0.0000
 11
15.6861
 21
2.8565
 31
0.0000
  0
LINE
  8
21
 10
15.6861
 20
2.8565
 30
0.0000
 11
15.8429
 21
2.6998
 31
0.0000
  0
LINE
  8
21
 10
15.8429
 20
2.6998
 30
0.0000
 11
15.9996
 21
2.8565
 31
0.0000
  0
LINE
  8
21
 10
15.9996
 20
2.8565
 30
0.0000
 11
16.1564
 21
2.8565
 31
0.0000
  0
LINE
  8
21
 10
16.1564
 20
2.8565
 30
0.0000
 11
16.3132
 21
2.6998
 31
0.0000
  0
LINE
  8
21
 10
16.3132
 20
2.6998
 30
0.0000
 11
16.3132
 21
2.3862
 31
0.0000
  0
LINE
  8
21
 10
16.3132
 20
2.3862
 30
0.0000
 11
16.1564
 21
2.2295
 31
0.0000
  0
LINE
  8
21
 10
16.1564
 20
2.2295
 30
0.0000
 11
15.9996
 21
2.2295
 31
0.0000
  0
LINE
  8
21
 10
15.9996
 20
2.2295
 30
0.0000
 11
15.8429
 21
2.3862
 31
0.0000
  0
LINE
  8
21
 10
15.8429
 20
2.3862
 30
0.0000
 11
15.6861
 21
2.2295
 31
0.0000
  0
LINE
  8
21
 10
15.6861
 20
2.2295
 30
0.0000
 11
15.5293
 21
2.2295
 31
0.0000
  0
LINE
  8
21
 10
15.8429
 20
2.3862
 30
0.0000
 11
15.8429
 21
2.6998
 31
0.0000
  0
LINE
  8
21
 10
21.7186
 20
0.3556
 30
0.0000
 11
21.4050
 21
0.6691
 31
0.0000
  0
LINE
  8
21
 10
21.4050
 20
0.6691
 30
0.0000
 11
22.3457
 21
0.6691
 31
0.0000
  0
LINE
  8
21
 10
22.3457
 20
0.3556
 30
0.0000
 11
22.3457
 21
0.9827
 31
0.0000
  0
LINE
  8
21
 10
22.3457
 20
1.2911
 30
0.0000
 11
21.4050
 21
1.2911
 31
0.0000
  0
LINE
  8
21
 10
22.3457
 20
1.7614
 30
0.0000
 11
22.0321
 21
1.2911
 31
0.0000
  0
LINE
  8
21
 10
22.0321
 20
1.2911
 30
0.0000
 11
21.7186
 21
1.7614
 31
0.0000
  0
LINE
  8
21
 10
22.3457
 20
2.6978
 30
0.0000
 11
22.3457
 21
2.0707
 31
0.0000
  0
LINE
  8
21
 10
22.3457
 20
2.0707
 30
0.0000
 11
21.7186
 21
2.6978
 31
0.0000
  0
LINE
  8
21
 10
21.7186
 20
2.6978
 30
0.0000
 11
21.5618
 21
2.6978
 31
0.0000
  0
LINE
  8
21
 10
21.5618
 20
2.6978
 30
0.0000
 11
21.4050
 21
2.5410
 31
0.0000
  0
LINE
  8
21
 10
21.4050
 20
2.5410
 30
0.0000
 11
21.4050
 21
2.2275
 31
0.0000
  0
LINE
  8
21
 10
21.4050
 20
2.2275
 30
0.0000
 11
21.5618
 21
2.0707
 31
0.0000
  0
LINE
  8
21
 10
27.1161
 20
0.3556
 30
0.0000
 11
26.8025
 21
0.6691
 31
0.0000
  0
LINE
  8
21
 10
26.8025
 20
0.6691
 30
0.0000
 11
27.7431
 21
0.6691
 31
0.0000
  0
LINE
  8
21
 10
27.7431
 20
0.3556
 30
0.0000
 11
27.7431
 21
0.9827
 31
0.0000
  0
LINE
  8
21
 10
27.7431
 20
1.2911
 30
0.0000
 11
26.8025
 21
1.2911
 31
0.0000
  0
LINE
  8
21
 10
27.7431
 20
1.7614
 30
0.0000
 11
27.4296
 21
1.2911
 31
0.0000
  0
LINE
  8
21
 10
27.4296
 20
1.2911
 30
0.0000
 11
27.1161
 21
1.7614
 31
0.0000
  0
LINE
  8
21
 10
27.7431
 20
2.6978
 30
0.0000
 11
27.7431
 21
2.0707
 31
0.0000
  0
LINE
  8
21
 10
27.7431
 20
2.0707
 30
0.0000
 11
27.1161
 21
2.6978
 31
0.0000
  0
LINE
  8
21
 10
27.1161
 20
2.6978
 30
0.0000
 11
26.9593
 21
2.6978
 31
0.0000
  0
LINE
  8
21
 10
26.9593
 20
2.6978
 30
0.0000
 11
26.8025
 21
2.5410
 31
0.0000
  0
LINE
  8
21
 10
26.8025
 20
2.5410
 30
0.0000
 11
26.8025
 21
2.2275
 31
0.0000
  0
LINE
  8
21
 10
26.8025
 20
2.2275
 30
0.0000
 11
26.9593
 21
2.0707
 31
0.0000
  0
LINE
  8
21
 10
31.8786
 20
0.3556
 30
0.0000
 11
31.5650
 21
0.6691
 31
0.0000
  0
LINE
  8
21
 10
31.5650
 20
0.6691
 30
0.0000
 11
32.5057
 21
0.6691
 31
0.0000
  0
LINE
  8
21
 10
32.5057
 20
0.3556
 30
0.0000
 11
32.5057
 21
0.9827
 31
0.0000
  0
LINE
  8
21
 10
32.5057
 20
1.2911
 30
0.0000
 11
31.5650
 21
1.2911
 31
0.0000
  0
LINE
  8
21
 10
32.5057
 20
1.7614
 30
0.0000
 11
32.1921
 21
1.2911
 31
0.0000
  0
LINE
  8
21
 10
32.1921
 20
1.2911
 30
0.0000
 11
31.8786
 21
1.7614
 31
0.0000
  0
LINE
  8
21
 10
32.5057
 20
2.6978
 30
0.0000
 11
32.5057
 21
2.0707
 31
0.0000
  0
LINE
  8
21
 10
32.5057
 20
2.0707
 30
0.0000
 11
31.8786
 21
2.6978
 31
0.0000
  0
LINE
  8
21
 10
31.8786
 20
2.6978
 30
0.0000
 11
31.7218
 21
2.6978
 31
0.0000
  0
LINE
  8
21
 10
31.7218
 20
2.6978
 30
0.0000
 11
31.5650
 21
2.5410
 31
0.0000
  0
LINE
  8
21
 10
31.5650
 20
2.5410
 30
0.0000
 11
31.5650
 21
2.2275
 31
0.0000
  0
LINE
  8
21
 10
31.5650
 20
2.2275
 30
0.0000
 11
31.7218
 21
2.0707
 31
0.0000
  0
LINE
  8
21
 10
35.2425
 20
9.4615
 30
0.0000
 11
30.7975
 21
9.4615
 31
0.0000
  0
LINE
  8
21
 10
30.7975
 20
9.4615
 30
0.0000
 11
30.7975
 21
11.4935
 31
0.0000
  0
LINE
  8
21
 10
30.7975
 20
11.4935
 30
0.0000
 11
35.2425
 21
11.4935
 31
0.0000
  0
LINE
  8
21
 10
35.2425
 20
11.4935
 30
0.0000
 11
35.2425
 21
9.4615
 31
0.0000
  0
INSERT
  8
21
  2
RECT
 10
34.6710
 20
10.4775
 30
0.0000
 41
0.3810
 42
2.0320
 43
1.0000
 50
180.0000
  0
LINE
  8
21
 10
30.1625
 20
9.4615
 30
0.0000
 11
25.7175
 21
9.4615
 31
0.0000
  0
LINE
  8
21
 10
25.7175
 20
9.4615
 30
0.0000
 11
25.7175
 21
11.4935
 31
0.0000
  0
LINE
  8
21
 10
25.7175
 20
11.4935
 30
0.0000
 11
30.1625
 21
11.4935
 31
0.0000
  0
LINE
  8
21
 10
30.1625
 20
11.4935
 30
0.0000
 11
30.1625
 21
9.4615
 31
0.0000
  0
INSERT
  8
21
  2
RECT
 10
29.5910
 20
10.4775
 30
0.0000
 41
0.3810
 42
2.0320
 43
1.0000
 50
180.0000
  0
LINE
  8
21
 10
25.0825
 20
9.4615
 30
0.0000
 11
20.6375
 21
9.4615
 31
0.0000
  0
LINE
  8
21
 10
20.6375
 20
9.4615
 30
0.0000
 11
20.6375
 21
11.4935
 31
0.0000
  0
LINE
  8
21
 10
20.6375
 20
11.4935
 30
0.0000
 11
25.0825
 21
11.4935
 31
0.0000
  0
LINE
  8
21
 10
25.0825
 20
11.4935
 30
0.0000
 11
25.0825
 21
9.4615
 31
0.0000
  0
INSERT
  8
21
  2
RECT
 10
24.5110
 20
10.4775
 30
0.0000
 41
0.3810
 42
2.0320
 43
1.0000
 50
180.0000
  0
LINE
  8
21
 10
16.5100
 20
30.6388
 30
0.0000
 11
36.8300
 21
30.6388
 31
0.0000
  0
LINE
  8
21
 10
36.8300
 20
30.6388
 30
0.0000
 11
36.8300
 21
29.2100
 31
0.0000
  0
LINE
  8
21
 10
36.8300
 20
29.2100
 30
0.0000
 11
36.8300
 21
27.7813
 31
0.0000
  0
LINE
  8
21
 10
36.8300
 20
27.7813
 30
0.0000
 11
36.8300
 21
21.4312
 31
0.0000
  0
LINE
  8
21
 10
36.8300
 20
21.4312
 30
0.0000
 11
28.7338
 21
21.4312
 31
0.0000
  0
LINE
  8
21
 10
28.7338
 20
21.4312
 30
0.0000
 11
24.6062
 21
21.4312
 31
0.0000
  0
LINE
  8
21
 10
24.6062
 20
21.4312
 30
0.0000
 11
16.5100
 21
21.4312
 31
0.0000
  0
LINE
  8
21
 10
16.5100
 20
21.4312
 30
0.0000
 11
16.5100
 21
27.7813
 31
0.0000
  0
LINE
  8
21
 10
16.5100
 20
27.7813
 30
0.0000
 11
16.5100
 21
29.2100
 31
0.0000
  0
LINE
  8
21
 10
16.5100
 20
29.2100
 30
0.0000
 11
16.5100
 21
30.6388
 31
0.0000
  0
LINE
  8
21
 10
17.7800
 20
29.3688
 30
0.0000
 11
35.5600
 21
29.3688
 31
0.0000
  0
LINE
  8
21
 10
35.5600
 20
29.3688
 30
0.0000
 11
35.5600
 21
29.2100
 31
0.0000
  0
LINE
  8
21
 10
35.5600
 20
29.2100
 30
0.0000
 11
35.5600
 21
27.7813
 31
0.0000
  0
LINE
  8
21
 10
35.5600
 20
27.7813
 30
0.0000
 11
35.5600
 21
22.7012
 31
0.0000
  0
LINE
  8
21
 10
35.5600
 20
22.7012
 30
0.0000
 11
28.7338
 21
22.7012
 31
0.0000
  0
LINE
  8
21
 10
28.7338
 20
22.7012
 30
0.0000
 11
24.6062
 21
22.7012
 31
0.0000
  0
LINE
  8
21
 10
24.6062
 20
22.7012
 30
0.0000
 11
17.7800
 21
22.7012
 31
0.0000
  0
LINE
  8
21
 10
17.7800
 20
22.7012
 30
0.0000
 11
17.7800
 21
27.7813
 31
0.0000
  0
LINE
  8
21
 10
17.7800
 20
27.7813
 30
0.0000
 11
17.7800
 21
29.2100
 31
0.0000
  0
LINE
  8
21
 10
17.7800
 20
29.2100
 30
0.0000
 11
17.7800
 21
29.3688
 31
0.0000
  0
LINE
  8
21
 10
24.6062
 20
22.7012
 30
0.0000
 11
24.6062
 21
22.2250
 31
0.0000
  0
LINE
  8
21
 10
24.6062
 20
22.2250
 30
0.0000
 11
24.6062
 21
21.4312
 31
0.0000
  0
LINE
  8
21
 10
28.7338
 20
22.7012
 30
0.0000
 11
28.7338
 21
22.2250
 31
0.0000
  0
LINE
  8
21
 10
28.7338
 20
22.2250
 30
0.0000
 11
28.7338
 21
21.4312
 31
0.0000
  0
LINE
  8
21
 10
35.5600
 20
29.2100
 30
0.0000
 11
36.0363
 21
29.2100
 31
0.0000
  0
LINE
  8
21
 10
36.0363
 20
29.2100
 30
0.0000
 11
36.8300
 21
29.2100
 31
0.0000
  0
LINE
  8
21
 10
17.7800
 20
29.2100
 30
0.0000
 11
17.3037
 21
29.2100
 31
0.0000
  0
LINE
  8
21
 10
17.3037
 20
29.2100
 30
0.0000
 11
16.5100
 21
29.2100
 31
0.0000
  0
LINE
  8
21
 10
17.7800
 20
27.7813
 30
0.0000
 11
17.3037
 21
27.7813
 31
0.0000
  0
LINE
  8
21
 10
17.3037
 20
27.7813
 30
0.0000
 11
16.5100
 21
27.7813
 31
0.0000
  0
LINE
  8
21
 10
35.5600
 20
27.7813
 30
0.0000
 11
36.0363
 21
27.7813
 31
0.0000
  0
LINE
  8
21
 10
36.0363
 20
27.7813
 30
0.0000
 11
36.8300
 21
27.7813
 31
0.0000
  0
LINE
  8
21
 10
17.3037
 20
29.8450
 30
0.0000
 11
36.0363
 21
29.8450
 31
0.0000
  0
LINE
  8
21
 10
28.7338
 20
22.2250
 30
0.0000
 11
36.0363
 21
22.2250
 31
0.0000
  0
LINE
  8
21
 10
36.0363
 20
27.7813
 30
0.0000
 11
36.0363
 21
22.2250
 31
0.0000
  0
LINE
  8
21
 10
17.3037
 20
29.8450
 30
0.0000
 11
17.3037
 21
29.2100
 31
0.0000
  0
LINE
  8
21
 10
17.3037
 20
27.7813
 30
0.0000
 11
17.3037
 21
22.2250
 31
0.0000
  0
LINE
  8
21
 10
24.6062
 20
22.2250
 30
0.0000
 11
17.3037
 21
22.2250
 31
0.0000
  0
LINE
  8
21
 10
36.0363
 20
29.2100
 30
0.0000
 11
36.0363
 21
29.8450
 31
0.0000
  0
LINE
  8
21
 10
35.5600
 20
22.7012
 30
0.0000
 11
36.0363
 21
22.2250
 31
0.0000
  0
LINE
  8
21
 10
35.5600
 20
29.3688
 30
0.0000
 11
36.0363
 21
29.8450
 31
0.0000
  0
LINE
  8
21
 10
17.3037
 20
29.8450
 30
0.0000
 11
17.7800
 21
29.3688
 31
0.0000
  0
LINE
  8
21
 10
17.3037
 20
22.2250
 30
0.0000
 11
17.7800
 21
22.7012
 31
0.0000
  0
ARC
  8
21
 10
18.4150
 20
30.6388
 30
0.0000
 40
0.6350
 50
0.0000
 51
180.0000
  0
ARC
  8
21
 10
34.9250
 20
30.6388
 30
0.0000
 40
0.6350
 50
0.0000
 51
180.0000
  0
ARC
  8
21
 10
26.5907
 20
30.6388
 30
0.0000
 40
0.5556
 50
0.0000
 51
180.0000
  0
LINE
  8
21
 10
21.5900
 20
23.6538
 30
0.0000
 11
20.9550
 21
23.0188
 31
0.0000
  0
LINE
  8
21
 10
20.9550
 20
23.0188
 30
0.0000
 11
21.1137
 21
23.0188
 31
0.0000
  0
LINE
  8
21
 10
21.9075
 20
23.0188
 30
0.0000
 11
22.0662
 21
23.0188
 31
0.0000
  0
LINE
  8
21
 10
22.0662
 20
23.0188
 30
0.0000
 11
22.2250
 21
23.0188
 31
0.0000
  0
LINE
  8
21
 10
22.2250
 20
23.0188
 30
0.0000
 11
21.5900
 21
23.6538
 31
0.0000
  0
LINE
  8
21
 10
22.0662
 20
23.0188
 30
0.0000
 11
21.5900
 21
23.4950
 31
0.0000
  0
LINE
  8
21
 10
21.5900
 20
23.4950
 30
0.0000
 11
21.1137
 21
23.0188
 31
0.0000
  0
LINE
  8
21
 10
21.1137
 20
23.0188
 30
0.0000
 11
21.2725
 21
23.0188
 31
0.0000
  0
LINE
  8
21
 10
21.7487
 20
23.0188
 30
0.0000
 11
21.9075
 21
23.0188
 31
0.0000
  0
LINE
  8
21
 10
21.9075
 20
23.0188
 30
0.0000
 11
21.5900
 21
23.3363
 31
0.0000
  0
LINE
  8
21
 10
21.5900
 20
23.3363
 30
0.0000
 11
21.2725
 21
23.0188
 31
0.0000
  0
LINE
  8
21
 10
21.2725
 20
23.0188
 30
0.0000
 11
21.4312
 21
23.0188
 31
0.0000
  0
LINE
  8
21
 10
21.4312
 20
23.0188
 30
0.0000
 11
21.7487
 21
23.0188
 31
0.0000
  0
LINE
  8
21
 10
21.7487
 20
23.0188
 30
0.0000
 11
21.5900
 21
23.1775
 31
0.0000
  0
LINE
  8
21
 10
21.5900
 20
23.1775
 30
0.0000
 11
21.4312
 21
23.0188
 31
0.0000
  0
INSERT
  8
51
  2
RECT
 10
21.5900
 20
24.7650
 30
0.0000
 41
0.5080
 42
0.5080
 43
1.0000
 50
0.0000
  0
INSERT
  8
51
  2
RECT
 10
21.5900
 20
27.3050
 30
0.0000
 41
0.5080
 42
0.5080
 43
1.0000
 50
0.0000
  0
INSERT
  8
51
  2
RECT
 10
24.1300
 20
27.3050
 30
0.0000
 41
0.5080
 42
0.5080
 43
1.0000
 50
0.0000
  0
INSERT
  8
51
  2
RECT
 10
24.1300
 20
24.7650
 30
0.0000
 41
0.5080
 42
0.5080
 43
1.0000
 50
0.0000
  0
INSERT
  8
51
  2
RECT
 10
26.6700
 20
27.3050
 30
0.0000
 41
0.5080
 42
0.5080
 43
1.0000
 50
0.0000
  0
INSERT
  8
51
  2
RECT
 10
26.6700
 20
24.7650
 30
0.0000
 41
0.5080
 42
0.5080
 43
1.0000
 50
0.0000
  0
INSERT
  8
51
  2
RECT
 10
29.2100
 20
27.3050
 30
0.0000
 41
0.5080
 42
0.5080
 43
1.0000
 50
0.0000
  0
INSERT
  8
51
  2
RECT
 10
29.2100
 20
24.7650
 30
0.0000
 41
0.5080
 42
0.5080
 43
1.0000
 50
0.0000
  0
INSERT
  8
51
  2
RECT
 10
31.7500
 20
27.3050
 30
0.0000
 41
0.5080
 42
0.5080
 43
1.0000
 50
0.0000
  0
INSERT
  8
51
  2
RECT
 10
31.7500
 20
24.7650
 30
0.0000
 41
0.5080
 42
0.5080
 43
1.0000
 50
0.0000
  0
LINE
  8
21
 10
-0.1250
 20
30.4900
 30
0.0000
 11
0.2560
 21
30.4900
 31
0.0000
  0
LINE
  8
21
 10
15.2100
 20
0.0100
 30
0.0000
 11
15.2100
 21
0.5180
 31
0.0000
  0
LINE
  8
21
 10
6.3200
 20
30.4900
 30
0.0000
 11
15.2100
 21
30.4900
 31
0.0000
  0
LINE
  8
21
 10
6.3200
 20
23.6320
 30
0.0000
 11
15.2100
 21
23.6320
 31
0.0000
  0
LINE
  8
21
 10
15.2100
 20
23.6320
 30
0.0000
 11
15.2100
 21
24.3940
 31
0.0000
  0
LINE
  8
21
 10
6.3200
 20
30.4900
 30
0.0000
 11
6.3200
 21
24.3940
 31
0.0000
  0
LINE
  8
21
 10
6.3200
 20
24.3940
 30
0.0000
 11
15.2100
 21
24.3940
 31
0.0000
  0
LINE
  8
21
 10
6.3200
 20
24.3940
 30
0.0000
 11
6.3200
 21
23.6320
 31
0.0000
  0
LINE
  8
21
 10
6.3200
 20
6.8680
 30
0.0000
 11
15.2100
 21
6.8680
 31
0.0000
  0
LINE
  8
21
 10
15.2100
 20
6.8680
 30
0.0000
 11
15.2100
 21
23.6320
 31
0.0000
  0
LINE
  8
21
 10
6.3200
 20
6.8680
 30
0.0000
 11
6.3200
 21
6.1060
 31
0.0000
  0
LINE
  8
21
 10
15.2100
 20
0.0100
 30
0.0000
 11
6.3200
 21
0.0100
 31
0.0000
  0
LINE
  8
21
 10
6.3200
 20
0.0100
 30
0.0000
 11
2.1610
 21
0.0100
 31
0.0000
  0
LINE
  8
21
 10
6.3200
 20
6.1060
 30
0.0000
 11
15.2100
 21
6.1060
 31
0.0000
  0
LINE
  8
21
 10
6.3200
 20
6.1060
 30
0.0000
 11
6.3200
 21
0.0100
 31
0.0000
  0
LINE
  8
21
 10
15.2100
 20
6.1060
 30
0.0000
 11
15.2100
 21
6.8680
 31
0.0000
  0
LINE
  8
21
 10
0.2560
 20
0.0100
 30
0.0000
 11
0.2560
 21
30.4900
 31
0.0000
  0
LINE
  8
21
 10
0.2560
 20
30.4900
 30
0.0000
 11
2.1610
 21
30.4900
 31
0.0000
  0
LINE
  8
21
 10
0.2560
 20
0.0100
 30
0.0000
 11
-0.1250
 21
0.0100
 31
0.0000
  0
LINE
  8
21
 10
2.1610
 20
0.0100
 30
0.0000
 11
2.1610
 21
30.4900
 31
0.0000
  0
LINE
  8
21
 10
2.1610
 20
0.0100
 30
0.0000
 11
0.2560
 21
0.0100
 31
0.0000
  0
LINE
  8
21
 10
2.1610
 20
30.4900
 30
0.0000
 11
6.3200
 21
30.4900
 31
0.0000
  0
LINE
  8
21
 10
-0.1250
 20
30.4900
 30
0.0000
 11
-0.1250
 21
24.0130
 31
0.0000
  0
LINE
  8
21
 10
-0.1250
 20
24.0130
 30
0.0000
 11
-0.6330
 21
23.5050
 31
0.0000
  0
LINE
  8
21
 10
-0.1250
 20
24.0130
 30
0.0000
 11
-0.1250
 21
6.4870
 31
0.0000
  0
LINE
  8
21
 10
-0.6330
 20
23.5050
 30
0.0000
 11
-5.5940
 21
23.5050
 31
0.0000
  0
LINE
  8
21
 10
-5.5940
 20
6.9950
 30
0.0000
 11
-0.6330
 21
6.9950
 31
0.0000
  0
LINE
  8
21
 10
-0.6330
 20
6.9950
 30
0.0000
 11
-0.1250
 21
6.4870
 31
0.0000
  0
LINE
  8
21
 10
-0.1250
 20
6.4870
 30
0.0000
 11
-0.1250
 21
0.0100
 31
0.0000
  0
LINE
  8
21
 10
-5.8480
 20
22.9970
 30
0.0000
 11
-0.6330
 21
22.9970
 31
0.0000
  0
LINE
  8
21
 10
15.2100
 20
24.3940
 30
0.0000
 11
15.2100
 21
25.4100
 31
0.0000
  0
ARC
  8
21
 10
10.1300
 20
27.6960
 30
0.0000
 40
2.2860
 50
90.0000
 51
270.0000
  0
LINE
  8
21
 10
15.2100
 20
29.9820
 30
0.0000
 11
10.1300
 21
29.9820
 31
0.0000
  0
LINE
  8
21
 10
15.2100
 20
29.9820
 30
0.0000
 11
15.2100
 21
30.4900
 31
0.0000
  0
LINE
  8
21
 10
15.2100
 20
25.4100
 30
0.0000
 11
10.1300
 21
25.4100
 31
0.0000
  0
LINE
  8
21
 10
15.2100
 20
25.4100
 30
0.0000
 11
15.2100
 21
29.9820
 31
0.0000
  0
ARC
  8
21
 10
10.1300
 20
2.8040
 30
0.0000
 40
2.2860
 50
90.0000
 51
270.0000
  0
LINE
  8
21
 10
15.2100
 20
5.0900
 30
0.0000
 11
10.1300
 21
5.0900
 31
0.0000
  0
LINE
  8
21
 10
15.2100
 20
5.0900
 30
0.0000
 11
15.2100
 21
6.1060
 31
0.0000
  0
LINE
  8
21
 10
15.2100
 20
0.5180
 30
0.0000
 11
10.1300
 21
0.5180
 31
0.0000
  0
LINE
  8
21
 10
15.2100
 20
0.5180
 30
0.0000
 11
15.2100
 21
5.0900
 31
0.0000
  0
LINE
  8
21
 10
-5.8480
 20
7.5030
 30
0.0000
 11
-0.6330
 21
7.5030
 31
0.0000
  0
ARC
  8
21
 10
-5.8480
 20
22.7430
 30
0.0000
 40
0.2540
 50
90.0000
 51
180.0000
  0
ARC
  8
21
 10
-5.8480
 20
7.7570
 30
0.0000
 40
0.2540
 50
180.0000
 51
270.0000
  0
ARC
  8
21
 10
-5.5940
 20
22.9970
 30
0.0000
 40
0.5080
 50
90.0000
 51
180.0000
  0
ARC
  8
21
 10
-5.5940
 20
7.5030
 30
0.0000
 40
0.5080
 50
180.0000
 51
270.0000
  0
LINE
  8
21
 10
-6.1020
 20
7.5030
 30
0.0000
 11
-6.1020
 21
22.9970
 31
0.0000
  0
LINE
  8
21
 10
13.3050
 20
9.5350
 30
0.0000
 11
14.5750
 21
8.2650
 31
0.0000
  0
LINE
  8
21
 10
14.5750
 20
8.2650
 30
0.0000
 11
14.5750
 21
10.8050
 31
0.0000
  0
LINE
  8
21
 10
14.5750
 20
10.8050
 30
0.0000
 11
13.3050
 21
9.5350
 31
0.0000
  0
LINE
  8
21
 10
14.0670
 20
8.9000
 30
0.0000
 11
14.0670
 21
10.1700
 31
0.0000
  0
LINE
  8
21
 10
13.4320
 20
9.5350
 30
0.0000
 11
13.8130
 21
9.5350
 31
0.0000
  0
LINE
  8
21
 10
12.4746
 20
7.6808
 30
0.0000
 11
12.0848
 21
8.0706
 31
0.0000
  0
LINE
  8
21
 10
12.0848
 20
8.0706
 30
0.0000
 11
13.2542
 21
8.0706
 31
0.0000
  0
LINE
  8
21
 10
13.2542
 20
7.6808
 30
0.0000
 11
13.2542
 21
8.4604
 31
0.0000
  0
LINE
  8
21
 10
12.0848
 20
23.0654
 30
0.0000
 11
12.0848
 21
22.2858
 31
0.0000
  0
LINE
  8
21
 10
12.0848
 20
22.2858
 30
0.0000
 11
12.6695
 21
22.2858
 31
0.0000
  0
LINE
  8
21
 10
12.6695
 20
22.2858
 30
0.0000
 11
12.4746
 21
22.6756
 31
0.0000
  0
LINE
  8
21
 10
12.4746
 20
22.6756
 30
0.0000
 11
12.4746
 21
22.8705
 31
0.0000
  0
LINE
  8
21
 10
12.4746
 20
22.8705
 30
0.0000
 11
12.6695
 21
23.0654
 31
0.0000
  0
LINE
  8
21
 10
12.6695
 20
23.0654
 30
0.0000
 11
13.0593
 21
23.0654
 31
0.0000
  0
LINE
  8
21
 10
13.0593
 20
23.0654
 30
0.0000
 11
13.2542
 21
22.8705
 31
0.0000
  0
LINE
  8
21
 10
13.2542
 20
22.8705
 30
0.0000
 11
13.2542
 21
22.4807
 31
0.0000
  0
LINE
  8
21
 10
13.2542
 20
22.4807
 30
0.0000
 11
13.0593
 21
22.2858
 31
0.0000
  0
LINE
  8
21
 10
9.5448
 20
9.7304
 30
0.0000
 11
9.7397
 21
9.3406
 31
0.0000
  0
LINE
  8
21
 10
9.7397
 20
9.3406
 30
0.0000
 11
10.1295
 21
8.9508
 31
0.0000
  0
LINE
  8
21
 10
10.1295
 20
8.9508
 30
0.0000
 11
10.5193
 21
8.9508
 31
0.0000
  0
LINE
  8
21
 10
10.5193
 20
8.9508
 30
0.0000
 11
10.7142
 21
9.1457
 31
0.0000
  0
LINE
  8
21
 10
10.7142
 20
9.1457
 30
0.0000
 11
10.7142
 21
9.5355
 31
0.0000
  0
LINE
  8
21
 10
10.7142
 20
9.5355
 30
0.0000
 11
10.5193
 21
9.7304
 31
0.0000
  0
LINE
  8
21
 10
10.5193
 20
9.7304
 30
0.0000
 11
10.3244
 21
9.7304
 31
0.0000
  0
LINE
  8
21
 10
10.3244
 20
9.7304
 30
0.0000
 11
10.1295
 21
9.5355
 31
0.0000
  0
LINE
  8
21
 10
10.1295
 20
9.5355
 30
0.0000
 11
10.1295
 21
8.9508
 31
0.0000
  0
LINE
  8
21
 10
10.5193
 20
21.0158
 30
0.0000
 11
10.7142
 21
21.2107
 31
0.0000
  0
LINE
  8
21
 10
10.7142
 20
21.2107
 30
0.0000
 11
10.7142
 21
21.6005
 31
0.0000
  0
LINE
  8
21
 10
10.7142
 20
21.6005
 30
0.0000
 11
10.5193
 21
21.7954
 31
0.0000
  0
LINE
  8
21
 10
10.5193
 20
21.7954
 30
0.0000
 11
9.7397
 21
21.7954
 31
0.0000
  0
LINE
  8
21
 10
9.7397
 20
21.7954
 30
0.0000
 11
9.5448
 21
21.6005
 31
0.0000
  0
LINE
  8
21
 10
9.5448
 20
21.6005
 30
0.0000
 11
9.5448
 21
21.2107
 31
0.0000
  0
LINE
  8
21
 10
9.5448
 20
21.2107
 30
0.0000
 11
9.7397
 21
21.0158
 31
0.0000
  0
LINE
  8
21
 10
9.7397
 20
21.0158
 30
0.0000
 11
9.9346
 21
21.0158
 31
0.0000
  0
LINE
  8
21
 10
9.9346
 20
21.0158
 30
0.0000
 11
10.1295
 21
21.2107
 31
0.0000
  0
LINE
  8
21
 10
10.1295
 20
21.2107
 30
0.0000
 11
10.1295
 21
21.7954
 31
0.0000
  0
CIRCLE
  8
21
 10
11.4000
 20
27.6960
 30
0.0000
 40
1.8034
  0
CIRCLE
  8
21
 10
11.4000
 20
2.8040
 30
0.0000
 40
1.8034
  0
INSERT
  8
21
  2
RECT
 10
0.0655
 20
15.2500
 30
0.0000
 41
30.4800
 42
0.3810
 43
1.0000
 50
90.0000
  0
LINE
  8
21
 10
40.7775
 20
9.6937
 30
0.0000
 11
39.8250
 21
10.4875
 31
0.0000
  0
LINE
  8
21
 10
39.8250
 20
10.4875
 30
0.0000
 11
39.8250
 21
8.9000
 31
0.0000
  0
LINE
  8
21
 10
39.8250
 20
8.9000
 30
0.0000
 11
40.7775
 21
9.6937
 31
0.0000
  0
LINE
  8
21
 10
39.8250
 20
8.9916
 30
0.0000
 11
39.9349
 21
8.9916
 31
0.0000
  0
LINE
  8
21
 10
39.8250
 20
9.1440
 30
0.0000
 11
40.1178
 21
9.1440
 31
0.0000
  0
LINE
  8
21
 10
39.8250
 20
9.2964
 30
0.0000
 11
40.3007
 21
9.2964
 31
0.0000
  0
LINE
  8
21
 10
39.8250
 20
9.4488
 30
0.0000
 11
40.4836
 21
9.4488
 31
0.0000
  0
LINE
  8
21
 10
39.8250
 20
9.6012
 30
0.0000
 11
40.6665
 21
9.6012
 31
0.0000
  0
LINE
  8
21
 10
39.8250
 20
9.7536
 30
0.0000
 11
40.7056
 21
9.7536
 31
0.0000
  0
LINE
  8
21
 10
39.8250
 20
9.9060
 30
0.0000
 11
40.5228
 21
9.9060
 31
0.0000
  0
LINE
  8
21
 10
39.8250
 20
10.0584
 30
0.0000
 11
40.3399
 21
10.0584
 31
0.0000
  0
LINE
  8
21
 10
39.8250
 20
10.2108
 30
0.0000
 11
40.1570
 21
10.2108
 31
0.0000
  0
LINE
  8
21
 10
39.8250
 20
10.3632
 30
0.0000
 11
39.9742
 21
10.3632
 31
0.0000
  0
LINE
  8
21
 10
54.5250
 20
0.0100
 30
0.0000
 11
54.1440
 21
0.0100
 31
0.0000
  0
LINE
  8
21
 10
39.1900
 20
30.4900
 30
0.0000
 11
39.1900
 21
29.9820
 31
0.0000
  0
LINE
  8
21
 10
48.0800
 20
0.0100
 30
0.0000
 11
39.1900
 21
0.0100
 31
0.0000
  0
LINE
  8
21
 10
48.0800
 20
6.8680
 30
0.0000
 11
39.1900
 21
6.8680
 31
0.0000
  0
LINE
  8
21
 10
39.1900
 20
6.8680
 30
0.0000
 11
39.1900
 21
6.1060
 31
0.0000
  0
LINE
  8
21
 10
48.0800
 20
0.0100
 30
0.0000
 11
48.0800
 21
6.1060
 31
0.0000
  0
LINE
  8
21
 10
48.0800
 20
6.1060
 30
0.0000
 11
39.1900
 21
6.1060
 31
0.0000
  0
LINE
  8
21
 10
48.0800
 20
6.1060
 30
0.0000
 11
48.0800
 21
6.8680
 31
0.0000
  0
LINE
  8
21
 10
48.0800
 20
23.6320
 30
0.0000
 11
39.1900
 21
23.6320
 31
0.0000
  0
LINE
  8
21
 10
39.1900
 20
23.6320
 30
0.0000
 11
39.1900
 21
6.8680
 31
0.0000
  0
LINE
  8
21
 10
48.0800
 20
23.6320
 30
0.0000
 11
48.0800
 21
24.3940
 31
0.0000
  0
LINE
  8
21
 10
39.1900
 20
30.4900
 30
0.0000
 11
48.0800
 21
30.4900
 31
0.0000
  0
LINE
  8
21
 10
48.0800
 20
30.4900
 30
0.0000
 11
52.2390
 21
30.4900
 31
0.0000
  0
LINE
  8
21
 10
48.0800
 20
24.3940
 30
0.0000
 11
39.1900
 21
24.3940
 31
0.0000
  0
LINE
  8
21
 10
48.0800
 20
24.3940
 30
0.0000
 11
48.0800
 21
30.4900
 31
0.0000
  0
LINE
  8
21
 10
39.1900
 20
24.3940
 30
0.0000
 11
39.1900
 21
23.6320
 31
0.0000
  0
LINE
  8
21
 10
54.1440
 20
30.4900
 30
0.0000
 11
54.1440
 21
0.0100
 31
0.0000
  0
LINE
  8
21
 10
54.1440
 20
0.0100
 30
0.0000
 11
52.2390
 21
0.0100
 31
0.0000
  0
LINE
  8
21
 10
54.1440
 20
30.4900
 30
0.0000
 11
54.5250
 21
30.4900
 31
0.0000
  0
LINE
  8
21
 10
52.2390
 20
30.4900
 30
0.0000
 11
52.2390
 21
0.0100
 31
0.0000
  0
LINE
  8
21
 10
52.2390
 20
30.4900
 30
0.0000
 11
54.1440
 21
30.4900
 31
0.0000
  0
LINE
  8
21
 10
52.2390
 20
0.0100
 30
0.0000
 11
48.0800
 21
0.0100
 31
0.0000
  0
LINE
  8
21
 10
54.5250
 20
0.0100
 30
0.0000
 11
54.5250
 21
6.4870
 31
0.0000
  0
LINE
  8
21
 10
54.5250
 20
6.4870
 30
0.0000
 11
55.0330
 21
6.9950
 31
0.0000
  0
LINE
  8
21
 10
54.5250
 20
6.4870
 30
0.0000
 11
54.5250
 21
24.0130
 31
0.0000
  0
LINE
  8
21
 10
55.0330
 20
6.9950
 30
0.0000
 11
59.9940
 21
6.9950
 31
0.0000
  0
LINE
  8
21
 10
59.9940
 20
23.5050
 30
0.0000
 11
55.0330
 21
23.5050
 31
0.0000
  0
LINE
  8
21
 10
55.0330
 20
23.5050
 30
0.0000
 11
54.5250
 21
24.0130
 31
0.0000
  0
LINE
  8
21
 10
54.5250
 20
24.0130
 30
0.0000
 11
54.5250
 21
30.4900
 31
0.0000
  0
LINE
  8
21
 10
60.2480
 20
7.5030
 30
0.0000
 11
55.0330
 21
7.5030
 31
0.0000
  0
LINE
  8
21
 10
39.1900
 20
6.1060
 30
0.0000
 11
39.1900
 21
5.0900
 31
0.0000
  0
ARC
  8
21
 10
44.2700
 20
2.8040
 30
0.0000
 40
2.2860
 50
270.0000
 51
90.0000
  0
LINE
  8
21
 10
39.1900
 20
0.5180
 30
0.0000
 11
44.2700
 21
0.5180
 31
0.0000
  0
LINE
  8
21
 10
39.1900
 20
0.5180
 30
0.0000
 11
39.1900
 21
0.0100
 31
0.0000
  0
LINE
  8
21
 10
39.1900
 20
5.0900
 30
0.0000
 11
44.2700
 21
5.0900
 31
0.0000
  0
LINE
  8
21
 10
39.1900
 20
5.0900
 30
0.0000
 11
39.1900
 21
0.5180
 31
0.0000
  0
ARC
  8
21
 10
44.2700
 20
27.6960
 30
0.0000
 40
2.2860
 50
270.0000
 51
90.0000
  0
LINE
  8
21
 10
39.1900
 20
25.4100
 30
0.0000
 11
44.2700
 21
25.4100
 31
0.0000
  0
LINE
  8
21
 10
39.1900
 20
25.4100
 30
0.0000
 11
39.1900
 21
24.3940
 31
0.0000
  0
LINE
  8
21
 10
39.1900
 20
29.9820
 30
0.0000
 11
44.2700
 21
29.9820
 31
0.0000
  0
LINE
  8
21
 10
39.1900
 20
29.9820
 30
0.0000
 11
39.1900
 21
25.4100
 31
0.0000
  0
LINE
  8
21
 10
60.2480
 20
22.9970
 30
0.0000
 11
55.0330
 21
22.9970
 31
0.0000
  0
ARC
  8
21
 10
60.2480
 20
7.7570
 30
0.0000
 40
0.2540
 50
270.0000
 51
0.0000
  0
ARC
  8
21
 10
60.2480
 20
22.7430
 30
0.0000
 40
0.2540
 50
0.0000
 51
90.0000
  0
ARC
  8
21
 10
59.9940
 20
7.5030
 30
0.0000
 40
0.5080
 50
270.0000
 51
0.0000
  0
ARC
  8
21
 10
59.9940
 20
22.9970
 30
0.0000
 40
0.5080
 50
0.0000
 51
90.0000
  0
LINE
  8
21
 10
60.5020
 20
22.9970
 30
0.0000
 11
60.5020
 21
7.5030
 31
0.0000
  0
LINE
  8
21
 10
41.5346
 20
7.1464
 30
0.0000
 11
41.1448
 21
7.5362
 31
0.0000
  0
LINE
  8
21
 10
41.1448
 20
7.5362
 30
0.0000
 11
42.3142
 21
7.5362
 31
0.0000
  0
LINE
  8
21
 10
42.3142
 20
7.1464
 30
0.0000
 11
42.3142
 21
7.9260
 31
0.0000
  0
LINE
  8
21
 10
41.1448
 20
22.5310
 30
0.0000
 11
41.1448
 21
21.7514
 31
0.0000
  0
LINE
  8
21
 10
41.1448
 20
21.7514
 30
0.0000
 11
41.7295
 21
21.7514
 31
0.0000
  0
LINE
  8
21
 10
41.7295
 20
21.7514
 30
0.0000
 11
41.5346
 21
22.1412
 31
0.0000
  0
LINE
  8
21
 10
41.5346
 20
22.1412
 30
0.0000
 11
41.5346
 21
22.3361
 31
0.0000
  0
LINE
  8
21
 10
41.5346
 20
22.3361
 30
0.0000
 11
41.7295
 21
22.5310
 31
0.0000
  0
LINE
  8
21
 10
41.7295
 20
22.5310
 30
0.0000
 11
42.1193
 21
22.5310
 31
0.0000
  0
LINE
  8
21
 10
42.1193
 20
22.5310
 30
0.0000
 11
42.3142
 21
22.3361
 31
0.0000
  0
LINE
  8
21
 10
42.3142
 20
22.3361
 30
0.0000
 11
42.3142
 21
21.9463
 31
0.0000
  0
LINE
  8
21
 10
42.3142
 20
21.9463
 30
0.0000
 11
42.1193
 21
21.7514
 31
0.0000
  0
LINE
  8
21
 10
43.6848
 20
9.1960
 30
0.0000
 11
43.8797
 21
8.8062
 31
0.0000
  0
LINE
  8
21
 10
43.8797
 20
8.8062
 30
0.0000
 11
44.2695
 21
8.4164
 31
0.0000
  0
LINE
  8
21
 10
44.2695
 20
8.4164
 30
0.0000
 11
44.6593
 21
8.4164
 31
0.0000
  0
LINE
  8
21
 10
44.6593
 20
8.4164
 30
0.0000
 11
44.8542
 21
8.6113
 31
0.0000
  0
LINE
  8
21
 10
44.8542
 20
8.6113
 30
0.0000
 11
44.8542
 21
9.0011
 31
0.0000
  0
LINE
  8
21
 10
44.8542
 20
9.0011
 30
0.0000
 11
44.6593
 21
9.1960
 31
0.0000
  0
LINE
  8
21
 10
44.6593
 20
9.1960
 30
0.0000
 11
44.4644
 21
9.1960
 31
0.0000
  0
LINE
  8
21
 10
44.4644
 20
9.1960
 30
0.0000
 11
44.2695
 21
9.0011
 31
0.0000
  0
LINE
  8
21
 10
44.2695
 20
9.0011
 30
0.0000
 11
44.2695
 21
8.4164
 31
0.0000
  0
LINE
  8
21
 10
44.6593
 20
20.4814
 30
0.0000
 11
44.8542
 21
20.6763
 31
0.0000
  0
LINE
  8
21
 10
44.8542
 20
20.6763
 30
0.0000
 11
44.8542
 21
21.0661
 31
0.0000
  0
LINE
  8
21
 10
44.8542
 20
21.0661
 30
0.0000
 11
44.6593
 21
21.2610
 31
0.0000
  0
LINE
  8
21
 10
44.6593
 20
21.2610
 30
0.0000
 11
43.8797
 21
21.2610
 31
0.0000
  0
LINE
  8
21
 10
43.8797
 20
21.2610
 30
0.0000
 11
43.6848
 21
21.0661
 31
0.0000
  0
LINE
  8
21
 10
43.6848
 20
21.0661
 30
0.0000
 11
43.6848
 21
20.6763
 31
0.0000
  0
LINE
  8
21
 10
43.6848
 20
20.6763
 30
0.0000
 11
43.8797
 21
20.4814
 31
0.0000
  0
LINE
  8
21
 10
43.8797
 20
20.4814
 30
0.0000
 11
44.0746
 21
20.4814
 31
0.0000
  0
LINE
  8
21
 10
44.0746
 20
20.4814
 30
0.0000
 11
44.2695
 21
20.6763
 31
0.0000
  0
LINE
  8
21
 10
44.2695
 20
20.6763
 30
0.0000
 11
44.2695
 21
21.2610
 31
0.0000
  0
CIRCLE
  8
21
 10
43.0000
 20
2.8040
 30
0.0000
 40
1.8034
  0
CIRCLE
  8
21
 10
43.0000
 20
27.6960
 30
0.0000
 40
1.8034
  0
INSERT
  8
21
  2
RECT
 10
54.3345
 20
15.2500
 30
0.0000
 41
30.4800
 42
0.3810
 43
1.0000
 50
270.0000
  0
LINE
  8
21
 10
36.8300
 20
17.4625
 30
0.0000
 11
36.8300
 21
14.9225
 31
0.0000
  0
LINE
  8
21
 10
36.1950
 20
17.4625
 30
0.0000
 11
34.9250
 21
17.4625
 31
0.0000
  0
LINE
  8
21
 10
36.8300
 20
17.4625
 30
0.0000
 11
36.1950
 21
17.4625
 31
0.0000
  0
LINE
  8
21
 10
34.9250
 20
17.4625
 30
0.0000
 11
34.2900
 21
16.8275
 31
0.0000
  0
LINE
  8
21
 10
34.2900
 20
14.9225
 30
0.0000
 11
34.2900
 21
16.8275
 31
0.0000
  0
LINE
  8
21
 10
36.8300
 20
14.9225
 30
0.0000
 11
36.8300
 21
13.0175
 31
0.0000
  0
LINE
  8
21
 10
36.8300
 20
13.0175
 30
0.0000
 11
36.1950
 21
12.3825
 31
0.0000
  0
LINE
  8
21
 10
36.1950
 20
12.3825
 30
0.0000
 11
34.9250
 21
12.3825
 31
0.0000
  0
LINE
  8
21
 10
34.9250
 20
12.3825
 30
0.0000
 11
34.2900
 21
13.0175
 31
0.0000
  0
LINE
  8
21
 10
34.2900
 20
13.0175
 30
0.0000
 11
34.2900
 21
14.9225
 31
0.0000
  0
LINE
  8
21
 10
34.2900
 20
16.8275
 30
0.0000
 11
34.2900
 21
14.9225
 31
0.0000
  0
LINE
  8
21
 10
33.6550
 20
17.4625
 30
0.0000
 11
32.3850
 21
17.4625
 31
0.0000
  0
LINE
  8
21
 10
34.2900
 20
16.8275
 30
0.0000
 11
33.6550
 21
17.4625
 31
0.0000
  0
LINE
  8
21
 10
32.3850
 20
17.4625
 30
0.0000
 11
31.7500
 21
16.8275
 31
0.0000
  0
LINE
  8
21
 10
31.7500
 20
14.2875
 30
0.0000
 11
31.7500
 21
16.8275
 31
0.0000
  0
LINE
  8
21
 10
34.2900
 20
14.9225
 30
0.0000
 11
34.2900
 21
13.0175
 31
0.0000
  0
LINE
  8
21
 10
34.2900
 20
13.0175
 30
0.0000
 11
33.6550
 21
12.3825
 31
0.0000
  0
LINE
  8
21
 10
33.6550
 20
12.3825
 30
0.0000
 11
32.3850
 21
12.3825
 31
0.0000
  0
LINE
  8
21
 10
32.3850
 20
12.3825
 30
0.0000
 11
31.7500
 21
13.0175
 31
0.0000
  0
LINE
  8
21
 10
31.7500
 20
13.0175
 30
0.0000
 11
31.7500
 21
14.2875
 31
0.0000
  0
LINE
  8
21
 10
31.1150
 20
17.4625
 30
0.0000
 11
29.8450
 21
17.4625
 31
0.0000
  0
LINE
  8
21
 10
31.7500
 20
16.8275
 30
0.0000
 11
31.1150
 21
17.4625
 31
0.0000
  0
LINE
  8
21
 10
29.8450
 20
17.4625
 30
0.0000
 11
29.2100
 21
16.8275
 31
0.0000
  0
LINE
  8
21
 10
29.2100
 20
14.2875
 30
0.0000
 11
29.2100
 21
16.8275
 31
0.0000
  0
LINE
  8
21
 10
31.7500
 20
13.0175
 30
0.0000
 11
31.1150
 21
12.3825
 31
0.0000
  0
LINE
  8
21
 10
31.1150
 20
12.3825
 30
0.0000
 11
29.8450
 21
12.3825
 31
0.0000
  0
LINE
  8
21
 10
29.8450
 20
12.3825
 30
0.0000
 11
29.2100
 21
13.0175
 31
0.0000
  0
LINE
  8
21
 10
29.2100
 20
13.0175
 30
0.0000
 11
29.2100
 21
14.2875
 31
0.0000
  0
LINE
  8
21
 10
28.5750
 20
17.4625
 30
0.0000
 11
27.3050
 21
17.4625
 31
0.0000
  0
LINE
  8
21
 10
29.2100
 20
16.8275
 30
0.0000
 11
28.5750
 21
17.4625
 31
0.0000
  0
LINE
  8
21
 10
27.3050
 20
17.4625
 30
0.0000
 11
26.6700
 21
16.8275
 31
0.0000
  0
LINE
  8
21
 10
26.6700
 20
14.2875
 30
0.0000
 11
26.6700
 21
16.8275
 31
0.0000
  0
LINE
  8
21
 10
29.2100
 20
13.0175
 30
0.0000
 11
28.5750
 21
12.3825
 31
0.0000
  0
LINE
  8
21
 10
28.5750
 20
12.3825
 30
0.0000
 11
27.3050
 21
12.3825
 31
0.0000
  0
LINE
  8
21
 10
27.3050
 20
12.3825
 30
0.0000
 11
26.6700
 21
13.0175
 31
0.0000
  0
LINE
  8
21
 10
26.6700
 20
13.0175
 30
0.0000
 11
26.6700
 21
14.2875
 31
0.0000
  0
LINE
  8
21
 10
26.0350
 20
17.4625
 30
0.0000
 11
24.7650
 21
17.4625
 31
0.0000
  0
LINE
  8
21
 10
26.6700
 20
16.8275
 30
0.0000
 11
26.0350
 21
17.4625
 31
0.0000
  0
LINE
  8
21
 10
24.7650
 20
17.4625
 30
0.0000
 11
24.1300
 21
16.8275
 31
0.0000
  0
LINE
  8
21
 10
24.1300
 20
14.2875
 30
0.0000
 11
24.1300
 21
16.8275
 31
0.0000
  0
LINE
  8
21
 10
26.6700
 20
13.0175
 30
0.0000
 11
26.0350
 21
12.3825
 31
0.0000
  0
LINE
  8
21
 10
26.0350
 20
12.3825
 30
0.0000
 11
24.7650
 21
12.3825
 31
0.0000
  0
LINE
  8
21
 10
24.7650
 20
12.3825
 30
0.0000
 11
24.1300
 21
13.0175
 31
0.0000
  0
LINE
  8
21
 10
24.1300
 20
13.0175
 30
0.0000
 11
24.1300
 21
14.2875
 31
0.0000
  0
LINE
  8
21
 10
23.4950
 20
17.4625
 30
0.0000
 11
22.2250
 21
17.4625
 31
0.0000
  0
LINE
  8
21
 10
24.1300
 20
16.8275
 30
0.0000
 11
23.4950
 21
17.4625
 31
0.0000
  0
LINE
  8
21
 10
22.2250
 20
17.4625
 30
0.0000
 11
21.5900
 21
16.8275
 31
0.0000
  0
LINE
  8
21
 10
21.5900
 20
14.2875
 30
0.0000
 11
21.5900
 21
16.8275
 31
0.0000
  0
LINE
  8
21
 10
24.1300
 20
13.0175
 30
0.0000
 11
23.4950
 21
12.3825
 31
0.0000
  0
LINE
  8
21
 10
23.4950
 20
12.3825
 30
0.0000
 11
22.2250
 21
12.3825
 31
0.0000
  0
LINE
  8
21
 10
22.2250
 20
12.3825
 30
0.0000
 11
21.5900
 21
13.0175
 31
0.0000
  0
LINE
  8
21
 10
21.5900
 20
13.0175
 30
0.0000
 11
21.5900
 21
14.2875
 31
0.0000
  0
LINE
  8
21
 10
20.9550
 20
17.4625
 30
0.0000
 11
19.6850
 21
17.4625
 31
0.0000
  0
LINE
  8
21
 10
21.5900
 20
16.8275
 30
0.0000
 11
20.9550
 21
17.4625
 31
0.0000
  0
LINE
  8
21
 10
19.6850
 20
17.4625
 30
0.0000
 11
19.0500
 21
16.8275
 31
0.0000
  0
LINE
  8
21
 10
19.0500
 20
14.2875
 30
0.0000
 11
19.0500
 21
16.8275
 31
0.0000
  0
LINE
  8
21
 10
21.5900
 20
13.0175
 30
0.0000
 11
20.9550
 21
12.3825
 31
0.0000
  0
LINE
  8
21
 10
20.9550
 20
12.3825
 30
0.0000
 11
19.6850
 21
12.3825
 31
0.0000
  0
LINE
  8
21
 10
19.6850
 20
12.3825
 30
0.0000
 11
19.0500
 21
13.0175
 31
0.0000
  0
LINE
  8
21
 10
19.0500
 20
13.0175
 30
0.0000
 11
19.0500
 21
14.2875
 31
0.0000
  0
LINE
  8
21
 10
18.4150
 20
17.4625
 30
0.0000
 11
17.1450
 21
17.4625
 31
0.0000
  0
LINE
  8
21
 10
19.0500
 20
16.8275
 30
0.0000
 11
18.4150
 21
17.4625
 31
0.0000
  0
LINE
  8
21
 10
17.1450
 20
17.4625
 30
0.0000
 11
16.5100
 21
16.8275
 31
0.0000
  0
LINE
  8
21
 10
16.5100
 20
14.2875
 30
0.0000
 11
16.5100
 21
16.8275
 31
0.0000
  0
LINE
  8
21
 10
19.0500
 20
13.0175
 30
0.0000
 11
18.4150
 21
12.3825
 31
0.0000
  0
LINE
  8
21
 10
18.4150
 20
12.3825
 30
0.0000
 11
17.1450
 21
12.3825
 31
0.0000
  0
LINE
  8
21
 10
17.1450
 20
12.3825
 30
0.0000
 11
16.5100
 21
13.0175
 31
0.0000
  0
LINE
  8
21
 10
16.5100
 20
13.0175
 30
0.0000
 11
16.5100
 21
14.2875
 31
0.0000
  0
INSERT
  8
51
  2
RECT
 10
35.5600
 20
16.1925
 30
0.0000
 41
0.5080
 42
0.5080
 43
1.0000
 50
270.0000
  0
INSERT
  8
51
  2
RECT
 10
35.5600
 20
13.6525
 30
0.0000
 41
0.5080
 42
0.5080
 43
1.0000
 50
270.0000
  0
INSERT
  8
51
  2
RECT
 10
33.0200
 20
16.1925
 30
0.0000
 41
0.5080
 42
0.5080
 43
1.0000
 50
270.0000
  0
INSERT
  8
51
  2
RECT
 10
33.0200
 20
13.6525
 30
0.0000
 41
0.5080
 42
0.5080
 43
1.0000
 50
270.0000
  0
INSERT
  8
51
  2
RECT
 10
30.4800
 20
16.1925
 30
0.0000
 41
0.5080
 42
0.5080
 43
1.0000
 50
270.0000
  0
INSERT
  8
51
  2
RECT
 10
30.4800
 20
13.6525
 30
0.0000
 41
0.5080
 42
0.5080
 43
1.0000
 50
270.0000
  0
INSERT
  8
51
  2
RECT
 10
27.9400
 20
16.1925
 30
0.0000
 41
0.5080
 42
0.5080
 43
1.0000
 50
270.0000
  0
INSERT
  8
51
  2
RECT
 10
27.9400
 20
13.6525
 30
0.0000
 41
0.5080
 42
0.5080
 43
1.0000
 50
270.0000
  0
INSERT
  8
51
  2
RECT
 10
25.4000
 20
16.1925
 30
0.0000
 41
0.5080
 42
0.5080
 43
1.0000
 50
270.0000
  0
INSERT
  8
51
  2
RECT
 10
25.4000
 20
13.6525
 30
0.0000
 41
0.5080
 42
0.5080
 43
1.0000
 50
270.0000
  0
INSERT
  8
51
  2
RECT
 10
22.8600
 20
16.1925
 30
0.0000
 41
0.5080
 42
0.5080
 43
1.0000
 50
270.0000
  0
INSERT
  8
51
  2
RECT
 10
22.8600
 20
13.6525
 30
0.0000
 41
0.5080
 42
0.5080
 43
1.0000
 50
270.0000
  0
INSERT
  8
51
  2
RECT
 10
20.3200
 20
16.1925
 30
0.0000
 41
0.5080
 42
0.5080
 43
1.0000
 50
270.0000
  0
INSERT
  8
51
  2
RECT
 10
20.3200
 20
13.6525
 30
0.0000
 41
0.5080
 42
0.5080
 43
1.0000
 50
270.0000
  0
INSERT
  8
51
  2
RECT
 10
17.7800
 20
16.1925
 30
0.0000
 41
0.5080
 42
0.5080
 43
1.0000
 50
270.0000
  0
INSERT
  8
51
  2
RECT
 10
17.7800
 20
13.6525
 30
0.0000
 41
0.5080
 42
0.5080
 43
1.0000
 50
270.0000
  0
ARC
  8
21
 10
35.5600
 20
6.5000
 30
0.0000
 40
1.7000
 50
298.0725
 51
61.9275
  0
ARC
  8
21
 10
35.5600
 20
6.5000
 30
0.0000
 40
1.7000
 50
118.0725
 51
241.9275
  0
LINE
  8
51
 10
36.3600
 20
5.0000
 30
0.0000
 11
34.7600
 21
5.0000
 31
0.0000
  0
LINE
  8
21
 10
36.6713
 20
4.9125
 30
0.0000
 11
37.3062
 21
4.9125
 31
0.0000
  0
LINE
  8
21
 10
36.6713
 20
8.1463
 30
0.0000
 11
37.3062
 21
8.1463
 31
0.0000
  0
LINE
  8
21
 10
36.9888
 20
7.8288
 30
0.0000
 11
36.9888
 21
8.4638
 31
0.0000
  0
ARC
  8
21
 10
35.5600
 20
6.5000
 30
0.0000
 40
1.7000
 50
298.0725
 51
61.9275
  0
ARC
  8
21
 10
35.5600
 20
6.5000
 30
0.0000
 40
1.7000
 50
118.0725
 51
241.9275
  0
ARC
  8
51
 10
35.5600
 20
6.5000
 30
0.0000
 40
1.7000
 50
61.9275
 51
118.0725
  0
LINE
  8
51
 10
36.1379
 20
7.6297
 30
0.0000
 11
36.1379
 21
7.0026
 31
0.0000
  0
LINE
  8
51
 10
36.1379
 20
7.0026
 30
0.0000
 11
35.5108
 21
7.6297
 31
0.0000
  0
LINE
  8
51
 10
35.5108
 20
7.6297
 30
0.0000
 11
35.3541
 21
7.6297
 31
0.0000
  0
LINE
  8
51
 10
35.3541
 20
7.6297
 30
0.0000
 11
35.1973
 21
7.4729
 31
0.0000
  0
LINE
  8
51
 10
35.1973
 20
7.4729
 30
0.0000
 11
35.1973
 21
7.1593
 31
0.0000
  0
LINE
  8
51
 10
35.1973
 20
7.1593
 30
0.0000
 11
35.3541
 21
7.0026
 31
0.0000
  0
LINE
  8
51
 10
35.5108
 20
5.0026
 30
0.0000
 11
35.1973
 21
5.3161
 31
0.0000
  0
LINE
  8
51
 10
35.1973
 20
5.3161
 30
0.0000
 11
36.1379
 21
5.3161
 31
0.0000
  0
LINE
  8
51
 10
36.1379
 20
5.0026
 30
0.0000
 11
36.1379
 21
5.6297
 31
0.0000
  0
CIRCLE
  8
51
 10
35.5600
 20
6.5000
 30
0.0000
 40
1.5000
  0
ARC
  8
21
 10
30.4800
 20
6.5000
 30
0.0000
 40
1.7000
 50
298.0725
 51
61.9275
  0
ARC
  8
21
 10
30.4800
 20
6.5000
 30
0.0000
 40
1.7000
 50
118.0725
 51
241.9275
  0
LINE
  8
51
 10
31.2800
 20
5.0000
 30
0.0000
 11
29.6800
 21
5.0000
 31
0.0000
  0
LINE
  8
21
 10
31.5913
 20
4.9125
 30
0.0000
 11
32.2263
 21
4.9125
 31
0.0000
  0
LINE
  8
21
 10
31.5913
 20
8.1463
 30
0.0000
 11
32.2263
 21
8.1463
 31
0.0000
  0
LINE
  8
21
 10
31.9088
 20
7.8288
 30
0.0000
 11
31.9088
 21
8.4638
 31
0.0000
  0
ARC
  8
21
 10
30.4800
 20
6.5000
 30
0.0000
 40
1.7000
 50
298.0725
 51
61.9275
  0
ARC
  8
21
 10
30.4800
 20
6.5000
 30
0.0000
 40
1.7000
 50
118.0725
 51
241.9275
  0
ARC
  8
51
 10
30.4800
 20
6.5000
 30
0.0000
 40
1.7000
 50
61.9275
 51
118.0725
  0
LINE
  8
51
 10
31.0579
 20
7.6297
 30
0.0000
 11
31.0579
 21
7.0026
 31
0.0000
  0
LINE
  8
51
 10
31.0579
 20
7.0026
 30
0.0000
 11
30.4308
 21
7.6297
 31
0.0000
  0
LINE
  8
51
 10
30.4308
 20
7.6297
 30
0.0000
 11
30.2741
 21
7.6297
 31
0.0000
  0
LINE
  8
51
 10
30.2741
 20
7.6297
 30
0.0000
 11
30.1173
 21
7.4729
 31
0.0000
  0
LINE
  8
51
 10
30.1173
 20
7.4729
 30
0.0000
 11
30.1173
 21
7.1593
 31
0.0000
  0
LINE
  8
51
 10
30.1173
 20
7.1593
 30
0.0000
 11
30.2741
 21
7.0026
 31
0.0000
  0
LINE
  8
51
 10
30.4308
 20
5.0026
 30
0.0000
 11
30.1173
 21
5.3161
 31
0.0000
  0
LINE
  8
51
 10
30.1173
 20
5.3161
 30
0.0000
 11
31.0579
 21
5.3161
 31
0.0000
  0
LINE
  8
51
 10
31.0579
 20
5.0026
 30
0.0000
 11
31.0579
 21
5.6297
 31
0.0000
  0
CIRCLE
  8
51
 10
30.4800
 20
6.5000
 30
0.0000
 40
1.5000
  0
ARC
  8
21
 10
25.4000
 20
6.5000
 30
0.0000
 40
1.7000
 50
298.0725
 51
61.9275
  0
ARC
  8
21
 10
25.4000
 20
6.5000
 30
0.0000
 40
1.7000
 50
118.0725
 51
241.9275
  0
LINE
  8
51
 10
26.2000
 20
5.0000
 30
0.0000
 11
24.6000
 21
5.0000
 31
0.0000
  0
LINE
  8
21
 10
26.5113
 20
4.9125
 30
0.0000
 11
27.1463
 21
4.9125
 31
0.0000
  0
LINE
  8
21
 10
26.5113
 20
8.1463
 30
0.0000
 11
27.1463
 21
8.1463
 31
0.0000
  0
LINE
  8
21
 10
26.8288
 20
7.8288
 30
0.0000
 11
26.8288
 21
8.4638
 31
0.0000
  0
ARC
  8
21
 10
25.4000
 20
6.5000
 30
0.0000
 40
1.7000
 50
298.0725
 51
61.9275
  0
ARC
  8
21
 10
25.4000
 20
6.5000
 30
0.0000
 40
1.7000
 50
118.0725
 51
241.9275
  0
ARC
  8
51
 10
25.4000
 20
6.5000
 30
0.0000
 40
1.7000
 50
61.9275
 51
118.0725
  0
LINE
  8
51
 10
25.9779
 20
7.6297
 30
0.0000
 11
25.9779
 21
7.0026
 31
0.0000
  0
LINE
  8
51
 10
25.9779
 20
7.0026
 30
0.0000
 11
25.3508
 21
7.6297
 31
0.0000
  0
LINE
  8
51
 10
25.3508
 20
7.6297
 30
0.0000
 11
25.1941
 21
7.6297
 31
0.0000
  0
LINE
  8
51
 10
25.1941
 20
7.6297
 30
0.0000
 11
25.0373
 21
7.4729
 31
0.0000
  0
LINE
  8
51
 10
25.0373
 20
7.4729
 30
0.0000
 11
25.0373
 21
7.1593
 31
0.0000
  0
LINE
  8
51
 10
25.0373
 20
7.1593
 30
0.0000
 11
25.1941
 21
7.0026
 31
0.0000
  0
LINE
  8
51
 10
25.3508
 20
5.0026
 30
0.0000
 11
25.0373
 21
5.3161
 31
0.0000
  0
LINE
  8
51
 10
25.0373
 20
5.3161
 30
0.0000
 11
25.9779
 21
5.3161
 31
0.0000
  0
LINE
  8
51
 10
25.9779
 20
5.0026
 30
0.0000
 11
25.9779
 21
5.6297
 31
0.0000
  0
CIRCLE
  8
51
 10
25.4000
 20
6.5000
 30
0.0000
 40
1.5000
  0
ARC
  8
21
 10
20.3200
 20
6.5000
 30
0.0000
 40
1.7000
 50
298.0725
 51
61.9275
  0
ARC
  8
21
 10
20.3200
 20
6.5000
 30
0.0000
 40
1.7000
 50
118.0725
 51
241.9275
  0
LINE
  8
51
 10
21.1200
 20
5.0000
 30
0.0000
 11
19.5200
 21
5.0000
 31
0.0000
  0
LINE
  8
21
 10
21.4313
 20
4.9125
 30
0.0000
 11
22.0663
 21
4.9125
 31
0.0000
  0
LINE
  8
21
 10
21.4313
 20
8.1463
 30
0.0000
 11
22.0663
 21
8.1463
 31
0.0000
  0
LINE
  8
21
 10
21.7488
 20
7.8288
 30
0.0000
 11
21.7488
 21
8.4638
 31
0.0000
  0
ARC
  8
21
 10
20.3200
 20
6.5000
 30
0.0000
 40
1.7000
 50
298.0725
 51
61.9275
  0
ARC
  8
21
 10
20.3200
 20
6.5000
 30
0.0000
 40
1.7000
 50
118.0725
 51
241.9275
  0
ARC
  8
51
 10
20.3200
 20
6.5000
 30
0.0000
 40
1.7000
 50
61.9275
 51
118.0725
  0
LINE
  8
51
 10
20.8979
 20
7.0026
 30
0.0000
 11
20.2708
 21
7.0026
 31
0.0000
  0
LINE
  8
51
 10
20.2708
 20
7.0026
 30
0.0000
 11
19.9573
 21
7.3161
 31
0.0000
  0
LINE
  8
51
 10
19.9573
 20
7.3161
 30
0.0000
 11
20.2708
 21
7.6297
 31
0.0000
  0
LINE
  8
51
 10
20.2708
 20
7.6297
 30
0.0000
 11
20.8979
 21
7.6297
 31
0.0000
  0
LINE
  8
51
 10
20.4276
 20
7.0026
 30
0.0000
 11
20.4276
 21
7.6297
 31
0.0000
  0
LINE
  8
51
 10
20.1141
 20
5.6297
 30
0.0000
 11
19.9573
 21
5.4729
 31
0.0000
  0
LINE
  8
51
 10
19.9573
 20
5.4729
 30
0.0000
 11
19.9573
 21
5.1593
 31
0.0000
  0
LINE
  8
51
 10
19.9573
 20
5.1593
 30
0.0000
 11
20.1141
 21
5.0026
 31
0.0000
  0
LINE
  8
51
 10
20.1141
 20
5.0026
 30
0.0000
 11
20.7411
 21
5.0026
 31
0.0000
  0
LINE
  8
51
 10
20.7411
 20
5.0026
 30
0.0000
 11
20.8979
 21
5.1593
 31
0.0000
  0
LINE
  8
51
 10
20.8979
 20
5.1593
 30
0.0000
 11
20.8979
 21
5.4729
 31
0.0000
  0
LINE
  8
51
 10
20.8979
 20
5.4729
 30
0.0000
 11
20.7411
 21
5.6297
 31
0.0000
  0
CIRCLE
  8
51
 10
20.3200
 20
6.5000
 30
0.0000
 40
1.5000
  0
LINE
  8
21
 10
34.5821
 20
4.6355
 30
0.0000
 11
34.5821
 21
1.0795
 31
0.0000
  0
LINE
  8
21
 10
32.7279
 20
1.0795
 30
0.0000
 11
32.7279
 21
4.6355
 31
0.0000
  0
LINE
  8
21
 10
34.5821
 20
1.0795
 30
0.0000
 11
32.7279
 21
1.0795
 31
0.0000
  0
LINE
  8
21
 10
34.5821
 20
4.6355
 30
0.0000
 11
32.7279
 21
4.6355
 31
0.0000
  0
LINE
  8
21
 10
29.8196
 20
4.6355
 30
0.0000
 11
29.8196
 21
1.0795
 31
0.0000
  0
LINE
  8
21
 10
27.9654
 20
1.0795
 30
0.0000
 11
27.9654
 21
4.6355
 31
0.0000
  0
LINE
  8
21
 10
29.8196
 20
1.0795
 30
0.0000
 11
27.9654
 21
1.0795
 31
0.0000
  0
LINE
  8
21
 10
29.8196
 20
4.6355
 30
0.0000
 11
27.9654
 21
4.6355
 31
0.0000
  0
LINE
  8
21
 10
24.4221
 20
4.6355
 30
0.0000
 11
24.4221
 21
1.0795
 31
0.0000
  0
LINE
  8
21
 10
22.5679
 20
1.0795
 30
0.0000
 11
22.5679
 21
4.6355
 31
0.0000
  0
LINE
  8
21
 10
24.4221
 20
1.0795
 30
0.0000
 11
22.5679
 21
1.0795
 31
0.0000
  0
LINE
  8
21
 10
24.4221
 20
4.6355
 30
0.0000
 11
22.5679
 21
4.6355
 31
0.0000
  0
LINE
  8
21
 10
18.3896
 20
4.6355
 30
0.0000
 11
18.3896
 21
1.0795
 31
0.0000
  0
LINE
  8
21
 10
16.5354
 20
1.0795
 30
0.0000
 11
16.5354
 21
4.6355
 31
0.0000
  0
LINE
  8
21
 10
18.3896
 20
1.0795
 30
0.0000
 11
16.5354
 21
1.0795
 31
0.0000
  0
LINE
  8
21
 10
18.3896
 20
4.6355
 30
0.0000
 11
16.5354
 21
4.6355
 31
0.0000
  0
LINE
  8
48
 10
54.6100
 20
38.1000
 30
0.0000
 11
54.6100
 21
41.2750
 31
0.0000
  0
LINE
  8
48
 10
54.6100
 20
41.2750
 30
0.0000
 11
54.6100
 21
44.4500
 31
0.0000
  0
LINE
  8
48
 10
54.6100
 20
44.4500
 30
0.0000
 11
54.6100
 21
47.6250
 31
0.0000
  0
LINE
  8
48
 10
54.6100
 20
47.6250
 30
0.0000
 11
54.6100
 21
50.8000
 31
0.0000
  0
LINE
  8
48
 10
54.6100
 20
50.8000
 30
0.0000
 11
54.6100
 21
53.9750
 31
0.0000
  0
LINE
  8
48
 10
54.6100
 20
53.9750
 30
0.0000
 11
22.8600
 21
53.9750
 31
0.0000
  0
LINE
  8
48
 10
22.8600
 20
53.9750
 30
0.0000
 11
0.0000
 21
53.9750
 31
0.0000
  0
LINE
  8
48
 10
0.0000
 20
53.9750
 30
0.0000
 11
0.0000
 21
47.6250
 31
0.0000
  0
LINE
  8
48
 10
0.0000
 20
47.6250
 30
0.0000
 11
0.0000
 21
44.4500
 31
0.0000
  0
LINE
  8
48
 10
0.0000
 20
44.4500
 30
0.0000
 11
0.0000
 21
41.2750
 31
0.0000
  0
LINE
  8
48
 10
0.0000
 20
41.2750
 30
0.0000
 11
0.0000
 21
38.1000
 31
0.0000
  0
LINE
  8
48
 10
0.0000
 20
38.1000
 30
0.0000
 11
54.6100
 21
38.1000
 31
0.0000
  0
LINE
  8
48
 10
0.0000
 20
41.2750
 30
0.0000
 11
36.8300
 21
41.2750
 31
0.0000
  0
LINE
  8
48
 10
36.8300
 20
41.2750
 30
0.0000
 11
54.6100
 21
41.2750
 31
0.0000
  0
LINE
  8
48
 10
0.0000
 20
44.4500
 30
0.0000
 11
36.8300
 21
44.4500
 31
0.0000
  0
LINE
  8
48
 10
36.8300
 20
44.4500
 30
0.0000
 11
54.6100
 21
44.4500
 31
0.0000
  0
LINE
  8
48
 10
0.0000
 20
47.6250
 30
0.0000
 11
22.8600
 21
47.6250
 31
0.0000
  0
LINE
  8
48
 10
22.8600
 20
47.6250
 30
0.0000
 11
36.8300
 21
47.6250
 31
0.0000
  0
LINE
  8
48
 10
36.8300
 20
47.6250
 30
0.0000
 11
54.6100
 21
47.6250
 31
0.0000
  0
LINE
  8
48
 10
22.8600
 20
53.9750
 30
0.0000
 11
22.8600
 21
50.8000
 31
0.0000
  0
LINE
  8
48
 10
22.8600
 20
50.8000
 30
0.0000
 11
22.8600
 21
47.6250
 31
0.0000
  0
LINE
  8
48
 10
22.8600
 20
50.8000
 30
0.0000
 11
36.8300
 21
50.8000
 31
0.0000
  0
LINE
  8
48
 10
36.8300
 20
50.8000
 30
0.0000
 11
54.6100
 21
50.8000
 31
0.0000
  0
LINE
  8
48
 10
36.8300
 20
50.8000
 30
0.0000
 11
36.8300
 21
47.6250
 31
0.0000
  0
LINE
  8
48
 10
36.8300
 20
44.4500
 30
0.0000
 11
36.8300
 21
41.2750
 31
0.0000
  0
LINE
  8
21
 10
1.3589
 20
39.0098
 30
0.0000
 11
1.3589
 21
40.3571
 31
0.0000
  0
LINE
  8
21
 10
1.3589
 20
40.3571
 30
0.0000
 11
2.0326
 21
40.3571
 31
0.0000
  0
LINE
  8
21
 10
2.0326
 20
40.3571
 30
0.0000
 11
2.2571
 21
40.1326
 31
0.0000
  0
LINE
  8
21
 10
2.2571
 20
40.1326
 30
0.0000
 11
2.2571
 21
39.6835
 31
0.0000
  0
LINE
  8
21
 10
2.2571
 20
39.6835
 30
0.0000
 11
2.0326
 21
39.4589
 31
0.0000
  0
LINE
  8
21
 10
2.0326
 20
39.4589
 30
0.0000
 11
1.3589
 21
39.4589
 31
0.0000
  0
LINE
  8
21
 10
2.7622
 20
40.8062
 30
0.0000
 11
2.9867
 21
40.8062
 31
0.0000
  0
LINE
  8
21
 10
2.9867
 20
40.8062
 30
0.0000
 11
2.9867
 21
39.4589
 31
0.0000
  0
LINE
  8
21
 10
2.7622
 20
39.4589
 30
0.0000
 11
3.2113
 21
39.4589
 31
0.0000
  0
LINE
  8
21
 10
3.9223
 20
40.3571
 30
0.0000
 11
4.3714
 21
40.3571
 31
0.0000
  0
LINE
  8
21
 10
4.3714
 20
40.3571
 30
0.0000
 11
4.5959
 21
40.1326
 31
0.0000
  0
LINE
  8
21
 10
4.5959
 20
40.1326
 30
0.0000
 11
4.5959
 21
39.4589
 31
0.0000
  0
LINE
  8
21
 10
4.5959
 20
39.4589
 30
0.0000
 11
3.9223
 21
39.4589
 31
0.0000
  0
LINE
  8
21
 10
3.9223
 20
39.4589
 30
0.0000
 11
3.6977
 21
39.6835
 31
0.0000
  0
LINE
  8
21
 10
3.6977
 20
39.6835
 30
0.0000
 11
3.9223
 21
39.9080
 31
0.0000
  0
LINE
  8
21
 10
3.9223
 20
39.9080
 30
0.0000
 11
4.5959
 21
39.9080
 31
0.0000
  0
LINE
  8
21
 10
5.9992
 20
40.3571
 30
0.0000
 11
5.3255
 21
40.3571
 31
0.0000
  0
LINE
  8
21
 10
5.3255
 20
40.3571
 30
0.0000
 11
5.1010
 21
40.1326
 31
0.0000
  0
LINE
  8
21
 10
5.1010
 20
40.1326
 30
0.0000
 11
5.1010
 21
39.6835
 31
0.0000
  0
LINE
  8
21
 10
5.1010
 20
39.6835
 30
0.0000
 11
5.3255
 21
39.4589
 31
0.0000
  0
LINE
  8
21
 10
5.3255
 20
39.4589
 30
0.0000
 11
5.9992
 21
39.4589
 31
0.0000
  0
LINE
  8
21
 10
7.1779
 20
39.4589
 30
0.0000
 11
6.7288
 21
39.4589
 31
0.0000
  0
LINE
  8
21
 10
6.7288
 20
39.4589
 30
0.0000
 11
6.5043
 21
39.6835
 31
0.0000
  0
LINE
  8
21
 10
6.5043
 20
39.6835
 30
0.0000
 11
6.5043
 21
40.1326
 31
0.0000
  0
LINE
  8
21
 10
6.5043
 20
40.1326
 30
0.0000
 11
6.7288
 21
40.3571
 31
0.0000
  0
LINE
  8
21
 10
6.7288
 20
40.3571
 30
0.0000
 11
7.1779
 21
40.3571
 31
0.0000
  0
LINE
  8
21
 10
7.1779
 20
40.3571
 30
0.0000
 11
7.4025
 21
40.1326
 31
0.0000
  0
LINE
  8
21
 10
7.4025
 20
40.1326
 30
0.0000
 11
7.4025
 21
39.9080
 31
0.0000
  0
LINE
  8
21
 10
7.4025
 20
39.9080
 30
0.0000
 11
6.5043
 21
39.9080
 31
0.0000
  0
LINE
  8
21
 10
7.9075
 20
39.4589
 30
0.0000
 11
7.9075
 21
40.3571
 31
0.0000
  0
LINE
  8
21
 10
7.9075
 20
40.3571
 30
0.0000
 11
8.1321
 21
40.3571
 31
0.0000
  0
LINE
  8
21
 10
8.1321
 20
40.3571
 30
0.0000
 11
8.3566
 21
40.1326
 31
0.0000
  0
LINE
  8
21
 10
8.3566
 20
40.1326
 30
0.0000
 11
8.3566
 21
39.4589
 31
0.0000
  0
LINE
  8
21
 10
8.3566
 20
40.1326
 30
0.0000
 11
8.5812
 21
40.3571
 31
0.0000
  0
LINE
  8
21
 10
8.5812
 20
40.3571
 30
0.0000
 11
8.8058
 21
40.1326
 31
0.0000
  0
LINE
  8
21
 10
8.8058
 20
40.1326
 30
0.0000
 11
8.8058
 21
39.4589
 31
0.0000
  0
LINE
  8
21
 10
9.9845
 20
39.4589
 30
0.0000
 11
9.5354
 21
39.4589
 31
0.0000
  0
LINE
  8
21
 10
9.5354
 20
39.4589
 30
0.0000
 11
9.3108
 21
39.6835
 31
0.0000
  0
LINE
  8
21
 10
9.3108
 20
39.6835
 30
0.0000
 11
9.3108
 21
40.1326
 31
0.0000
  0
LINE
  8
21
 10
9.3108
 20
40.1326
 30
0.0000
 11
9.5354
 21
40.3571
 31
0.0000
  0
LINE
  8
21
 10
9.5354
 20
40.3571
 30
0.0000
 11
9.9845
 21
40.3571
 31
0.0000
  0
LINE
  8
21
 10
9.9845
 20
40.3571
 30
0.0000
 11
10.2090
 21
40.1326
 31
0.0000
  0
LINE
  8
21
 10
10.2090
 20
40.1326
 30
0.0000
 11
10.2090
 21
39.9080
 31
0.0000
  0
LINE
  8
21
 10
10.2090
 20
39.9080
 30
0.0000
 11
9.3108
 21
39.9080
 31
0.0000
  0
LINE
  8
21
 10
10.7141
 20
39.4589
 30
0.0000
 11
10.7141
 21
40.3571
 31
0.0000
  0
LINE
  8
21
 10
10.7141
 20
40.3571
 30
0.0000
 11
11.3878
 21
40.3571
 31
0.0000
  0
LINE
  8
21
 10
11.3878
 20
40.3571
 30
0.0000
 11
11.6123
 21
40.1326
 31
0.0000
  0
LINE
  8
21
 10
11.6123
 20
40.1326
 30
0.0000
 11
11.6123
 21
39.4589
 31
0.0000
  0
LINE
  8
21
 10
12.3419
 20
40.5817
 30
0.0000
 11
12.3419
 21
39.6835
 31
0.0000
  0
LINE
  8
21
 10
12.3419
 20
39.6835
 30
0.0000
 11
12.5665
 21
39.4589
 31
0.0000
  0
LINE
  8
21
 10
12.1174
 20
40.3571
 30
0.0000
 11
12.5665
 21
40.3571
 31
0.0000
  0
LINE
  8
21
 10
15.3544
 20
40.3571
 30
0.0000
 11
14.6807
 21
40.3571
 31
0.0000
  0
LINE
  8
21
 10
14.6807
 20
40.3571
 30
0.0000
 11
14.4562
 21
40.1326
 31
0.0000
  0
LINE
  8
21
 10
14.4562
 20
40.1326
 30
0.0000
 11
14.4562
 21
39.6835
 31
0.0000
  0
LINE
  8
21
 10
14.4562
 20
39.6835
 30
0.0000
 11
14.6807
 21
39.4589
 31
0.0000
  0
LINE
  8
21
 10
14.6807
 20
39.4589
 30
0.0000
 11
15.3544
 21
39.4589
 31
0.0000
  0
LINE
  8
21
 10
16.0840
 20
39.4589
 30
0.0000
 11
16.5331
 21
39.4589
 31
0.0000
  0
LINE
  8
21
 10
16.5331
 20
39.4589
 30
0.0000
 11
16.7577
 21
39.6835
 31
0.0000
  0
LINE
  8
21
 10
16.7577
 20
39.6835
 30
0.0000
 11
16.7577
 21
40.1326
 31
0.0000
  0
LINE
  8
21
 10
16.7577
 20
40.1326
 30
0.0000
 11
16.5331
 21
40.3571
 31
0.0000
  0
LINE
  8
21
 10
16.5331
 20
40.3571
 30
0.0000
 11
16.0840
 21
40.3571
 31
0.0000
  0
LINE
  8
21
 10
16.0840
 20
40.3571
 30
0.0000
 11
15.8594
 21
40.1326
 31
0.0000
  0
LINE
  8
21
 10
15.8594
 20
40.1326
 30
0.0000
 11
15.8594
 21
39.6835
 31
0.0000
  0
LINE
  8
21
 10
15.8594
 20
39.6835
 30
0.0000
 11
16.0840
 21
39.4589
 31
0.0000
  0
LINE
  8
21
 10
17.2627
 20
39.4589
 30
0.0000
 11
17.2627
 21
40.3571
 31
0.0000
  0
LINE
  8
21
 10
17.2627
 20
40.3571
 30
0.0000
 11
17.4873
 21
40.3571
 31
0.0000
  0
LINE
  8
21
 10
17.4873
 20
40.3571
 30
0.0000
 11
17.7118
 21
40.1326
 31
0.0000
  0
LINE
  8
21
 10
17.7118
 20
40.1326
 30
0.0000
 11
17.7118
 21
39.4589
 31
0.0000
  0
LINE
  8
21
 10
17.7118
 20
40.1326
 30
0.0000
 11
17.9364
 21
40.3571
 31
0.0000
  0
LINE
  8
21
 10
17.9364
 20
40.3571
 30
0.0000
 11
18.1610
 21
40.1326
 31
0.0000
  0
LINE
  8
21
 10
18.1610
 20
40.1326
 30
0.0000
 11
18.1610
 21
39.4589
 31
0.0000
  0
LINE
  8
21
 10
18.6660
 20
39.0098
 30
0.0000
 11
18.6660
 21
40.3571
 31
0.0000
  0
LINE
  8
21
 10
18.6660
 20
40.3571
 30
0.0000
 11
19.3397
 21
40.3571
 31
0.0000
  0
LINE
  8
21
 10
19.3397
 20
40.3571
 30
0.0000
 11
19.5642
 21
40.1326
 31
0.0000
  0
LINE
  8
21
 10
19.5642
 20
40.1326
 30
0.0000
 11
19.5642
 21
39.6835
 31
0.0000
  0
LINE
  8
21
 10
19.5642
 20
39.6835
 30
0.0000
 11
19.3397
 21
39.4589
 31
0.0000
  0
LINE
  8
21
 10
19.3397
 20
39.4589
 30
0.0000
 11
18.6660
 21
39.4589
 31
0.0000
  0
LINE
  8
21
 10
20.2938
 20
39.4589
 30
0.0000
 11
20.7430
 21
39.4589
 31
0.0000
  0
LINE
  8
21
 10
20.7430
 20
39.4589
 30
0.0000
 11
20.9675
 21
39.6835
 31
0.0000
  0
LINE
  8
21
 10
20.9675
 20
39.6835
 30
0.0000
 11
20.9675
 21
40.1326
 31
0.0000
  0
LINE
  8
21
 10
20.9675
 20
40.1326
 30
0.0000
 11
20.7430
 21
40.3571
 31
0.0000
  0
LINE
  8
21
 10
20.7430
 20
40.3571
 30
0.0000
 11
20.2938
 21
40.3571
 31
0.0000
  0
LINE
  8
21
 10
20.2938
 20
40.3571
 30
0.0000
 11
20.0693
 21
40.1326
 31
0.0000
  0
LINE
  8
21
 10
20.0693
 20
40.1326
 30
0.0000
 11
20.0693
 21
39.6835
 31
0.0000
  0
LINE
  8
21
 10
20.0693
 20
39.6835
 30
0.0000
 11
20.2938
 21
39.4589
 31
0.0000
  0
LINE
  8
21
 10
21.4726
 20
39.4589
 30
0.0000
 11
21.4726
 21
40.3571
 31
0.0000
  0
LINE
  8
21
 10
21.4726
 20
40.3571
 30
0.0000
 11
22.1462
 21
40.3571
 31
0.0000
  0
LINE
  8
21
 10
22.1462
 20
40.3571
 30
0.0000
 11
22.3708
 21
40.1326
 31
0.0000
  0
LINE
  8
21
 10
22.3708
 20
40.1326
 30
0.0000
 11
22.3708
 21
39.4589
 31
0.0000
  0
LINE
  8
21
 10
23.5495
 20
39.4589
 30
0.0000
 11
23.1004
 21
39.4589
 31
0.0000
  0
LINE
  8
21
 10
23.1004
 20
39.4589
 30
0.0000
 11
22.8758
 21
39.6835
 31
0.0000
  0
LINE
  8
21
 10
22.8758
 20
39.6835
 30
0.0000
 11
22.8758
 21
40.1326
 31
0.0000
  0
LINE
  8
21
 10
22.8758
 20
40.1326
 30
0.0000
 11
23.1004
 21
40.3571
 31
0.0000
  0
LINE
  8
21
 10
23.1004
 20
40.3571
 30
0.0000
 11
23.5495
 21
40.3571
 31
0.0000
  0
LINE
  8
21
 10
23.5495
 20
40.3571
 30
0.0000
 11
23.7741
 21
40.1326
 31
0.0000
  0
LINE
  8
21
 10
23.7741
 20
40.1326
 30
0.0000
 11
23.7741
 21
39.9080
 31
0.0000
  0
LINE
  8
21
 10
23.7741
 20
39.9080
 30
0.0000
 11
22.8758
 21
39.9080
 31
0.0000
  0
LINE
  8
21
 10
24.2791
 20
39.4589
 30
0.0000
 11
24.2791
 21
40.3571
 31
0.0000
  0
LINE
  8
21
 10
24.2791
 20
40.3571
 30
0.0000
 11
24.9528
 21
40.3571
 31
0.0000
  0
LINE
  8
21
 10
24.9528
 20
40.3571
 30
0.0000
 11
25.1773
 21
40.1326
 31
0.0000
  0
LINE
  8
21
 10
25.1773
 20
40.1326
 30
0.0000
 11
25.1773
 21
39.4589
 31
0.0000
  0
LINE
  8
21
 10
25.9069
 20
40.5817
 30
0.0000
 11
25.9069
 21
39.6835
 31
0.0000
  0
LINE
  8
21
 10
25.9069
 20
39.6835
 30
0.0000
 11
26.1315
 21
39.4589
 31
0.0000
  0
LINE
  8
21
 10
25.6824
 20
40.3571
 30
0.0000
 11
26.1315
 21
40.3571
 31
0.0000
  0
LINE
  8
21
 10
28.0212
 20
39.4589
 30
0.0000
 11
28.6949
 21
39.4589
 31
0.0000
  0
LINE
  8
21
 10
28.6949
 20
39.4589
 30
0.0000
 11
28.9194
 21
39.6835
 31
0.0000
  0
LINE
  8
21
 10
28.9194
 20
39.6835
 30
0.0000
 11
28.6949
 21
39.9080
 31
0.0000
  0
LINE
  8
21
 10
28.6949
 20
39.9080
 30
0.0000
 11
28.2457
 21
39.9080
 31
0.0000
  0
LINE
  8
21
 10
28.2457
 20
39.9080
 30
0.0000
 11
28.0212
 21
40.1326
 31
0.0000
  0
LINE
  8
21
 10
28.0212
 20
40.1326
 30
0.0000
 11
28.2457
 21
40.3571
 31
0.0000
  0
LINE
  8
21
 10
28.2457
 20
40.3571
 30
0.0000
 11
28.9194
 21
40.3571
 31
0.0000
  0
LINE
  8
21
 10
29.4245
 20
40.3571
 30
0.0000
 11
29.6490
 21
40.3571
 31
0.0000
  0
LINE
  8
21
 10
29.6490
 20
40.3571
 30
0.0000
 11
29.6490
 21
39.4589
 31
0.0000
  0
LINE
  8
21
 10
29.4245
 20
39.4589
 30
0.0000
 11
29.8736
 21
39.4589
 31
0.0000
  0
LINE
  8
21
 10
29.6490
 20
41.0308
 30
0.0000
 11
29.6490
 21
40.8062
 31
0.0000
  0
LINE
  8
21
 10
31.2582
 20
40.8062
 30
0.0000
 11
31.2582
 21
39.4589
 31
0.0000
  0
LINE
  8
21
 10
31.2582
 20
39.4589
 30
0.0000
 11
30.5845
 21
39.4589
 31
0.0000
  0
LINE
  8
21
 10
30.5845
 20
39.4589
 30
0.0000
 11
30.3600
 21
39.6835
 31
0.0000
  0
LINE
  8
21
 10
30.3600
 20
39.6835
 30
0.0000
 11
30.3600
 21
40.1326
 31
0.0000
  0
LINE
  8
21
 10
30.3600
 20
40.1326
 30
0.0000
 11
30.5845
 21
40.3571
 31
0.0000
  0
LINE
  8
21
 10
30.5845
 20
40.3571
 30
0.0000
 11
31.2582
 21
40.3571
 31
0.0000
  0
LINE
  8
21
 10
32.4369
 20
39.4589
 30
0.0000
 11
31.9878
 21
39.4589
 31
0.0000
  0
LINE
  8
21
 10
31.9878
 20
39.4589
 30
0.0000
 11
31.7633
 21
39.6835
 31
0.0000
  0
LINE
  8
21
 10
31.7633
 20
39.6835
 30
0.0000
 11
31.7633
 21
40.1326
 31
0.0000
  0
LINE
  8
21
 10
31.7633
 20
40.1326
 30
0.0000
 11
31.9878
 21
40.3571
 31
0.0000
  0
LINE
  8
21
 10
31.9878
 20
40.3571
 30
0.0000
 11
32.4369
 21
40.3571
 31
0.0000
  0
LINE
  8
21
 10
32.4369
 20
40.3571
 30
0.0000
 11
32.6615
 21
40.1326
 31
0.0000
  0
LINE
  8
21
 10
32.6615
 20
40.1326
 30
0.0000
 11
32.6615
 21
39.9080
 31
0.0000
  0
LINE
  8
21
 10
32.6615
 20
39.9080
 30
0.0000
 11
31.7633
 21
39.9080
 31
0.0000
  0
LINE
  8
48
 10
24.2316
 20
53.0111
 30
0.0000
 11
24.2316
 21
51.5366
 31
0.0000
  0
LINE
  8
48
 10
24.2316
 20
51.5366
 30
0.0000
 11
24.9688
 21
51.5366
 31
0.0000
  0
LINE
  8
48
 10
24.9688
 20
51.5366
 30
0.0000
 11
25.2146
 21
51.7823
 31
0.0000
  0
LINE
  8
48
 10
25.2146
 20
51.7823
 30
0.0000
 11
25.2146
 21
52.7653
 31
0.0000
  0
LINE
  8
48
 10
25.2146
 20
52.7653
 30
0.0000
 11
24.9688
 21
53.0111
 31
0.0000
  0
LINE
  8
48
 10
24.9688
 20
53.0111
 30
0.0000
 11
24.2316
 21
53.0111
 31
0.0000
  0
LINE
  8
48
 10
26.0209
 20
51.5366
 30
0.0000
 11
26.5124
 21
51.5366
 31
0.0000
  0
LINE
  8
48
 10
26.5124
 20
51.5366
 30
0.0000
 11
26.7582
 21
51.7823
 31
0.0000
  0
LINE
  8
48
 10
26.7582
 20
51.7823
 30
0.0000
 11
26.7582
 21
52.2738
 31
0.0000
  0
LINE
  8
48
 10
26.7582
 20
52.2738
 30
0.0000
 11
26.5124
 21
52.5196
 31
0.0000
  0
LINE
  8
48
 10
26.5124
 20
52.5196
 30
0.0000
 11
26.0209
 21
52.5196
 31
0.0000
  0
LINE
  8
48
 10
26.0209
 20
52.5196
 30
0.0000
 11
25.7752
 21
52.2738
 31
0.0000
  0
LINE
  8
48
 10
25.7752
 20
52.2738
 30
0.0000
 11
25.7752
 21
51.7823
 31
0.0000
  0
LINE
  8
48
 10
25.7752
 20
51.7823
 30
0.0000
 11
26.0209
 21
51.5366
 31
0.0000
  0
LINE
  8
48
 10
28.3018
 20
52.5196
 30
0.0000
 11
27.5646
 21
52.5196
 31
0.0000
  0
LINE
  8
48
 10
27.5646
 20
52.5196
 30
0.0000
 11
27.3188
 21
52.2738
 31
0.0000
  0
LINE
  8
48
 10
27.3188
 20
52.2738
 30
0.0000
 11
27.3188
 21
51.7823
 31
0.0000
  0
LINE
  8
48
 10
27.3188
 20
51.7823
 30
0.0000
 11
27.5646
 21
51.5366
 31
0.0000
  0
LINE
  8
48
 10
27.5646
 20
51.5366
 30
0.0000
 11
28.3018
 21
51.5366
 31
0.0000
  0
LINE
  8
48
 10
28.8624
 20
51.5366
 30
0.0000
 11
28.8624
 21
51.7823
 31
0.0000
  0
LINE
  8
48
 10
28.8624
 20
51.7823
 30
0.0000
 11
29.1082
 21
51.7823
 31
0.0000
  0
LINE
  8
48
 10
29.1082
 20
51.7823
 30
0.0000
 11
29.1082
 21
51.5366
 31
0.0000
  0
LINE
  8
48
 10
29.1082
 20
51.5366
 30
0.0000
 11
28.8624
 21
51.5366
 31
0.0000
  0
LINE
  8
48
 10
29.6342
 20
52.2738
 30
0.0000
 11
30.6172
 21
52.2738
 31
0.0000
  0
LINE
  8
48
 10
31.1778
 20
51.5366
 30
0.0000
 11
31.1778
 21
53.0111
 31
0.0000
  0
LINE
  8
48
 10
31.1778
 20
53.0111
 30
0.0000
 11
32.1608
 21
51.5366
 31
0.0000
  0
LINE
  8
48
 10
32.1608
 20
51.5366
 30
0.0000
 11
32.1608
 21
53.0111
 31
0.0000
  0
LINE
  8
48
 10
32.9672
 20
51.5366
 30
0.0000
 11
33.4587
 21
51.5366
 31
0.0000
  0
LINE
  8
48
 10
33.4587
 20
51.5366
 30
0.0000
 11
33.7044
 21
51.7823
 31
0.0000
  0
LINE
  8
48
 10
33.7044
 20
51.7823
 30
0.0000
 11
33.7044
 21
52.2738
 31
0.0000
  0
LINE
  8
48
 10
33.7044
 20
52.2738
 30
0.0000
 11
33.4587
 21
52.5196
 31
0.0000
  0
LINE
  8
48
 10
33.4587
 20
52.5196
 30
0.0000
 11
32.9672
 21
52.5196
 31
0.0000
  0
LINE
  8
48
 10
32.9672
 20
52.5196
 30
0.0000
 11
32.7214
 21
52.2738
 31
0.0000
  0
LINE
  8
48
 10
32.7214
 20
52.2738
 30
0.0000
 11
32.7214
 21
51.7823
 31
0.0000
  0
LINE
  8
48
 10
32.7214
 20
51.7823
 30
0.0000
 11
32.9672
 21
51.5366
 31
0.0000
  0
LINE
  8
48
 10
34.2650
 20
51.5366
 30
0.0000
 11
34.2650
 21
51.7823
 31
0.0000
  0
LINE
  8
48
 10
34.2650
 20
51.7823
 30
0.0000
 11
34.5108
 21
51.7823
 31
0.0000
  0
LINE
  8
48
 10
34.5108
 20
51.7823
 30
0.0000
 11
34.5108
 21
51.5366
 31
0.0000
  0
LINE
  8
48
 10
34.5108
 20
51.5366
 30
0.0000
 11
34.2650
 21
51.5366
 31
0.0000
  0
LINE
  8
48
 10
35.0368
 20
52.5196
 30
0.0000
 11
35.2826
 21
52.5196
 31
0.0000
  0
LINE
  8
48
 10
35.2826
 20
52.5196
 30
0.0000
 11
35.2826
 21
52.2738
 31
0.0000
  0
LINE
  8
48
 10
35.2826
 20
52.2738
 30
0.0000
 11
35.0368
 21
52.2738
 31
0.0000
  0
LINE
  8
48
 10
35.0368
 20
52.2738
 30
0.0000
 11
35.0368
 21
52.5196
 31
0.0000
  0
LINE
  8
48
 10
35.0368
 20
51.7823
 30
0.0000
 11
35.2826
 21
51.7823
 31
0.0000
  0
LINE
  8
48
 10
35.2826
 20
51.7823
 30
0.0000
 11
35.2826
 21
51.5366
 31
0.0000
  0
LINE
  8
48
 10
35.2826
 20
51.5366
 30
0.0000
 11
35.0368
 21
51.5366
 31
0.0000
  0
LINE
  8
48
 10
35.0368
 20
51.5366
 30
0.0000
 11
35.0368
 21
51.7823
 31
0.0000
  0
LINE
  8
48
 10
38.2016
 20
42.0116
 30
0.0000
 11
38.2016
 21
43.4861
 31
0.0000
  0
LINE
  8
48
 10
38.2016
 20
43.4861
 30
0.0000
 11
38.9388
 21
43.4861
 31
0.0000
  0
LINE
  8
48
 10
38.9388
 20
43.4861
 30
0.0000
 11
39.1846
 21
43.2403
 31
0.0000
  0
LINE
  8
48
 10
39.1846
 20
43.2403
 30
0.0000
 11
39.1846
 21
42.7488
 31
0.0000
  0
LINE
  8
48
 10
39.1846
 20
42.7488
 30
0.0000
 11
38.9388
 21
42.5031
 31
0.0000
  0
LINE
  8
48
 10
38.9388
 20
42.5031
 30
0.0000
 11
38.2016
 21
42.5031
 31
0.0000
  0
LINE
  8
48
 10
38.6931
 20
42.5031
 30
0.0000
 11
39.1846
 21
42.0116
 31
0.0000
  0
LINE
  8
48
 10
40.4824
 20
42.0116
 30
0.0000
 11
39.9909
 21
42.0116
 31
0.0000
  0
LINE
  8
48
 10
39.9909
 20
42.0116
 30
0.0000
 11
39.7452
 21
42.2573
 31
0.0000
  0
LINE
  8
48
 10
39.7452
 20
42.2573
 30
0.0000
 11
39.7452
 21
42.7488
 31
0.0000
  0
LINE
  8
48
 10
39.7452
 20
42.7488
 30
0.0000
 11
39.9909
 21
42.9946
 31
0.0000
  0
LINE
  8
48
 10
39.9909
 20
42.9946
 30
0.0000
 11
40.4824
 21
42.9946
 31
0.0000
  0
LINE
  8
48
 10
40.4824
 20
42.9946
 30
0.0000
 11
40.7282
 21
42.7488
 31
0.0000
  0
LINE
  8
48
 10
40.7282
 20
42.7488
 30
0.0000
 11
40.7282
 21
42.5031
 31
0.0000
  0
LINE
  8
48
 10
40.7282
 20
42.5031
 30
0.0000
 11
39.7452
 21
42.5031
 31
0.0000
  0
LINE
  8
48
 10
41.2888
 20
42.9946
 30
0.0000
 11
41.7803
 21
42.0116
 31
0.0000
  0
LINE
  8
48
 10
41.7803
 20
42.0116
 30
0.0000
 11
42.2718
 21
42.9946
 31
0.0000
  0
LINE
  8
48
 10
42.8324
 20
42.0116
 30
0.0000
 11
42.8324
 21
42.2573
 31
0.0000
  0
LINE
  8
48
 10
42.8324
 20
42.2573
 30
0.0000
 11
43.0782
 21
42.2573
 31
0.0000
  0
LINE
  8
48
 10
43.0782
 20
42.2573
 30
0.0000
 11
43.0782
 21
42.0116
 31
0.0000
  0
LINE
  8
48
 10
43.0782
 20
42.0116
 30
0.0000
 11
42.8324
 21
42.0116
 31
0.0000
  0
LINE
  8
48
 10
43.6042
 20
42.9946
 30
0.0000
 11
43.8500
 21
42.9946
 31
0.0000
  0
LINE
  8
48
 10
43.8500
 20
42.9946
 30
0.0000
 11
43.8500
 21
42.7488
 31
0.0000
  0
LINE
  8
48
 10
43.8500
 20
42.7488
 30
0.0000
 11
43.6042
 21
42.7488
 31
0.0000
  0
LINE
  8
48
 10
43.6042
 20
42.7488
 30
0.0000
 11
43.6042
 21
42.9946
 31
0.0000
  0
LINE
  8
48
 10
43.6042
 20
42.2573
 30
0.0000
 11
43.8500
 21
42.2573
 31
0.0000
  0
LINE
  8
48
 10
43.8500
 20
42.2573
 30
0.0000
 11
43.8500
 21
42.0116
 31
0.0000
  0
LINE
  8
48
 10
43.8500
 20
42.0116
 30
0.0000
 11
43.6042
 21
42.0116
 31
0.0000
  0
LINE
  8
48
 10
43.6042
 20
42.0116
 30
0.0000
 11
43.6042
 21
42.2573
 31
0.0000
  0
LINE
  8
48
 10
39.1846
 20
49.5903
 30
0.0000
 11
38.9388
 21
49.8361
 31
0.0000
  0
LINE
  8
48
 10
38.9388
 20
49.8361
 30
0.0000
 11
38.4473
 21
49.8361
 31
0.0000
  0
LINE
  8
48
 10
38.4473
 20
49.8361
 30
0.0000
 11
38.2016
 21
49.5903
 31
0.0000
  0
LINE
  8
48
 10
38.2016
 20
49.5903
 30
0.0000
 11
38.2016
 21
48.6073
 31
0.0000
  0
LINE
  8
48
 10
38.2016
 20
48.6073
 30
0.0000
 11
38.4473
 21
48.3616
 31
0.0000
  0
LINE
  8
48
 10
38.4473
 20
48.3616
 30
0.0000
 11
38.9388
 21
48.3616
 31
0.0000
  0
LINE
  8
48
 10
38.9388
 20
48.3616
 30
0.0000
 11
39.1846
 21
48.6073
 31
0.0000
  0
LINE
  8
48
 10
39.7452
 20
49.3446
 30
0.0000
 11
39.7452
 21
48.6073
 31
0.0000
  0
LINE
  8
48
 10
39.7452
 20
48.6073
 30
0.0000
 11
39.9909
 21
48.3616
 31
0.0000
  0
LINE
  8
48
 10
39.9909
 20
48.3616
 30
0.0000
 11
40.7282
 21
48.3616
 31
0.0000
  0
LINE
  8
48
 10
40.7282
 20
48.3616
 30
0.0000
 11
40.7282
 21
49.3446
 31
0.0000
  0
LINE
  8
48
 10
41.2888
 20
49.0988
 30
0.0000
 11
42.2718
 21
49.0988
 31
0.0000
  0
LINE
  8
48
 10
42.8324
 20
49.8361
 30
0.0000
 11
42.8324
 21
48.3616
 31
0.0000
  0
LINE
  8
48
 10
42.8324
 20
48.3616
 30
0.0000
 11
43.8154
 21
48.3616
 31
0.0000
  0
LINE
  8
48
 10
44.6218
 20
49.3446
 30
0.0000
 11
45.1133
 21
49.3446
 31
0.0000
  0
LINE
  8
48
 10
45.1133
 20
49.3446
 30
0.0000
 11
45.3590
 21
49.0988
 31
0.0000
  0
LINE
  8
48
 10
45.3590
 20
49.0988
 30
0.0000
 11
45.3590
 21
48.3616
 31
0.0000
  0
LINE
  8
48
 10
45.3590
 20
48.3616
 30
0.0000
 11
44.6218
 21
48.3616
 31
0.0000
  0
LINE
  8
48
 10
44.6218
 20
48.3616
 30
0.0000
 11
44.3760
 21
48.6073
 31
0.0000
  0
LINE
  8
48
 10
44.3760
 20
48.6073
 30
0.0000
 11
44.6218
 21
48.8531
 31
0.0000
  0
LINE
  8
48
 10
44.6218
 20
48.8531
 30
0.0000
 11
45.3590
 21
48.8531
 31
0.0000
  0
LINE
  8
48
 10
45.9196
 20
49.3446
 30
0.0000
 11
45.9196
 21
48.6073
 31
0.0000
  0
LINE
  8
48
 10
45.9196
 20
48.6073
 30
0.0000
 11
46.1654
 21
48.3616
 31
0.0000
  0
LINE
  8
48
 10
46.1654
 20
48.3616
 30
0.0000
 11
46.9026
 21
48.3616
 31
0.0000
  0
LINE
  8
48
 10
46.9026
 20
49.3446
 30
0.0000
 11
46.9026
 21
48.1159
 31
0.0000
  0
LINE
  8
48
 10
46.9026
 20
48.1159
 30
0.0000
 11
46.6569
 21
47.8701
 31
0.0000
  0
LINE
  8
48
 10
46.6569
 20
47.8701
 30
0.0000
 11
46.4111
 21
47.8701
 31
0.0000
  0
LINE
  8
48
 10
48.2005
 20
48.3616
 30
0.0000
 11
47.7090
 21
48.3616
 31
0.0000
  0
LINE
  8
48
 10
47.7090
 20
48.3616
 30
0.0000
 11
47.4632
 21
48.6073
 31
0.0000
  0
LINE
  8
48
 10
47.4632
 20
48.6073
 30
0.0000
 11
47.4632
 21
49.0988
 31
0.0000
  0
LINE
  8
48
 10
47.4632
 20
49.0988
 30
0.0000
 11
47.7090
 21
49.3446
 31
0.0000
  0
LINE
  8
48
 10
47.7090
 20
49.3446
 30
0.0000
 11
48.2005
 21
49.3446
 31
0.0000
  0
LINE
  8
48
 10
48.2005
 20
49.3446
 30
0.0000
 11
48.4462
 21
49.0988
 31
0.0000
  0
LINE
  8
48
 10
48.4462
 20
49.0988
 30
0.0000
 11
48.4462
 21
48.8531
 31
0.0000
  0
LINE
  8
48
 10
48.4462
 20
48.8531
 30
0.0000
 11
47.4632
 21
48.8531
 31
0.0000
  0
LINE
  8
48
 10
49.0068
 20
48.3616
 30
0.0000
 11
49.0068
 21
49.3446
 31
0.0000
  0
LINE
  8
48
 10
49.0068
 20
48.8531
 30
0.0000
 11
49.4983
 21
49.3446
 31
0.0000
  0
LINE
  8
48
 10
49.4983
 20
49.3446
 30
0.0000
 11
49.7441
 21
49.3446
 31
0.0000
  0
LINE
  8
48
 10
50.2932
 20
48.3616
 30
0.0000
 11
51.0304
 21
48.3616
 31
0.0000
  0
LINE
  8
48
 10
51.0304
 20
48.3616
 30
0.0000
 11
51.2762
 21
48.6073
 31
0.0000
  0
LINE
  8
48
 10
51.2762
 20
48.6073
 30
0.0000
 11
51.0304
 21
48.8531
 31
0.0000
  0
LINE
  8
48
 10
51.0304
 20
48.8531
 30
0.0000
 11
50.5389
 21
48.8531
 31
0.0000
  0
LINE
  8
48
 10
50.5389
 20
48.8531
 30
0.0000
 11
50.2932
 21
49.0988
 31
0.0000
  0
LINE
  8
48
 10
50.2932
 20
49.0988
 30
0.0000
 11
50.5389
 21
49.3446
 31
0.0000
  0
LINE
  8
48
 10
50.5389
 20
49.3446
 30
0.0000
 11
51.2762
 21
49.3446
 31
0.0000
  0
LINE
  8
48
 10
51.8368
 20
49.3446
 30
0.0000
 11
52.0825
 21
49.3446
 31
0.0000
  0
LINE
  8
48
 10
52.0825
 20
49.3446
 30
0.0000
 11
52.0825
 21
49.0988
 31
0.0000
  0
LINE
  8
48
 10
52.0825
 20
49.0988
 30
0.0000
 11
51.8368
 21
49.0988
 31
0.0000
  0
LINE
  8
48
 10
51.8368
 20
49.0988
 30
0.0000
 11
51.8368
 21
49.3446
 31
0.0000
  0
LINE
  8
48
 10
51.8368
 20
48.6073
 30
0.0000
 11
52.0825
 21
48.6073
 31
0.0000
  0
LINE
  8
48
 10
52.0825
 20
48.6073
 30
0.0000
 11
52.0825
 21
48.3616
 31
0.0000
  0
LINE
  8
48
 10
52.0825
 20
48.3616
 30
0.0000
 11
51.8368
 21
48.3616
 31
0.0000
  0
LINE
  8
48
 10
51.8368
 20
48.3616
 30
0.0000
 11
51.8368
 21
48.6073
 31
0.0000
  0
LINE
  8
48
 10
25.2146
 20
49.5903
 30
0.0000
 11
24.9688
 21
49.8361
 31
0.0000
  0
LINE
  8
48
 10
24.9688
 20
49.8361
 30
0.0000
 11
24.4773
 21
49.8361
 31
0.0000
  0
LINE
  8
48
 10
24.4773
 20
49.8361
 30
0.0000
 11
24.2316
 21
49.5903
 31
0.0000
  0
LINE
  8
48
 10
24.2316
 20
49.5903
 30
0.0000
 11
24.2316
 21
48.6073
 31
0.0000
  0
LINE
  8
48
 10
24.2316
 20
48.6073
 30
0.0000
 11
24.4773
 21
48.3616
 31
0.0000
  0
LINE
  8
48
 10
24.4773
 20
48.3616
 30
0.0000
 11
24.9688
 21
48.3616
 31
0.0000
  0
LINE
  8
48
 10
24.9688
 20
48.3616
 30
0.0000
 11
25.2146
 21
48.6073
 31
0.0000
  0
LINE
  8
48
 10
25.7752
 20
49.3446
 30
0.0000
 11
25.7752
 21
48.6073
 31
0.0000
  0
LINE
  8
48
 10
25.7752
 20
48.6073
 30
0.0000
 11
26.0209
 21
48.3616
 31
0.0000
  0
LINE
  8
48
 10
26.0209
 20
48.3616
 30
0.0000
 11
26.7582
 21
48.3616
 31
0.0000
  0
LINE
  8
48
 10
26.7582
 20
48.3616
 30
0.0000
 11
26.7582
 21
49.3446
 31
0.0000
  0
LINE
  8
48
 10
27.3188
 20
49.3446
 30
0.0000
 11
27.5646
 21
49.3446
 31
0.0000
  0
LINE
  8
48
 10
27.5646
 20
49.3446
 30
0.0000
 11
27.5646
 21
49.0988
 31
0.0000
  0
LINE
  8
48
 10
27.5646
 20
49.0988
 30
0.0000
 11
27.3188
 21
49.0988
 31
0.0000
  0
LINE
  8
48
 10
27.3188
 20
49.0988
 30
0.0000
 11
27.3188
 21
49.3446
 31
0.0000
  0
LINE
  8
48
 10
27.3188
 20
48.6073
 30
0.0000
 11
27.5646
 21
48.6073
 31
0.0000
  0
LINE
  8
48
 10
27.5646
 20
48.6073
 30
0.0000
 11
27.5646
 21
48.3616
 31
0.0000
  0
LINE
  8
48
 10
27.5646
 20
48.3616
 30
0.0000
 11
27.3188
 21
48.3616
 31
0.0000
  0
LINE
  8
48
 10
27.3188
 20
48.3616
 30
0.0000
 11
27.3188
 21
48.6073
 31
0.0000
  0
LINE
  8
48
 10
1.3716
 20
45.1866
 30
0.0000
 11
1.3716
 21
46.6611
 31
0.0000
  0
LINE
  8
48
 10
1.3716
 20
46.6611
 30
0.0000
 11
2.1088
 21
46.6611
 31
0.0000
  0
LINE
  8
48
 10
2.1088
 20
46.6611
 30
0.0000
 11
2.3546
 21
46.4153
 31
0.0000
  0
LINE
  8
48
 10
2.3546
 20
46.4153
 30
0.0000
 11
2.3546
 21
45.9238
 31
0.0000
  0
LINE
  8
48
 10
2.3546
 20
45.9238
 30
0.0000
 11
2.1088
 21
45.6781
 31
0.0000
  0
LINE
  8
48
 10
2.1088
 20
45.6781
 30
0.0000
 11
1.3716
 21
45.6781
 31
0.0000
  0
LINE
  8
48
 10
1.8631
 20
45.6781
 30
0.0000
 11
2.3546
 21
45.1866
 31
0.0000
  0
LINE
  8
48
 10
3.8982
 20
46.4153
 30
0.0000
 11
3.6524
 21
46.6611
 31
0.0000
  0
LINE
  8
48
 10
3.6524
 20
46.6611
 30
0.0000
 11
3.1609
 21
46.6611
 31
0.0000
  0
LINE
  8
48
 10
3.1609
 20
46.6611
 30
0.0000
 11
2.9152
 21
46.4153
 31
0.0000
  0
LINE
  8
48
 10
2.9152
 20
46.4153
 30
0.0000
 11
2.9152
 21
46.1696
 31
0.0000
  0
LINE
  8
48
 10
2.9152
 20
46.1696
 30
0.0000
 11
3.1609
 21
45.9238
 31
0.0000
  0
LINE
  8
48
 10
3.1609
 20
45.9238
 30
0.0000
 11
3.6524
 21
45.9238
 31
0.0000
  0
LINE
  8
48
 10
3.6524
 20
45.9238
 30
0.0000
 11
3.8982
 21
45.6781
 31
0.0000
  0
LINE
  8
48
 10
3.8982
 20
45.6781
 30
0.0000
 11
3.8982
 21
45.4323
 31
0.0000
  0
LINE
  8
48
 10
3.8982
 20
45.4323
 30
0.0000
 11
3.6524
 21
45.1866
 31
0.0000
  0
LINE
  8
48
 10
3.6524
 20
45.1866
 30
0.0000
 11
3.1609
 21
45.1866
 31
0.0000
  0
LINE
  8
48
 10
3.1609
 20
45.1866
 30
0.0000
 11
2.9152
 21
45.4323
 31
0.0000
  0
LINE
  8
48
 10
5.4418
 20
45.1866
 30
0.0000
 11
4.4588
 21
45.1866
 31
0.0000
  0
LINE
  8
48
 10
4.4588
 20
45.1866
 30
0.0000
 11
5.4418
 21
46.1696
 31
0.0000
  0
LINE
  8
48
 10
5.4418
 20
46.1696
 30
0.0000
 11
5.4418
 21
46.4153
 31
0.0000
  0
LINE
  8
48
 10
5.4418
 20
46.4153
 30
0.0000
 11
5.1960
 21
46.6611
 31
0.0000
  0
LINE
  8
48
 10
5.1960
 20
46.6611
 30
0.0000
 11
4.7046
 21
46.6611
 31
0.0000
  0
LINE
  8
48
 10
4.7046
 20
46.6611
 30
0.0000
 11
4.4588
 21
46.4153
 31
0.0000
  0
LINE
  8
48
 10
6.0024
 20
46.4153
 30
0.0000
 11
6.2482
 21
46.6611
 31
0.0000
  0
LINE
  8
48
 10
6.2482
 20
46.6611
 30
0.0000
 11
6.7396
 21
46.6611
 31
0.0000
  0
LINE
  8
48
 10
6.7396
 20
46.6611
 30
0.0000
 11
6.9854
 21
46.4153
 31
0.0000
  0
LINE
  8
48
 10
6.9854
 20
46.4153
 30
0.0000
 11
6.9854
 21
46.1696
 31
0.0000
  0
LINE
  8
48
 10
6.9854
 20
46.1696
 30
0.0000
 11
6.7396
 21
45.9238
 31
0.0000
  0
LINE
  8
48
 10
6.7396
 20
45.9238
 30
0.0000
 11
6.4939
 21
45.9238
 31
0.0000
  0
LINE
  8
48
 10
6.7396
 20
45.9238
 30
0.0000
 11
6.9854
 21
45.6781
 31
0.0000
  0
LINE
  8
48
 10
6.9854
 20
45.6781
 30
0.0000
 11
6.9854
 21
45.4323
 31
0.0000
  0
LINE
  8
48
 10
6.9854
 20
45.4323
 30
0.0000
 11
6.7396
 21
45.1866
 31
0.0000
  0
LINE
  8
48
 10
6.7396
 20
45.1866
 30
0.0000
 11
6.2482
 21
45.1866
 31
0.0000
  0
LINE
  8
48
 10
6.2482
 20
45.1866
 30
0.0000
 11
6.0024
 21
45.4323
 31
0.0000
  0
LINE
  8
48
 10
8.5290
 20
45.1866
 30
0.0000
 11
7.5460
 21
45.1866
 31
0.0000
  0
LINE
  8
48
 10
7.5460
 20
45.1866
 30
0.0000
 11
8.5290
 21
46.1696
 31
0.0000
  0
LINE
  8
48
 10
8.5290
 20
46.1696
 30
0.0000
 11
8.5290
 21
46.4153
 31
0.0000
  0
LINE
  8
48
 10
8.5290
 20
46.4153
 30
0.0000
 11
8.2833
 21
46.6611
 31
0.0000
  0
LINE
  8
48
 10
8.2833
 20
46.6611
 30
0.0000
 11
7.7918
 21
46.6611
 31
0.0000
  0
LINE
  8
48
 10
7.7918
 20
46.6611
 30
0.0000
 11
7.5460
 21
46.4153
 31
0.0000
  0
LINE
  8
48
 10
10.6332
 20
46.6611
 30
0.0000
 11
10.6332
 21
45.1866
 31
0.0000
  0
LINE
  8
48
 10
10.6332
 20
45.1866
 30
0.0000
 11
11.6162
 21
45.1866
 31
0.0000
  0
LINE
  8
48
 10
12.4226
 20
45.1866
 30
0.0000
 11
12.9141
 21
45.1866
 31
0.0000
  0
LINE
  8
48
 10
12.9141
 20
45.1866
 30
0.0000
 11
13.1598
 21
45.4323
 31
0.0000
  0
LINE
  8
48
 10
13.1598
 20
45.4323
 30
0.0000
 11
13.1598
 21
45.9238
 31
0.0000
  0
LINE
  8
48
 10
13.1598
 20
45.9238
 30
0.0000
 11
12.9141
 21
46.1696
 31
0.0000
  0
LINE
  8
48
 10
12.9141
 20
46.1696
 30
0.0000
 11
12.4226
 21
46.1696
 31
0.0000
  0
LINE
  8
48
 10
12.4226
 20
46.1696
 30
0.0000
 11
12.1768
 21
45.9238
 31
0.0000
  0
LINE
  8
48
 10
12.1768
 20
45.9238
 30
0.0000
 11
12.1768
 21
45.4323
 31
0.0000
  0
LINE
  8
48
 10
12.1768
 20
45.4323
 30
0.0000
 11
12.4226
 21
45.1866
 31
0.0000
  0
LINE
  8
48
 10
13.9662
 20
45.1866
 30
0.0000
 11
14.4577
 21
45.1866
 31
0.0000
  0
LINE
  8
48
 10
14.4577
 20
45.1866
 30
0.0000
 11
14.7034
 21
45.4323
 31
0.0000
  0
LINE
  8
48
 10
14.7034
 20
45.4323
 30
0.0000
 11
14.7034
 21
45.9238
 31
0.0000
  0
LINE
  8
48
 10
14.7034
 20
45.9238
 30
0.0000
 11
14.4577
 21
46.1696
 31
0.0000
  0
LINE
  8
48
 10
14.4577
 20
46.1696
 30
0.0000
 11
13.9662
 21
46.1696
 31
0.0000
  0
LINE
  8
48
 10
13.9662
 20
46.1696
 30
0.0000
 11
13.7205
 21
45.9238
 31
0.0000
  0
LINE
  8
48
 10
13.7205
 20
45.9238
 30
0.0000
 11
13.7205
 21
45.4323
 31
0.0000
  0
LINE
  8
48
 10
13.7205
 20
45.4323
 30
0.0000
 11
13.9662
 21
45.1866
 31
0.0000
  0
LINE
  8
48
 10
15.2641
 20
44.6951
 30
0.0000
 11
15.2641
 21
46.1696
 31
0.0000
  0
LINE
  8
48
 10
15.2641
 20
46.1696
 30
0.0000
 11
16.0013
 21
46.1696
 31
0.0000
  0
LINE
  8
48
 10
16.0013
 20
46.1696
 30
0.0000
 11
16.2470
 21
45.9238
 31
0.0000
  0
LINE
  8
48
 10
16.2470
 20
45.9238
 30
0.0000
 11
16.2470
 21
45.4323
 31
0.0000
  0
LINE
  8
48
 10
16.2470
 20
45.4323
 30
0.0000
 11
16.0013
 21
45.1866
 31
0.0000
  0
LINE
  8
48
 10
16.0013
 20
45.1866
 30
0.0000
 11
15.2641
 21
45.1866
 31
0.0000
  0
LINE
  8
48
 10
16.8077
 20
46.6611
 30
0.0000
 11
16.8077
 21
45.1866
 31
0.0000
  0
LINE
  8
48
 10
16.8077
 20
45.1866
 30
0.0000
 11
17.5449
 21
45.1866
 31
0.0000
  0
LINE
  8
48
 10
17.5449
 20
45.1866
 30
0.0000
 11
17.7906
 21
45.4323
 31
0.0000
  0
LINE
  8
48
 10
17.7906
 20
45.4323
 30
0.0000
 11
17.7906
 21
45.9238
 31
0.0000
  0
LINE
  8
48
 10
17.7906
 20
45.9238
 30
0.0000
 11
17.5449
 21
46.1696
 31
0.0000
  0
LINE
  8
48
 10
17.5449
 20
46.1696
 30
0.0000
 11
16.8077
 21
46.1696
 31
0.0000
  0
LINE
  8
48
 10
18.5970
 20
46.1696
 30
0.0000
 11
19.0885
 21
46.1696
 31
0.0000
  0
LINE
  8
48
 10
19.0885
 20
46.1696
 30
0.0000
 11
19.3342
 21
45.9238
 31
0.0000
  0
LINE
  8
48
 10
19.3342
 20
45.9238
 30
0.0000
 11
19.3342
 21
45.1866
 31
0.0000
  0
LINE
  8
48
 10
19.3342
 20
45.1866
 30
0.0000
 11
18.5970
 21
45.1866
 31
0.0000
  0
LINE
  8
48
 10
18.5970
 20
45.1866
 30
0.0000
 11
18.3513
 21
45.4323
 31
0.0000
  0
LINE
  8
48
 10
18.3513
 20
45.4323
 30
0.0000
 11
18.5970
 21
45.6781
 31
0.0000
  0
LINE
  8
48
 10
18.5970
 20
45.6781
 30
0.0000
 11
19.3342
 21
45.6781
 31
0.0000
  0
LINE
  8
48
 10
20.8778
 20
46.1696
 30
0.0000
 11
20.1406
 21
46.1696
 31
0.0000
  0
LINE
  8
48
 10
20.1406
 20
46.1696
 30
0.0000
 11
19.8949
 21
45.9238
 31
0.0000
  0
LINE
  8
48
 10
19.8949
 20
45.9238
 30
0.0000
 11
19.8949
 21
45.4323
 31
0.0000
  0
LINE
  8
48
 10
19.8949
 20
45.4323
 30
0.0000
 11
20.1406
 21
45.1866
 31
0.0000
  0
LINE
  8
48
 10
20.1406
 20
45.1866
 30
0.0000
 11
20.8778
 21
45.1866
 31
0.0000
  0
LINE
  8
48
 10
21.4385
 20
45.1866
 30
0.0000
 11
21.4385
 21
46.6611
 31
0.0000
  0
LINE
  8
48
 10
22.1757
 20
45.1866
 30
0.0000
 11
21.4385
 21
45.6781
 31
0.0000
  0
LINE
  8
48
 10
21.4385
 20
45.6781
 30
0.0000
 11
22.1757
 21
46.1696
 31
0.0000
  0
LINE
  8
48
 10
1.3716
 20
42.9946
 30
0.0000
 11
1.8631
 21
43.4861
 31
0.0000
  0
LINE
  8
48
 10
1.8631
 20
43.4861
 30
0.0000
 11
1.8631
 21
42.0116
 31
0.0000
  0
LINE
  8
48
 10
1.3716
 20
42.0116
 30
0.0000
 11
2.3546
 21
42.0116
 31
0.0000
  0
LINE
  8
48
 10
2.9152
 20
42.9946
 30
0.0000
 11
3.4067
 21
43.4861
 31
0.0000
  0
LINE
  8
48
 10
3.4067
 20
43.4861
 30
0.0000
 11
3.4067
 21
42.0116
 31
0.0000
  0
LINE
  8
48
 10
2.9152
 20
42.0116
 30
0.0000
 11
3.8982
 21
42.0116
 31
0.0000
  0
LINE
  8
48
 10
4.4588
 20
42.0116
 30
0.0000
 11
4.4588
 21
42.2573
 31
0.0000
  0
LINE
  8
48
 10
4.4588
 20
42.2573
 30
0.0000
 11
4.7046
 21
42.2573
 31
0.0000
  0
LINE
  8
48
 10
4.7046
 20
42.2573
 30
0.0000
 11
4.7046
 21
42.0116
 31
0.0000
  0
LINE
  8
48
 10
4.7046
 20
42.0116
 30
0.0000
 11
4.4588
 21
42.0116
 31
0.0000
  0
LINE
  8
48
 10
5.2306
 20
42.2573
 30
0.0000
 11
5.2306
 21
43.2403
 31
0.0000
  0
LINE
  8
48
 10
5.2306
 20
43.2403
 30
0.0000
 11
5.4764
 21
43.4861
 31
0.0000
  0
LINE
  8
48
 10
5.4764
 20
43.4861
 30
0.0000
 11
5.9678
 21
43.4861
 31
0.0000
  0
LINE
  8
48
 10
5.9678
 20
43.4861
 30
0.0000
 11
6.2136
 21
43.2403
 31
0.0000
  0
LINE
  8
48
 10
6.2136
 20
43.2403
 30
0.0000
 11
6.2136
 21
42.2573
 31
0.0000
  0
LINE
  8
48
 10
6.2136
 20
42.2573
 30
0.0000
 11
5.9678
 21
42.0116
 31
0.0000
  0
LINE
  8
48
 10
5.9678
 20
42.0116
 30
0.0000
 11
5.4764
 21
42.0116
 31
0.0000
  0
LINE
  8
48
 10
5.4764
 20
42.0116
 30
0.0000
 11
5.2306
 21
42.2573
 31
0.0000
  0
LINE
  8
48
 10
5.2306
 20
42.2573
 30
0.0000
 11
6.2136
 21
43.2403
 31
0.0000
  0
LINE
  8
48
 10
7.7572
 20
43.4861
 30
0.0000
 11
6.7742
 21
43.4861
 31
0.0000
  0
LINE
  8
48
 10
6.7742
 20
43.4861
 30
0.0000
 11
6.7742
 21
42.7488
 31
0.0000
  0
LINE
  8
48
 10
6.7742
 20
42.7488
 30
0.0000
 11
7.2657
 21
42.9946
 31
0.0000
  0
LINE
  8
48
 10
7.2657
 20
42.9946
 30
0.0000
 11
7.5114
 21
42.9946
 31
0.0000
  0
LINE
  8
48
 10
7.5114
 20
42.9946
 30
0.0000
 11
7.7572
 21
42.7488
 31
0.0000
  0
LINE
  8
48
 10
7.7572
 20
42.7488
 30
0.0000
 11
7.7572
 21
42.2573
 31
0.0000
  0
LINE
  8
48
 10
7.7572
 20
42.2573
 30
0.0000
 11
7.5114
 21
42.0116
 31
0.0000
  0
LINE
  8
48
 10
7.5114
 20
42.0116
 30
0.0000
 11
7.0200
 21
42.0116
 31
0.0000
  0
LINE
  8
48
 10
7.0200
 20
42.0116
 30
0.0000
 11
6.7742
 21
42.2573
 31
0.0000
  0
LINE
  8
48
 10
8.3178
 20
42.0116
 30
0.0000
 11
8.3178
 21
42.2573
 31
0.0000
  0
LINE
  8
48
 10
8.3178
 20
42.2573
 30
0.0000
 11
8.5636
 21
42.2573
 31
0.0000
  0
LINE
  8
48
 10
8.5636
 20
42.2573
 30
0.0000
 11
8.5636
 21
42.0116
 31
0.0000
  0
LINE
  8
48
 10
8.5636
 20
42.0116
 30
0.0000
 11
8.3178
 21
42.0116
 31
0.0000
  0
LINE
  8
48
 10
10.0726
 20
42.0116
 30
0.0000
 11
9.0896
 21
42.0116
 31
0.0000
  0
LINE
  8
48
 10
9.0896
 20
42.0116
 30
0.0000
 11
10.0726
 21
42.9946
 31
0.0000
  0
LINE
  8
48
 10
10.0726
 20
42.9946
 30
0.0000
 11
10.0726
 21
43.2403
 31
0.0000
  0
LINE
  8
48
 10
10.0726
 20
43.2403
 30
0.0000
 11
9.8269
 21
43.4861
 31
0.0000
  0
LINE
  8
48
 10
9.8269
 20
43.4861
 30
0.0000
 11
9.3354
 21
43.4861
 31
0.0000
  0
LINE
  8
48
 10
9.3354
 20
43.4861
 30
0.0000
 11
9.0896
 21
43.2403
 31
0.0000
  0
LINE
  8
48
 10
10.6332
 20
42.2573
 30
0.0000
 11
10.6332
 21
43.2403
 31
0.0000
  0
LINE
  8
48
 10
10.6332
 20
43.2403
 30
0.0000
 11
10.8790
 21
43.4861
 31
0.0000
  0
LINE
  8
48
 10
10.8790
 20
43.4861
 30
0.0000
 11
11.3705
 21
43.4861
 31
0.0000
  0
LINE
  8
48
 10
11.3705
 20
43.4861
 30
0.0000
 11
11.6162
 21
43.2403
 31
0.0000
  0
LINE
  8
48
 10
11.6162
 20
43.2403
 30
0.0000
 11
11.6162
 21
42.2573
 31
0.0000
  0
LINE
  8
48
 10
11.6162
 20
42.2573
 30
0.0000
 11
11.3705
 21
42.0116
 31
0.0000
  0
LINE
  8
48
 10
11.3705
 20
42.0116
 30
0.0000
 11
10.8790
 21
42.0116
 31
0.0000
  0
LINE
  8
48
 10
10.8790
 20
42.0116
 30
0.0000
 11
10.6332
 21
42.2573
 31
0.0000
  0
LINE
  8
48
 10
10.6332
 20
42.2573
 30
0.0000
 11
11.6162
 21
43.2403
 31
0.0000
  0
LINE
  8
48
 10
13.1598
 20
42.0116
 30
0.0000
 11
12.1768
 21
42.0116
 31
0.0000
  0
LINE
  8
48
 10
12.1768
 20
42.0116
 30
0.0000
 11
13.1598
 21
42.9946
 31
0.0000
  0
LINE
  8
48
 10
13.1598
 20
42.9946
 30
0.0000
 11
13.1598
 21
43.2403
 31
0.0000
  0
LINE
  8
48
 10
13.1598
 20
43.2403
 30
0.0000
 11
12.9141
 21
43.4861
 31
0.0000
  0
LINE
  8
48
 10
12.9141
 20
43.4861
 30
0.0000
 11
12.4226
 21
43.4861
 31
0.0000
  0
LINE
  8
48
 10
12.4226
 20
43.4861
 30
0.0000
 11
12.1768
 21
43.2403
 31
0.0000
  0
LINE
  8
48
 10
13.7205
 20
42.9946
 30
0.0000
 11
14.2119
 21
43.4861
 31
0.0000
  0
LINE
  8
48
 10
14.2119
 20
43.4861
 30
0.0000
 11
14.2119
 21
42.0116
 31
0.0000
  0
LINE
  8
48
 10
13.7205
 20
42.0116
 30
0.0000
 11
14.7034
 21
42.0116
 31
0.0000
  0
LINE
  8
48
 10
17.7906
 20
42.0116
 30
0.0000
 11
16.8077
 21
42.0116
 31
0.0000
  0
LINE
  8
48
 10
16.8077
 20
42.0116
 30
0.0000
 11
17.7906
 21
42.9946
 31
0.0000
  0
LINE
  8
48
 10
17.7906
 20
42.9946
 30
0.0000
 11
17.7906
 21
43.2403
 31
0.0000
  0
LINE
  8
48
 10
17.7906
 20
43.2403
 30
0.0000
 11
17.5449
 21
43.4861
 31
0.0000
  0
LINE
  8
48
 10
17.5449
 20
43.4861
 30
0.0000
 11
17.0534
 21
43.4861
 31
0.0000
  0
LINE
  8
48
 10
17.0534
 20
43.4861
 30
0.0000
 11
16.8077
 21
43.2403
 31
0.0000
  0
LINE
  8
48
 10
18.3513
 20
42.2573
 30
0.0000
 11
18.3513
 21
43.2403
 31
0.0000
  0
LINE
  8
48
 10
18.3513
 20
43.2403
 30
0.0000
 11
18.5970
 21
43.4861
 31
0.0000
  0
LINE
  8
48
 10
18.5970
 20
43.4861
 30
0.0000
 11
19.0885
 21
43.4861
 31
0.0000
  0
LINE
  8
48
 10
19.0885
 20
43.4861
 30
0.0000
 11
19.3342
 21
43.2403
 31
0.0000
  0
LINE
  8
48
 10
19.3342
 20
43.2403
 30
0.0000
 11
19.3342
 21
42.2573
 31
0.0000
  0
LINE
  8
48
 10
19.3342
 20
42.2573
 30
0.0000
 11
19.0885
 21
42.0116
 31
0.0000
  0
LINE
  8
48
 10
19.0885
 20
42.0116
 30
0.0000
 11
18.5970
 21
42.0116
 31
0.0000
  0
LINE
  8
48
 10
18.5970
 20
42.0116
 30
0.0000
 11
18.3513
 21
42.2573
 31
0.0000
  0
LINE
  8
48
 10
18.3513
 20
42.2573
 30
0.0000
 11
19.3342
 21
43.2403
 31
0.0000
  0
LINE
  8
48
 10
19.8949
 20
42.9946
 30
0.0000
 11
20.1406
 21
42.9946
 31
0.0000
  0
LINE
  8
48
 10
20.1406
 20
42.9946
 30
0.0000
 11
20.1406
 21
42.7488
 31
0.0000
  0
LINE
  8
48
 10
20.1406
 20
42.7488
 30
0.0000
 11
19.8949
 21
42.7488
 31
0.0000
  0
LINE
  8
48
 10
19.8949
 20
42.7488
 30
0.0000
 11
19.8949
 21
42.9946
 31
0.0000
  0
LINE
  8
48
 10
19.8949
 20
42.2573
 30
0.0000
 11
20.1406
 21
42.2573
 31
0.0000
  0
LINE
  8
48
 10
20.1406
 20
42.2573
 30
0.0000
 11
20.1406
 21
42.0116
 31
0.0000
  0
LINE
  8
48
 10
20.1406
 20
42.0116
 30
0.0000
 11
19.8949
 21
42.0116
 31
0.0000
  0
LINE
  8
48
 10
19.8949
 20
42.0116
 30
0.0000
 11
19.8949
 21
42.2573
 31
0.0000
  0
LINE
  8
48
 10
21.4039
 20
42.0116
 30
0.0000
 11
21.4039
 21
43.4861
 31
0.0000
  0
LINE
  8
48
 10
21.4039
 20
43.4861
 30
0.0000
 11
20.6667
 21
42.7488
 31
0.0000
  0
LINE
  8
48
 10
20.6667
 20
42.7488
 30
0.0000
 11
21.6497
 21
42.7488
 31
0.0000
  0
LINE
  8
48
 10
22.2103
 20
43.2403
 30
0.0000
 11
22.4560
 21
43.4861
 31
0.0000
  0
LINE
  8
48
 10
22.4560
 20
43.4861
 30
0.0000
 11
22.9475
 21
43.4861
 31
0.0000
  0
LINE
  8
48
 10
22.9475
 20
43.4861
 30
0.0000
 11
23.1933
 21
43.2403
 31
0.0000
  0
LINE
  8
48
 10
23.1933
 20
43.2403
 30
0.0000
 11
23.1933
 21
42.9946
 31
0.0000
  0
LINE
  8
48
 10
23.1933
 20
42.9946
 30
0.0000
 11
22.9475
 21
42.7488
 31
0.0000
  0
LINE
  8
48
 10
22.9475
 20
42.7488
 30
0.0000
 11
23.1933
 21
42.5031
 31
0.0000
  0
LINE
  8
48
 10
23.1933
 20
42.5031
 30
0.0000
 11
23.1933
 21
42.2573
 31
0.0000
  0
LINE
  8
48
 10
23.1933
 20
42.2573
 30
0.0000
 11
22.9475
 21
42.0116
 31
0.0000
  0
LINE
  8
48
 10
22.9475
 20
42.0116
 30
0.0000
 11
22.4560
 21
42.0116
 31
0.0000
  0
LINE
  8
48
 10
22.4560
 20
42.0116
 30
0.0000
 11
22.2103
 21
42.2573
 31
0.0000
  0
LINE
  8
48
 10
22.2103
 20
42.2573
 30
0.0000
 11
22.2103
 21
42.5031
 31
0.0000
  0
LINE
  8
48
 10
22.2103
 20
42.5031
 30
0.0000
 11
22.4560
 21
42.7488
 31
0.0000
  0
LINE
  8
48
 10
22.4560
 20
42.7488
 30
0.0000
 11
22.2103
 21
42.9946
 31
0.0000
  0
LINE
  8
48
 10
22.2103
 20
42.9946
 30
0.0000
 11
22.2103
 21
43.2403
 31
0.0000
  0
LINE
  8
48
 10
22.4560
 20
42.7488
 30
0.0000
 11
22.9475
 21
42.7488
 31
0.0000
  0
ENDSEC
  0
EOF
